Hubballi-Regular-46_5-LatinOnly-Decomp-105.ufo
<glyph name="exclam" format="1">
  <advance width="343"/>
  <unicode hex="0021"/>
  <outline>
    <contour>
      <point x="170" y="112" type="curve" smooth="yes"/>
      <point x="207" y="112"/>
      <point x="243" y="85"/>
      <point x="243" y="35" type="curve" smooth="yes"/>
      <point x="243" y="-27"/>
      <point x="209" y="-41"/>
      <point x="171" y="-41" type="curve" smooth="yes"/>
      <point x="141" y="-41"/>
      <point x="98" y="-25"/>
      <point x="98" y="35" type="curve"/>
      <point x="98" y="86"/>
      <point x="130" y="112"/>
    </contour>
    <contour>
      <point x="119" y="265" type="curve" smooth="yes"/>
      <point x="126" y="557" type="line" smooth="yes"/>
      <point x="127" y="582"/>
      <point x="153" y="603"/>
      <point x="178" y="602" type="curve" smooth="yes"/>
      <point x="203" y="601"/>
      <point x="229" y="580"/>
      <point x="228" y="555" type="curve" smooth="yes"/>
      <point x="221" y="263" type="line" smooth="yes"/>
      <point x="220" y="238"/>
      <point x="194" y="217"/>
      <point x="169" y="218" type="curve" smooth="yes"/>
      <point x="144" y="219"/>
      <point x="118" y="240"/>
    </contour>
    <contour>
      <point x="170" y="20" type="curve" smooth="yes"/>
      <point x="178" y="20"/>
      <point x="200" y="14"/>
      <point x="200" y="35" type="curve" smooth="yes"/>
      <point x="200" y="59"/>
      <point x="177" y="51"/>
      <point x="171" y="51" type="curve" smooth="yes"/>
      <point x="163" y="51"/>
      <point x="141" y="61"/>
      <point x="141" y="35" type="curve" smooth="yes"/>
      <point x="141" y="15"/>
      <point x="163" y="20"/>
    </contour>
  </outline>
</glyph>
<glyph name="quotedbl" format="1">
  <advance width="424"/>
  <unicode hex="0022"/>
  <outline>
    <contour>
      <point x="194" y="561" type="curve" smooth="yes"/>
      <point x="152" y="377" type="line" smooth="yes"/>
      <point x="147" y="353"/>
      <point x="117" y="338"/>
      <point x="93" y="343" type="curve" smooth="yes"/>
      <point x="69" y="349"/>
      <point x="48" y="375"/>
      <point x="54" y="399" type="curve" smooth="yes"/>
      <point x="96" y="583" type="line" smooth="yes"/>
      <point x="101" y="607"/>
      <point x="131" y="622"/>
      <point x="155" y="617" type="curve" smooth="yes"/>
      <point x="179" y="611"/>
      <point x="200" y="585"/>
    </contour>
    <contour>
      <point x="361" y="561" type="curve" smooth="yes"/>
      <point x="319" y="377" type="line" smooth="yes"/>
      <point x="314" y="353"/>
      <point x="284" y="338"/>
      <point x="260" y="343" type="curve" smooth="yes"/>
      <point x="236" y="349"/>
      <point x="215" y="375"/>
      <point x="221" y="399" type="curve" smooth="yes"/>
      <point x="263" y="583" type="line" smooth="yes"/>
      <point x="268" y="607"/>
      <point x="298" y="622"/>
      <point x="322" y="617" type="curve" smooth="yes"/>
      <point x="346" y="611"/>
      <point x="367" y="585"/>
    </contour>
  </outline>
</glyph>
<glyph name="numbersign" format="1">
  <advance width="626"/>
  <unicode hex="0023"/>
  <outline>
    <contour>
      <point x="552" y="502" type="curve" smooth="yes"/>
      <point x="367" y="-6" type="line" smooth="yes"/>
      <point x="358" y="-29"/>
      <point x="328" y="-41"/>
      <point x="304" y="-32" type="curve" smooth="yes"/>
      <point x="281" y="-24"/>
      <point x="265" y="5"/>
      <point x="273" y="28" type="curve" smooth="yes"/>
      <point x="458" y="536" type="line" smooth="yes"/>
      <point x="467" y="559"/>
      <point x="497" y="571"/>
      <point x="521" y="562" type="curve" smooth="yes"/>
      <point x="544" y="554"/>
      <point x="560" y="525"/>
    </contour>
    <contour>
      <point x="342" y="502" type="curve" smooth="yes"/>
      <point x="157" y="-6" type="line" smooth="yes"/>
      <point x="148" y="-29"/>
      <point x="118" y="-41"/>
      <point x="94" y="-32" type="curve" smooth="yes"/>
      <point x="71" y="-24"/>
      <point x="55" y="5"/>
      <point x="63" y="28" type="curve" smooth="yes"/>
      <point x="248" y="536" type="line" smooth="yes"/>
      <point x="257" y="559"/>
      <point x="287" y="571"/>
      <point x="311" y="562" type="curve" smooth="yes"/>
      <point x="334" y="554"/>
      <point x="350" y="525"/>
    </contour>
    <contour>
      <point x="559" y="338" type="curve" smooth="yes"/>
      <point x="134" y="338" type="line" smooth="yes"/>
      <point x="109" y="338"/>
      <point x="88" y="359"/>
      <point x="88" y="384" type="curve" smooth="yes"/>
      <point x="88" y="409"/>
      <point x="109" y="430"/>
      <point x="134" y="430" type="curve" smooth="yes"/>
      <point x="559" y="430" type="line" smooth="yes"/>
      <point x="584" y="430"/>
      <point x="605" y="409"/>
      <point x="605" y="384" type="curve" smooth="yes"/>
      <point x="605" y="359"/>
      <point x="584" y="338"/>
    </contour>
    <contour>
      <point x="486" y="128" type="curve" smooth="yes"/>
      <point x="62" y="128" type="line" smooth="yes"/>
      <point x="37" y="128"/>
      <point x="16" y="149"/>
      <point x="16" y="174" type="curve" smooth="yes"/>
      <point x="16" y="199"/>
      <point x="37" y="220"/>
      <point x="62" y="220" type="curve" smooth="yes"/>
      <point x="486" y="220" type="line" smooth="yes"/>
      <point x="511" y="220"/>
      <point x="532" y="199"/>
      <point x="532" y="174" type="curve" smooth="yes"/>
      <point x="532" y="149"/>
      <point x="511" y="128"/>
    </contour>
  </outline>
</glyph>
<glyph name="dollar" format="1">
  <advance width="603"/>
  <unicode hex="0024"/>
  <outline>
    <contour>
      <point x="444" y="452" type="curve" smooth="yes"/>
      <point x="392" y="470"/>
      <point x="354" y="481"/>
      <point x="278" y="481" type="curve" smooth="yes"/>
      <point x="218" y="481"/>
      <point x="165" y="456"/>
      <point x="165" y="417" type="curve" smooth="yes"/>
      <point x="165" y="378"/>
      <point x="203" y="342"/>
      <point x="311" y="324" type="curve" smooth="yes"/>
      <point x="503" y="288"/>
      <point x="551" y="212"/>
      <point x="551" y="130" type="curve" smooth="yes"/>
      <point x="551" y="46"/>
      <point x="490" y="-44"/>
      <point x="302" y="-44" type="curve" smooth="yes"/>
      <point x="223" y="-44"/>
      <point x="148" y="-28"/>
      <point x="79" y="6" type="curve" smooth="yes"/>
      <point x="56" y="17"/>
      <point x="47" y="45"/>
      <point x="58" y="67" type="curve" smooth="yes"/>
      <point x="69" y="90"/>
      <point x="97" y="99"/>
      <point x="119" y="88" type="curve" smooth="yes"/>
      <point x="176" y="60"/>
      <point x="237" y="48"/>
      <point x="302" y="48" type="curve" smooth="yes"/>
      <point x="390" y="48"/>
      <point x="449" y="80"/>
      <point x="449" y="130" type="curve" smooth="yes"/>
      <point x="449" y="182"/>
      <point x="397" y="214"/>
      <point x="295" y="234" type="curve" smooth="yes"/>
      <point x="81" y="270"/>
      <point x="63" y="352"/>
      <point x="63" y="417" type="curve"/>
      <point x="63" y="490"/>
      <point x="132" y="573"/>
      <point x="278" y="573" type="curve" smooth="yes"/>
      <point x="368" y="573"/>
      <point x="412" y="560"/>
      <point x="474" y="538" type="curve" smooth="yes"/>
      <point x="498" y="530"/>
      <point x="511" y="503"/>
      <point x="502" y="480" type="curve" smooth="yes"/>
      <point x="494" y="456"/>
      <point x="467" y="443"/>
    </contour>
    <contour>
      <point x="349" y="623" type="curve" smooth="yes"/>
      <point x="349" y="-101" type="line" smooth="yes"/>
      <point x="349" y="-126"/>
      <point x="323" y="-147"/>
      <point x="298" y="-147" type="curve" smooth="yes"/>
      <point x="273" y="-147"/>
      <point x="247" y="-126"/>
      <point x="247" y="-101" type="curve" smooth="yes"/>
      <point x="247" y="623" type="line" smooth="yes"/>
      <point x="247" y="648"/>
      <point x="273" y="669"/>
      <point x="298" y="669" type="curve" smooth="yes"/>
      <point x="323" y="669"/>
      <point x="349" y="648"/>
    </contour>
  </outline>
</glyph>
<glyph name="percent" format="1">
  <advance width="855"/>
  <unicode hex="0025"/>
  <outline>
    <contour>
      <point x="213" y="574" type="curve" smooth="yes"/>
      <point x="296" y="574"/>
      <point x="378" y="505"/>
      <point x="378" y="385" type="curve" smooth="yes"/>
      <point x="378" y="272"/>
      <point x="309" y="196"/>
      <point x="213" y="196" type="curve" smooth="yes"/>
      <point x="126" y="196"/>
      <point x="48" y="273"/>
      <point x="48" y="384" type="curve"/>
      <point x="48" y="506"/>
      <point x="125" y="574"/>
    </contour>
    <contour>
      <point x="643" y="332" type="curve" smooth="yes"/>
      <point x="726" y="332"/>
      <point x="807" y="263"/>
      <point x="807" y="143" type="curve" smooth="yes"/>
      <point x="807" y="31"/>
      <point x="738" y="-46"/>
      <point x="643" y="-46" type="curve" smooth="yes"/>
      <point x="554" y="-46"/>
      <point x="477" y="32"/>
      <point x="477" y="142" type="curve" smooth="yes"/>
      <point x="477" y="263"/>
      <point x="553" y="332"/>
    </contour>
    <contour>
      <point x="620" y="496" type="curve" smooth="yes"/>
      <point x="322" y="-13" type="line" smooth="yes"/>
      <point x="309" y="-35"/>
      <point x="278" y="-41"/>
      <point x="257" y="-29" type="curve" smooth="yes"/>
      <point x="235" y="-16"/>
      <point x="226" y="14"/>
      <point x="238" y="35" type="curve" smooth="yes"/>
      <point x="536" y="544" type="line" smooth="yes"/>
      <point x="549" y="566"/>
      <point x="580" y="572"/>
      <point x="601" y="560" type="curve" smooth="yes"/>
      <point x="623" y="547"/>
      <point x="632" y="517"/>
    </contour>
    <contour>
      <point x="213" y="482" type="curve" smooth="yes"/>
      <point x="167" y="482"/>
      <point x="150" y="430"/>
      <point x="150" y="384" type="curve" smooth="yes"/>
      <point x="150" y="341"/>
      <point x="168" y="288"/>
      <point x="213" y="288" type="curve" smooth="yes"/>
      <point x="263" y="288"/>
      <point x="276" y="342"/>
      <point x="276" y="385" type="curve" smooth="yes"/>
      <point x="276" y="431"/>
      <point x="256" y="482"/>
    </contour>
    <contour>
      <point x="643" y="240" type="curve" smooth="yes"/>
      <point x="597" y="240"/>
      <point x="579" y="189"/>
      <point x="579" y="142" type="curve" smooth="yes"/>
      <point x="579" y="100"/>
      <point x="598" y="46"/>
      <point x="643" y="46" type="curve" smooth="yes"/>
      <point x="692" y="46"/>
      <point x="705" y="101"/>
      <point x="705" y="143" type="curve" smooth="yes"/>
      <point x="705" y="189"/>
      <point x="686" y="240"/>
    </contour>
  </outline>
</glyph>
<glyph name="ampersand" format="1">
  <advance width="666"/>
  <unicode hex="0026"/>
  <outline>
    <contour>
      <point x="585" y="250" type="curve" smooth="yes"/>
      <point x="495" y="122" type="line" smooth="yes"/>
      <point x="403" y="-9"/>
      <point x="333" y="-43"/>
      <point x="245" y="-43" type="curve" smooth="yes"/>
      <point x="125" y="-43"/>
      <point x="46" y="32"/>
      <point x="46" y="126" type="curve" smooth="yes"/>
      <point x="46" y="208"/>
      <point x="79" y="276"/>
      <point x="269" y="354" type="curve" smooth="yes"/>
      <point x="310" y="371"/>
      <point x="331" y="395"/>
      <point x="331" y="427" type="curve" smooth="yes"/>
      <point x="331" y="457"/>
      <point x="305" y="482"/>
      <point x="271" y="482" type="curve" smooth="yes"/>
      <point x="236" y="482"/>
      <point x="214" y="456"/>
      <point x="214" y="423" type="curve" smooth="yes"/>
      <point x="214" y="378"/>
      <point x="250" y="346"/>
      <point x="298" y="303" type="curve" smooth="yes"/>
      <point x="593" y="46" type="line" smooth="yes"/>
      <point x="611" y="30"/>
      <point x="613" y="0"/>
      <point x="597" y="-19" type="curve" smooth="yes"/>
      <point x="580" y="-38"/>
      <point x="550" y="-40"/>
      <point x="531" y="-24" type="curve" smooth="yes"/>
      <point x="236" y="233" type="line" smooth="yes"/>
      <point x="160" y="300"/>
      <point x="112" y="354"/>
      <point x="112" y="423" type="curve"/>
      <point x="112" y="516"/>
      <point x="182" y="574"/>
      <point x="271" y="574" type="curve" smooth="yes"/>
      <point x="363" y="574"/>
      <point x="433" y="509"/>
      <point x="433" y="427" type="curve" smooth="yes"/>
      <point x="433" y="359"/>
      <point x="394" y="307"/>
      <point x="303" y="268" type="curve" smooth="yes"/>
      <point x="185" y="220"/>
      <point x="148" y="182"/>
      <point x="148" y="126" type="curve" smooth="yes"/>
      <point x="148" y="80"/>
      <point x="191" y="49"/>
      <point x="245" y="49" type="curve" smooth="yes"/>
      <point x="309" y="49"/>
      <point x="353" y="87"/>
      <point x="417" y="178" type="curve" smooth="yes"/>
      <point x="507" y="306" type="line" smooth="yes"/>
      <point x="521" y="326"/>
      <point x="552" y="330"/>
      <point x="572" y="316" type="curve" smooth="yes"/>
      <point x="593" y="301"/>
      <point x="599" y="271"/>
    </contour>
  </outline>
</glyph>
<glyph name="quotesingle" format="1">
  <advance width="257"/>
  <unicode hex="0027"/>
  <outline>
    <contour>
      <point x="194" y="561" type="curve" smooth="yes"/>
      <point x="152" y="377" type="line" smooth="yes"/>
      <point x="147" y="353"/>
      <point x="117" y="338"/>
      <point x="93" y="343" type="curve" smooth="yes"/>
      <point x="69" y="349"/>
      <point x="48" y="375"/>
      <point x="54" y="399" type="curve" smooth="yes"/>
      <point x="96" y="583" type="line" smooth="yes"/>
      <point x="101" y="607"/>
      <point x="131" y="622"/>
      <point x="155" y="617" type="curve" smooth="yes"/>
      <point x="179" y="611"/>
      <point x="200" y="585"/>
    </contour>
  </outline>
</glyph>
<glyph name="parenleft" format="1">
  <advance width="352"/>
  <unicode hex="0028"/>
  <outline>
    <contour>
      <point x="280" y="588" type="curve" smooth="yes"/>
      <point x="208" y="509"/>
      <point x="153" y="386"/>
      <point x="153" y="259" type="curve" smooth="yes"/>
      <point x="153" y="134"/>
      <point x="203" y="18"/>
      <point x="279" y="-60" type="curve" smooth="yes"/>
      <point x="296" y="-78"/>
      <point x="295" y="-109"/>
      <point x="277" y="-126" type="curve" smooth="yes"/>
      <point x="259" y="-143"/>
      <point x="228" y="-143"/>
      <point x="211" y="-126" type="curve" smooth="yes"/>
      <point x="121" y="-32"/>
      <point x="51" y="106"/>
      <point x="51" y="259" type="curve"/>
      <point x="51" y="412"/>
      <point x="124" y="557"/>
      <point x="210" y="652" type="curve" smooth="yes"/>
      <point x="227" y="670"/>
      <point x="258" y="671"/>
      <point x="276" y="654" type="curve" smooth="yes"/>
      <point x="294" y="637"/>
      <point x="297" y="607"/>
    </contour>
  </outline>
</glyph>
<glyph name="parenright" format="1">
  <advance width="352"/>
  <unicode hex="0029"/>
  <outline>
    <contour>
      <point x="142" y="652" type="curve" smooth="yes"/>
      <point x="228" y="557"/>
      <point x="301" y="412"/>
      <point x="301" y="259" type="curve" smooth="yes"/>
      <point x="301" y="106"/>
      <point x="231" y="-32"/>
      <point x="141" y="-126" type="curve" smooth="yes"/>
      <point x="124" y="-143"/>
      <point x="93" y="-143"/>
      <point x="75" y="-126" type="curve" smooth="yes"/>
      <point x="57" y="-109"/>
      <point x="56" y="-78"/>
      <point x="73" y="-60" type="curve" smooth="yes"/>
      <point x="149" y="18"/>
      <point x="199" y="134"/>
      <point x="199" y="259" type="curve" smooth="yes"/>
      <point x="199" y="386"/>
      <point x="144" y="509"/>
      <point x="72" y="588" type="curve" smooth="yes"/>
      <point x="55" y="607"/>
      <point x="58" y="637"/>
      <point x="76" y="654" type="curve" smooth="yes"/>
      <point x="94" y="671"/>
      <point x="125" y="670"/>
    </contour>
  </outline>
</glyph>
<glyph name="asterisk" format="1">
  <advance width="453"/>
  <unicode hex="002A"/>
  <outline>
    <contour>
      <point x="277" y="544" type="curve" smooth="yes"/>
      <point x="277" y="284" type="line" smooth="yes"/>
      <point x="277" y="259"/>
      <point x="251" y="238"/>
      <point x="226" y="238" type="curve" smooth="yes"/>
      <point x="201" y="238"/>
      <point x="175" y="259"/>
      <point x="175" y="284" type="curve" smooth="yes"/>
      <point x="175" y="544" type="line" smooth="yes"/>
      <point x="175" y="569"/>
      <point x="201" y="590"/>
      <point x="226" y="590" type="curve" smooth="yes"/>
      <point x="251" y="590"/>
      <point x="277" y="569"/>
    </contour>
    <contour>
      <point x="127" y="523" type="curve" smooth="yes"/>
      <point x="372" y="380" type="line" smooth="yes"/>
      <point x="394" y="367"/>
      <point x="401" y="338"/>
      <point x="389" y="317" type="curve" smooth="yes"/>
      <point x="376" y="295"/>
      <point x="347" y="288"/>
      <point x="326" y="300" type="curve" smooth="yes"/>
      <point x="81" y="443" type="line" smooth="yes"/>
      <point x="59" y="456"/>
      <point x="52" y="485"/>
      <point x="64" y="506" type="curve" smooth="yes"/>
      <point x="77" y="528"/>
      <point x="106" y="535"/>
    </contour>
    <contour>
      <point x="81" y="380" type="curve" smooth="yes"/>
      <point x="326" y="523" type="line" smooth="yes"/>
      <point x="347" y="535"/>
      <point x="376" y="528"/>
      <point x="389" y="506" type="curve" smooth="yes"/>
      <point x="401" y="485"/>
      <point x="394" y="456"/>
      <point x="372" y="443" type="curve" smooth="yes"/>
      <point x="127" y="300" type="line" smooth="yes"/>
      <point x="106" y="288"/>
      <point x="77" y="295"/>
      <point x="64" y="317" type="curve" smooth="yes"/>
      <point x="52" y="338"/>
      <point x="59" y="367"/>
    </contour>
  </outline>
</glyph>
<glyph name="plus" format="1">
  <advance width="557"/>
  <unicode hex="002B"/>
  <outline>
    <contour>
      <point x="101" y="310" type="curve" smooth="yes"/>
      <point x="455" y="310" type="line" smooth="yes"/>
      <point x="480" y="310"/>
      <point x="501" y="289"/>
      <point x="501" y="264" type="curve" smooth="yes"/>
      <point x="501" y="239"/>
      <point x="480" y="218"/>
      <point x="455" y="218" type="curve" smooth="yes"/>
      <point x="101" y="218" type="line" smooth="yes"/>
      <point x="76" y="218"/>
      <point x="55" y="239"/>
      <point x="55" y="264" type="curve" smooth="yes"/>
      <point x="55" y="289"/>
      <point x="76" y="310"/>
    </contour>
    <contour>
      <point x="227" y="92" type="curve" smooth="yes"/>
      <point x="227" y="435" type="line" smooth="yes"/>
      <point x="227" y="460"/>
      <point x="253" y="481"/>
      <point x="278" y="481" type="curve" smooth="yes"/>
      <point x="303" y="481"/>
      <point x="329" y="460"/>
      <point x="329" y="435" type="curve" smooth="yes"/>
      <point x="329" y="92" type="line" smooth="yes"/>
      <point x="329" y="67"/>
      <point x="303" y="46"/>
      <point x="278" y="46" type="curve" smooth="yes"/>
      <point x="253" y="46"/>
      <point x="227" y="67"/>
    </contour>
  </outline>
</glyph>
<glyph name="comma" format="1">
  <advance width="242"/>
  <unicode hex="002C"/>
  <outline>
    <contour>
      <point x="163" y="97" type="curve" smooth="yes"/>
      <point x="169" y="81"/>
      <point x="173" y="56"/>
      <point x="173" y="30" type="curve" smooth="yes"/>
      <point x="173" y="-29"/>
      <point x="149" y="-88"/>
      <point x="116" y="-132" type="curve" smooth="yes"/>
      <point x="101" y="-151"/>
      <point x="70" y="-155"/>
      <point x="50" y="-140" type="curve" smooth="yes"/>
      <point x="31" y="-125"/>
      <point x="25" y="-94"/>
      <point x="40" y="-74" type="curve" smooth="yes"/>
      <point x="61" y="-46"/>
      <point x="71" y="-7"/>
      <point x="71" y="30" type="curve"/>
      <point x="71" y="44"/>
      <point x="71" y="57"/>
      <point x="69" y="65" type="curve" smooth="yes"/>
      <point x="61" y="89"/>
      <point x="78" y="117"/>
      <point x="101" y="125" type="curve" smooth="yes"/>
      <point x="125" y="132"/>
      <point x="155" y="120"/>
    </contour>
  </outline>
</glyph>
<glyph name="hyphen" format="1">
  <advance width="441.0"/>
  <unicode hex="002D"/>
  <outline>
    <contour>
      <point x="114" y="264" type="curve" smooth="yes"/>
      <point x="327" y="264" type="line" smooth="yes"/>
      <point x="352" y="264"/>
      <point x="373" y="243"/>
      <point x="373" y="218" type="curve" smooth="yes"/>
      <point x="373" y="193"/>
      <point x="352" y="172"/>
      <point x="327" y="172" type="curve" smooth="yes"/>
      <point x="114" y="172" type="line" smooth="yes"/>
      <point x="89" y="172"/>
      <point x="68" y="193"/>
      <point x="68" y="218" type="curve" smooth="yes"/>
      <point x="68" y="243"/>
      <point x="89" y="264"/>
    </contour>
  </outline>
</glyph>
<glyph name="period" format="1">
  <advance width="236"/>
  <unicode hex="002E"/>
  <outline>
    <contour>
      <point x="119" y="123" type="curve" smooth="yes"/>
      <point x="154" y="123"/>
      <point x="192" y="97"/>
      <point x="192" y="47" type="curve" smooth="yes"/>
      <point x="192" y="-15"/>
      <point x="155" y="-29"/>
      <point x="120" y="-29" type="curve" smooth="yes"/>
      <point x="87" y="-29"/>
      <point x="47" y="-13"/>
      <point x="47" y="47" type="curve"/>
      <point x="47" y="98"/>
      <point x="78" y="123"/>
    </contour>
    <contour>
      <point x="119" y="31" type="curve" smooth="yes"/>
      <point x="128" y="31"/>
      <point x="149" y="26"/>
      <point x="149" y="47" type="curve" smooth="yes"/>
      <point x="149" y="71"/>
      <point x="127" y="63"/>
      <point x="120" y="63" type="curve" smooth="yes"/>
      <point x="113" y="63"/>
      <point x="90" y="73"/>
      <point x="90" y="47" type="curve"/>
      <point x="90" y="27"/>
      <point x="112" y="31"/>
    </contour>
  </outline>
</glyph>
<glyph name="slash" format="1">
  <advance width="415"/>
  <unicode hex="002F"/>
  <outline>
    <contour>
      <point x="382" y="603" type="curve" smooth="yes"/>
      <point x="121" y="-111" type="line" smooth="yes"/>
      <point x="112" y="-134"/>
      <point x="82" y="-146"/>
      <point x="58" y="-137" type="curve" smooth="yes"/>
      <point x="35" y="-129"/>
      <point x="19" y="-100"/>
      <point x="27" y="-77" type="curve" smooth="yes"/>
      <point x="288" y="637" type="line" smooth="yes"/>
      <point x="297" y="660"/>
      <point x="327" y="672"/>
      <point x="351" y="663" type="curve" smooth="yes"/>
      <point x="374" y="655"/>
      <point x="390" y="626"/>
    </contour>
  </outline>
</glyph>
<glyph name="zero" format="1">
  <advance width="594"/>
  <unicode hex="0030"/>
  <outline>
    <contour>
      <point x="298" y="575" type="curve" smooth="yes"/>
      <point x="433" y="575"/>
      <point x="556" y="456"/>
      <point x="556" y="267" type="curve" smooth="yes"/>
      <point x="556" y="88"/>
      <point x="454" y="-44"/>
      <point x="298" y="-44" type="curve" smooth="yes"/>
      <point x="155" y="-44"/>
      <point x="37" y="89"/>
      <point x="37" y="265" type="curve"/>
      <point x="37" y="456"/>
      <point x="152" y="575"/>
    </contour>
    <contour>
      <point x="298" y="483" type="curve" smooth="yes"/>
      <point x="196" y="483"/>
      <point x="139" y="382"/>
      <point x="139" y="265" type="curve" smooth="yes"/>
      <point x="139" y="157"/>
      <point x="197" y="48"/>
      <point x="298" y="48" type="curve" smooth="yes"/>
      <point x="408" y="48"/>
      <point x="454" y="158"/>
      <point x="454" y="267" type="curve" smooth="yes"/>
      <point x="454" y="382"/>
      <point x="393" y="483"/>
    </contour>
  </outline>
</glyph>
<glyph name="one" format="1">
  <advance width="344"/>
  <unicode hex="0031"/>
  <outline>
    <contour>
      <point x="266" y="513" type="curve" smooth="yes"/>
      <point x="266" y="11" type="line" smooth="yes"/>
      <point x="266" y="-14"/>
      <point x="240" y="-35"/>
      <point x="215" y="-35" type="curve" smooth="yes"/>
      <point x="190" y="-35"/>
      <point x="164" y="-14"/>
      <point x="164" y="11" type="curve" smooth="yes"/>
      <point x="164" y="513" type="line" smooth="yes"/>
      <point x="164" y="538"/>
      <point x="190" y="559"/>
      <point x="215" y="559" type="curve" smooth="yes"/>
      <point x="240" y="559"/>
      <point x="266" y="538"/>
    </contour>
    <contour>
      <point x="237" y="479" type="curve" smooth="yes"/>
      <point x="101" y="405" type="line" smooth="yes"/>
      <point x="79" y="394"/>
      <point x="50" y="402"/>
      <point x="39" y="424" type="curve" smooth="yes"/>
      <point x="27" y="446"/>
      <point x="35" y="475"/>
      <point x="57" y="487" type="curve" smooth="yes"/>
      <point x="193" y="561" type="line" smooth="yes"/>
      <point x="215" y="572"/>
      <point x="244" y="564"/>
      <point x="255" y="542" type="curve" smooth="yes"/>
      <point x="267" y="520"/>
      <point x="259" y="491"/>
    </contour>
  </outline>
</glyph>
<glyph name="two" format="1">
  <advance width="533"/>
  <unicode hex="0032"/>
  <outline>
    <contour>
      <point x="58" y="54" type="curve" smooth="yes"/>
      <point x="233" y="221" type="line" smooth="yes"/>
      <point x="329" y="313"/>
      <point x="364" y="354"/>
      <point x="364" y="410" type="curve" smooth="yes"/>
      <point x="364" y="449"/>
      <point x="331" y="483"/>
      <point x="271" y="483" type="curve" smooth="yes"/>
      <point x="224" y="483"/>
      <point x="179" y="470"/>
      <point x="136" y="444" type="curve" smooth="yes"/>
      <point x="115" y="431"/>
      <point x="86" y="438"/>
      <point x="73" y="459" type="curve" smooth="yes"/>
      <point x="60" y="480"/>
      <point x="67" y="509"/>
      <point x="88" y="522" type="curve" smooth="yes"/>
      <point x="145" y="558"/>
      <point x="208" y="575"/>
      <point x="271" y="575" type="curve" smooth="yes"/>
      <point x="405" y="575"/>
      <point x="466" y="493"/>
      <point x="466" y="410" type="curve" smooth="yes"/>
      <point x="466" y="336"/>
      <point x="429" y="279"/>
      <point x="297" y="153" type="curve" smooth="yes"/>
      <point x="122" y="-14" type="line" smooth="yes"/>
      <point x="104" y="-31"/>
      <point x="74" y="-30"/>
      <point x="57" y="-12" type="curve" smooth="yes"/>
      <point x="40" y="6"/>
      <point x="40" y="37"/>
    </contour>
    <contour>
      <point x="449" y="-35" type="curve" smooth="yes"/>
      <point x="80" y="-35" type="line" smooth="yes"/>
      <point x="55" y="-35"/>
      <point x="34" y="-14"/>
      <point x="34" y="11" type="curve" smooth="yes"/>
      <point x="34" y="36"/>
      <point x="55" y="57"/>
      <point x="80" y="57" type="curve" smooth="yes"/>
      <point x="449" y="57" type="line" smooth="yes"/>
      <point x="474" y="57"/>
      <point x="495" y="36"/>
      <point x="495" y="11" type="curve" smooth="yes"/>
      <point x="495" y="-14"/>
      <point x="474" y="-35"/>
    </contour>
  </outline>
</glyph>
<glyph name="three" format="1">
  <advance width="538"/>
  <unicode hex="0033"/>
  <outline>
    <contour>
      <point x="121" y="566" type="curve" smooth="yes"/>
      <point x="433" y="566" type="line" smooth="yes"/>
      <point x="458" y="566"/>
      <point x="479" y="545"/>
      <point x="479" y="520" type="curve" smooth="yes"/>
      <point x="479" y="495"/>
      <point x="458" y="474"/>
      <point x="433" y="474" type="curve" smooth="yes"/>
      <point x="121" y="474" type="line" smooth="yes"/>
      <point x="96" y="474"/>
      <point x="75" y="495"/>
      <point x="75" y="520" type="curve" smooth="yes"/>
      <point x="75" y="545"/>
      <point x="96" y="566"/>
    </contour>
    <contour>
      <point x="121" y="81" type="curve" smooth="yes"/>
      <point x="160" y="64"/>
      <point x="210" y="53"/>
      <point x="268" y="53" type="curve" smooth="yes"/>
      <point x="351" y="53"/>
      <point x="397" y="91"/>
      <point x="397" y="150" type="curve" smooth="yes"/>
      <point x="397" y="206"/>
      <point x="349" y="240"/>
      <point x="279" y="240" type="curve" smooth="yes"/>
      <point x="237" y="240"/>
      <point x="202" y="233"/>
      <point x="182" y="227" type="curve" smooth="yes"/>
      <point x="159" y="218"/>
      <point x="132" y="231"/>
      <point x="124" y="255" type="curve" smooth="yes"/>
      <point x="115" y="278"/>
      <point x="128" y="305"/>
      <point x="152" y="313" type="curve" smooth="yes"/>
      <point x="178" y="323"/>
      <point x="223" y="332"/>
      <point x="279" y="332" type="curve" smooth="yes"/>
      <point x="421" y="332"/>
      <point x="499" y="254"/>
      <point x="499" y="150" type="curve" smooth="yes"/>
      <point x="499" y="45"/>
      <point x="429" y="-39"/>
      <point x="268" y="-39" type="curve" smooth="yes"/>
      <point x="196" y="-39"/>
      <point x="134" y="-24"/>
      <point x="85" y="-3" type="curve" smooth="yes"/>
      <point x="62" y="7"/>
      <point x="51" y="34"/>
      <point x="61" y="57" type="curve" smooth="yes"/>
      <point x="71" y="80"/>
      <point x="98" y="91"/>
    </contour>
    <contour>
      <point x="455" y="478" type="curve" smooth="yes"/>
      <point x="204" y="241" type="line" smooth="yes"/>
      <point x="186" y="224"/>
      <point x="156" y="225"/>
      <point x="139" y="243" type="curve" smooth="yes"/>
      <point x="122" y="261"/>
      <point x="122" y="292"/>
      <point x="140" y="309" type="curve" smooth="yes"/>
      <point x="391" y="546" type="line" smooth="yes"/>
      <point x="409" y="563"/>
      <point x="439" y="562"/>
      <point x="456" y="544" type="curve" smooth="yes"/>
      <point x="473" y="526"/>
      <point x="473" y="495"/>
    </contour>
  </outline>
</glyph>
<glyph name="four" format="1">
  <advance width="558"/>
  <unicode hex="0034"/>
  <outline>
    <contour>
      <point x="436" y="530" type="curve" smooth="yes"/>
      <point x="436" y="11" type="line" smooth="yes"/>
      <point x="436" y="-14"/>
      <point x="410" y="-35"/>
      <point x="385" y="-35" type="curve" smooth="yes"/>
      <point x="360" y="-35"/>
      <point x="334" y="-14"/>
      <point x="334" y="11" type="curve" smooth="yes"/>
      <point x="334" y="530" type="line" smooth="yes"/>
      <point x="334" y="555"/>
      <point x="360" y="576"/>
      <point x="385" y="576" type="curve" smooth="yes"/>
      <point x="410" y="576"/>
      <point x="436" y="555"/>
    </contour>
    <contour>
      <point x="415" y="491" type="curve" smooth="yes"/>
      <point x="101" y="111" type="line" smooth="yes"/>
      <point x="85" y="92"/>
      <point x="54" y="90"/>
      <point x="35" y="106" type="curve" smooth="yes"/>
      <point x="16" y="121"/>
      <point x="12" y="152"/>
      <point x="27" y="171" type="curve" smooth="yes"/>
      <point x="341" y="551" type="line" smooth="yes"/>
      <point x="357" y="570"/>
      <point x="388" y="572"/>
      <point x="407" y="556" type="curve" smooth="yes"/>
      <point x="426" y="541"/>
      <point x="430" y="510"/>
    </contour>
    <contour>
      <point x="75" y="187" type="curve" smooth="yes"/>
      <point x="499" y="187" type="line" smooth="yes"/>
      <point x="524" y="187"/>
      <point x="545" y="166"/>
      <point x="545" y="141" type="curve" smooth="yes"/>
      <point x="545" y="116"/>
      <point x="524" y="95"/>
      <point x="499" y="95" type="curve" smooth="yes"/>
      <point x="75" y="95" type="line" smooth="yes"/>
      <point x="50" y="95"/>
      <point x="29" y="116"/>
      <point x="29" y="141" type="curve" smooth="yes"/>
      <point x="29" y="166"/>
      <point x="50" y="187"/>
    </contour>
  </outline>
</glyph>
<glyph name="five" format="1">
  <advance width="547"/>
  <unicode hex="0035"/>
  <outline>
    <contour>
      <point x="151" y="566" type="curve" smooth="yes"/>
      <point x="421" y="566" type="line" smooth="yes"/>
      <point x="446" y="566"/>
      <point x="467" y="545"/>
      <point x="467" y="520" type="curve" smooth="yes"/>
      <point x="467" y="495"/>
      <point x="446" y="474"/>
      <point x="421" y="474" type="curve" smooth="yes"/>
      <point x="151" y="474" type="line" smooth="yes"/>
      <point x="126" y="474"/>
      <point x="105" y="495"/>
      <point x="105" y="520" type="curve" smooth="yes"/>
      <point x="105" y="545"/>
      <point x="126" y="566"/>
    </contour>
    <contour>
      <point x="120" y="86" type="curve" smooth="yes"/>
      <point x="161" y="67"/>
      <point x="218" y="53"/>
      <point x="279" y="53" type="curve" smooth="yes"/>
      <point x="363" y="53"/>
      <point x="403" y="100"/>
      <point x="403" y="162" type="curve" smooth="yes"/>
      <point x="403" y="219"/>
      <point x="356" y="259"/>
      <point x="284" y="259" type="curve" smooth="yes"/>
      <point x="223" y="259"/>
      <point x="179" y="243"/>
      <point x="150" y="229" type="curve" smooth="yes"/>
      <point x="127" y="219"/>
      <point x="99" y="229"/>
      <point x="88" y="251" type="curve" smooth="yes"/>
      <point x="78" y="274"/>
      <point x="88" y="302"/>
      <point x="110" y="313" type="curve" smooth="yes"/>
      <point x="149" y="331"/>
      <point x="205" y="351"/>
      <point x="284" y="351" type="curve" smooth="yes"/>
      <point x="424" y="351"/>
      <point x="505" y="269"/>
      <point x="505" y="162" type="curve" smooth="yes"/>
      <point x="505" y="50"/>
      <point x="435" y="-39"/>
      <point x="279" y="-39" type="curve" smooth="yes"/>
      <point x="202" y="-39"/>
      <point x="131" y="-21"/>
      <point x="82" y="2" type="curve" smooth="yes"/>
      <point x="59" y="13"/>
      <point x="49" y="41"/>
      <point x="59" y="63" type="curve" smooth="yes"/>
      <point x="70" y="86"/>
      <point x="98" y="96"/>
    </contour>
    <contour>
      <point x="201" y="509" type="curve" smooth="yes"/>
      <point x="181" y="273" type="line" smooth="yes"/>
      <point x="179" y="248"/>
      <point x="151" y="229"/>
      <point x="126" y="231" type="curve" smooth="yes"/>
      <point x="101" y="233"/>
      <point x="77" y="257"/>
      <point x="79" y="281" type="curve" smooth="yes"/>
      <point x="99" y="517" type="line" smooth="yes"/>
      <point x="101" y="542"/>
      <point x="129" y="561"/>
      <point x="154" y="559" type="curve" smooth="yes"/>
      <point x="179" y="557"/>
      <point x="203" y="533"/>
    </contour>
  </outline>
</glyph>
<glyph name="six" format="1">
  <advance width="566"/>
  <unicode hex="0036"/>
  <outline>
    <contour>
      <point x="393" y="471" type="curve" smooth="yes"/>
      <point x="370" y="479"/>
      <point x="350" y="483"/>
      <point x="321" y="483" type="curve" smooth="yes"/>
      <point x="206" y="483"/>
      <point x="151" y="382"/>
      <point x="151" y="248" type="curve" smooth="yes"/>
      <point x="151" y="128"/>
      <point x="204" y="53"/>
      <point x="299" y="53" type="curve" smooth="yes"/>
      <point x="388" y="53"/>
      <point x="424" y="111"/>
      <point x="424" y="166" type="curve" smooth="yes"/>
      <point x="424" y="224"/>
      <point x="383" y="265"/>
      <point x="320" y="265" type="curve" smooth="yes"/>
      <point x="245" y="265"/>
      <point x="189" y="207"/>
      <point x="165" y="121" type="curve" smooth="yes"/>
      <point x="159" y="97"/>
      <point x="129" y="83"/>
      <point x="105" y="90" type="curve" smooth="yes"/>
      <point x="81" y="96"/>
      <point x="62" y="123"/>
      <point x="69" y="147" type="curve" smooth="yes"/>
      <point x="107" y="287"/>
      <point x="207" y="357"/>
      <point x="320" y="357" type="curve" smooth="yes"/>
      <point x="441" y="357"/>
      <point x="526" y="280"/>
      <point x="526" y="166" type="curve" smooth="yes"/>
      <point x="526" y="65"/>
      <point x="460" y="-39"/>
      <point x="299" y="-39" type="curve" smooth="yes"/>
      <point x="160" y="-39"/>
      <point x="49" y="46"/>
      <point x="49" y="248" type="curve"/>
      <point x="49" y="462"/>
      <point x="162" y="575"/>
      <point x="321" y="575" type="curve" smooth="yes"/>
      <point x="362" y="575"/>
      <point x="388" y="569"/>
      <point x="421" y="559" type="curve" smooth="yes"/>
      <point x="445" y="551"/>
      <point x="458" y="525"/>
      <point x="451" y="501" type="curve" smooth="yes"/>
      <point x="443" y="477"/>
      <point x="417" y="464"/>
    </contour>
  </outline>
</glyph>
<glyph name="seven" format="1">
  <advance width="489"/>
  <unicode hex="0037"/>
  <outline>
    <contour>
      <point x="475" y="496" type="curve" smooth="yes"/>
      <point x="435" y="422"/>
      <point x="326" y="275"/>
      <point x="295" y="221" type="curve" smooth="yes"/>
      <point x="271" y="177"/>
      <point x="253" y="122"/>
      <point x="253" y="69" type="curve" smooth="yes"/>
      <point x="253" y="11" type="line" smooth="yes"/>
      <point x="253" y="-14"/>
      <point x="227" y="-35"/>
      <point x="202" y="-35" type="curve" smooth="yes"/>
      <point x="177" y="-35"/>
      <point x="151" y="-14"/>
      <point x="151" y="11" type="curve" smooth="yes"/>
      <point x="151" y="69" type="line" smooth="yes"/>
      <point x="151" y="140"/>
      <point x="179" y="211"/>
      <point x="211" y="269" type="curve" smooth="yes"/>
      <point x="242" y="323"/>
      <point x="349" y="468"/>
      <point x="389" y="542" type="curve" smooth="yes"/>
      <point x="401" y="564"/>
      <point x="432" y="571"/>
      <point x="454" y="559" type="curve" smooth="yes"/>
      <point x="476" y="548"/>
      <point x="487" y="518"/>
    </contour>
    <contour>
      <point x="424" y="474" type="curve" smooth="yes"/>
      <point x="64" y="474" type="line" smooth="yes"/>
      <point x="39" y="474"/>
      <point x="18" y="495"/>
      <point x="18" y="520" type="curve" smooth="yes"/>
      <point x="18" y="545"/>
      <point x="39" y="566"/>
      <point x="64" y="566" type="curve" smooth="yes"/>
      <point x="424" y="566" type="line" smooth="yes"/>
      <point x="449" y="566"/>
      <point x="470" y="545"/>
      <point x="470" y="520" type="curve" smooth="yes"/>
      <point x="470" y="495"/>
      <point x="449" y="474"/>
    </contour>
  </outline>
</glyph>
<glyph name="eight" format="1">
  <advance width="586"/>
  <unicode hex="0038"/>
  <outline>
    <contour>
      <point x="294" y="332" type="curve" smooth="yes"/>
      <point x="449" y="332"/>
      <point x="537" y="252"/>
      <point x="537" y="144" type="curve" smooth="yes"/>
      <point x="537" y="47"/>
      <point x="478" y="-43"/>
      <point x="294" y="-43" type="curve" smooth="yes"/>
      <point x="121" y="-43"/>
      <point x="49" y="47"/>
      <point x="49" y="143" type="curve"/>
      <point x="49" y="252"/>
      <point x="130" y="332"/>
    </contour>
    <contour>
      <point x="294" y="574" type="curve" smooth="yes"/>
      <point x="434" y="574"/>
      <point x="510" y="503"/>
      <point x="510" y="409" type="curve" smooth="yes"/>
      <point x="510" y="320"/>
      <point x="445" y="240"/>
      <point x="294" y="240" type="curve" smooth="yes"/>
      <point x="136" y="240"/>
      <point x="76" y="320"/>
      <point x="76" y="409" type="curve"/>
      <point x="76" y="503"/>
      <point x="147" y="574"/>
    </contour>
    <contour>
      <point x="294" y="240" type="curve" smooth="yes"/>
      <point x="210" y="240"/>
      <point x="151" y="206"/>
      <point x="151" y="143" type="curve" smooth="yes"/>
      <point x="151" y="87"/>
      <point x="207" y="49"/>
      <point x="294" y="49" type="curve" smooth="yes"/>
      <point x="388" y="49"/>
      <point x="435" y="87"/>
      <point x="435" y="144" type="curve" smooth="yes"/>
      <point x="435" y="206"/>
      <point x="373" y="240"/>
    </contour>
    <contour>
      <point x="294" y="482" type="curve" smooth="yes"/>
      <point x="229" y="482"/>
      <point x="178" y="459"/>
      <point x="178" y="409" type="curve" smooth="yes"/>
      <point x="178" y="362"/>
      <point x="222" y="332"/>
      <point x="294" y="332" type="curve" smooth="yes"/>
      <point x="363" y="332"/>
      <point x="408" y="362"/>
      <point x="408" y="409" type="curve" smooth="yes"/>
      <point x="408" y="459"/>
      <point x="356" y="482"/>
    </contour>
  </outline>
</glyph>
<glyph name="nine" format="1">
  <advance width="563"/>
  <unicode hex="0039"/>
  <outline>
    <contour>
      <point x="171" y="66" type="curve" smooth="yes"/>
      <point x="194" y="59"/>
      <point x="215" y="54"/>
      <point x="245" y="54" type="curve" smooth="yes"/>
      <point x="365" y="54"/>
      <point x="412" y="141"/>
      <point x="412" y="268" type="curve" smooth="yes"/>
      <point x="412" y="391"/>
      <point x="362" y="483"/>
      <point x="264" y="483" type="curve" smooth="yes"/>
      <point x="181" y="483"/>
      <point x="142" y="427"/>
      <point x="142" y="372" type="curve" smooth="yes"/>
      <point x="142" y="305"/>
      <point x="181" y="265"/>
      <point x="254" y="265" type="curve" smooth="yes"/>
      <point x="333" y="265"/>
      <point x="378" y="311"/>
      <point x="415" y="371" type="curve" smooth="yes"/>
      <point x="428" y="392"/>
      <point x="459" y="398"/>
      <point x="480" y="385" type="curve" smooth="yes"/>
      <point x="501" y="372"/>
      <point x="510" y="342"/>
      <point x="497" y="321" type="curve" smooth="yes"/>
      <point x="442" y="229"/>
      <point x="369" y="173"/>
      <point x="254" y="173" type="curve" smooth="yes"/>
      <point x="119" y="173"/>
      <point x="40" y="243"/>
      <point x="40" y="372" type="curve"/>
      <point x="40" y="473"/>
      <point x="113" y="575"/>
      <point x="264" y="575" type="curve" smooth="yes"/>
      <point x="404" y="575"/>
      <point x="514" y="477"/>
      <point x="514" y="268" type="curve" smooth="yes"/>
      <point x="514" y="63"/>
      <point x="417" y="-38"/>
      <point x="245" y="-38" type="curve" smooth="yes"/>
      <point x="205" y="-38"/>
      <point x="178" y="-31"/>
      <point x="147" y="-24" type="curve" smooth="yes"/>
      <point x="123" y="-17"/>
      <point x="108" y="8"/>
      <point x="114" y="33" type="curve" smooth="yes"/>
      <point x="121" y="57"/>
      <point x="147" y="72"/>
    </contour>
  </outline>
</glyph>
<glyph name="colon" format="1">
  <advance width="264"/>
  <unicode hex="003A"/>
  <outline>
    <contour>
      <point x="131" y="117" type="curve" smooth="yes"/>
      <point x="168" y="117"/>
      <point x="204" y="90"/>
      <point x="204" y="40" type="curve" smooth="yes"/>
      <point x="204" y="-22"/>
      <point x="170" y="-36"/>
      <point x="132" y="-36" type="curve" smooth="yes"/>
      <point x="102" y="-36"/>
      <point x="59" y="-20"/>
      <point x="59" y="40" type="curve"/>
      <point x="59" y="91"/>
      <point x="94" y="117"/>
    </contour>
    <contour>
      <point x="131" y="400" type="curve" smooth="yes"/>
      <point x="169" y="400"/>
      <point x="204" y="370"/>
      <point x="204" y="324" type="curve" smooth="yes"/>
      <point x="204" y="262"/>
      <point x="169" y="247"/>
      <point x="132" y="247" type="curve" smooth="yes"/>
      <point x="102" y="247"/>
      <point x="59" y="264"/>
      <point x="59" y="324" type="curve"/>
      <point x="59" y="372"/>
      <point x="93" y="400"/>
    </contour>
    <contour>
      <point x="131" y="25" type="curve" smooth="yes"/>
      <point x="138" y="25"/>
      <point x="161" y="19"/>
      <point x="161" y="40" type="curve" smooth="yes"/>
      <point x="161" y="64"/>
      <point x="138" y="56"/>
      <point x="132" y="56" type="curve" smooth="yes"/>
      <point x="124" y="56"/>
      <point x="102" y="66"/>
      <point x="102" y="40" type="curve"/>
      <point x="102" y="20"/>
      <point x="124" y="25"/>
    </contour>
    <contour>
      <point x="131" y="308" type="curve" smooth="yes"/>
      <point x="139" y="308"/>
      <point x="161" y="304"/>
      <point x="161" y="324" type="curve" smooth="yes"/>
      <point x="161" y="348"/>
      <point x="138" y="339"/>
      <point x="132" y="339" type="curve" smooth="yes"/>
      <point x="125" y="339"/>
      <point x="102" y="350"/>
      <point x="102" y="324" type="curve"/>
      <point x="102" y="306"/>
      <point x="123" y="308"/>
    </contour>
  </outline>
</glyph>
<glyph name="semicolon" format="1">
  <advance width="242"/>
  <unicode hex="003B"/>
  <outline>
    <contour>
      <point x="119" y="403" type="curve" smooth="yes"/>
      <point x="154" y="403"/>
      <point x="192" y="373"/>
      <point x="192" y="327" type="curve" smooth="yes"/>
      <point x="192" y="265"/>
      <point x="155" y="250"/>
      <point x="120" y="250" type="curve" smooth="yes"/>
      <point x="88" y="250"/>
      <point x="47" y="267"/>
      <point x="47" y="327" type="curve"/>
      <point x="47" y="375"/>
      <point x="78" y="403"/>
    </contour>
    <contour>
      <point x="164" y="90" type="curve" smooth="yes"/>
      <point x="169" y="73"/>
      <point x="173" y="49"/>
      <point x="173" y="23" type="curve" smooth="yes"/>
      <point x="173" y="-36"/>
      <point x="149" y="-93"/>
      <point x="117" y="-138" type="curve" smooth="yes"/>
      <point x="102" y="-158"/>
      <point x="71" y="-162"/>
      <point x="51" y="-147" type="curve" smooth="yes"/>
      <point x="31" y="-133"/>
      <point x="25" y="-102"/>
      <point x="39" y="-82" type="curve" smooth="yes"/>
      <point x="61" y="-53"/>
      <point x="71" y="-14"/>
      <point x="71" y="23" type="curve"/>
      <point x="71" y="37"/>
      <point x="71" y="51"/>
      <point x="68" y="60" type="curve" smooth="yes"/>
      <point x="61" y="84"/>
      <point x="79" y="112"/>
      <point x="102" y="119" type="curve" smooth="yes"/>
      <point x="126" y="126"/>
      <point x="156" y="113"/>
    </contour>
    <contour>
      <point x="119" y="311" type="curve" smooth="yes"/>
      <point x="128" y="311"/>
      <point x="149" y="307"/>
      <point x="149" y="327" type="curve" smooth="yes"/>
      <point x="149" y="351"/>
      <point x="126" y="342"/>
      <point x="120" y="342" type="curve" smooth="yes"/>
      <point x="113" y="342"/>
      <point x="90" y="353"/>
      <point x="90" y="327" type="curve"/>
      <point x="90" y="309"/>
      <point x="112" y="311"/>
    </contour>
  </outline>
</glyph>
<glyph name="less" format="1">
  <advance width="557"/>
  <unicode hex="003C"/>
  <outline>
    <contour>
      <point x="90" y="309" type="curve" smooth="yes"/>
      <point x="416" y="456" type="line" smooth="yes"/>
      <point x="439" y="466"/>
      <point x="467" y="456"/>
      <point x="477" y="433" type="curve" smooth="yes"/>
      <point x="487" y="410"/>
      <point x="477" y="382"/>
      <point x="454" y="372" type="curve" smooth="yes"/>
      <point x="128" y="225" type="line" smooth="yes"/>
      <point x="105" y="215"/>
      <point x="77" y="225"/>
      <point x="67" y="248" type="curve" smooth="yes"/>
      <point x="57" y="271"/>
      <point x="67" y="299"/>
    </contour>
    <contour>
      <point x="422" y="68" type="curve" smooth="yes"/>
      <point x="84" y="221" type="line" smooth="yes"/>
      <point x="61" y="231"/>
      <point x="51" y="259"/>
      <point x="61" y="282" type="curve" smooth="yes"/>
      <point x="71" y="305"/>
      <point x="99" y="315"/>
      <point x="122" y="305" type="curve" smooth="yes"/>
      <point x="460" y="152" type="line" smooth="yes"/>
      <point x="483" y="142"/>
      <point x="493" y="114"/>
      <point x="483" y="91" type="curve" smooth="yes"/>
      <point x="473" y="68"/>
      <point x="445" y="58"/>
    </contour>
  </outline>
</glyph>
<glyph name="equal" format="1">
  <advance width="557"/>
  <unicode hex="003D"/>
  <outline>
    <contour>
      <point x="101" y="408" type="curve" smooth="yes"/>
      <point x="455" y="408" type="line" smooth="yes"/>
      <point x="480" y="408"/>
      <point x="501" y="387"/>
      <point x="501" y="362" type="curve" smooth="yes"/>
      <point x="501" y="337"/>
      <point x="480" y="316"/>
      <point x="455" y="316" type="curve" smooth="yes"/>
      <point x="101" y="316" type="line" smooth="yes"/>
      <point x="76" y="316"/>
      <point x="55" y="337"/>
      <point x="55" y="362" type="curve" smooth="yes"/>
      <point x="55" y="387"/>
      <point x="76" y="408"/>
    </contour>
    <contour>
      <point x="101" y="200" type="curve" smooth="yes"/>
      <point x="455" y="200" type="line" smooth="yes"/>
      <point x="480" y="200"/>
      <point x="501" y="179"/>
      <point x="501" y="154" type="curve" smooth="yes"/>
      <point x="501" y="129"/>
      <point x="480" y="108"/>
      <point x="455" y="108" type="curve" smooth="yes"/>
      <point x="101" y="108" type="line" smooth="yes"/>
      <point x="76" y="108"/>
      <point x="55" y="129"/>
      <point x="55" y="154" type="curve" smooth="yes"/>
      <point x="55" y="179"/>
      <point x="76" y="200"/>
    </contour>
  </outline>
</glyph>
<glyph name="greater" format="1">
  <advance width="541"/>
  <unicode hex="003E"/>
  <outline>
    <contour>
      <point x="425" y="225" type="curve" smooth="yes"/>
      <point x="100" y="372" type="line" smooth="yes"/>
      <point x="77" y="382"/>
      <point x="67" y="410"/>
      <point x="77" y="433" type="curve" smooth="yes"/>
      <point x="87" y="456"/>
      <point x="115" y="466"/>
      <point x="138" y="456" type="curve" smooth="yes"/>
      <point x="463" y="309" type="line" smooth="yes"/>
      <point x="486" y="299"/>
      <point x="496" y="271"/>
      <point x="486" y="248" type="curve" smooth="yes"/>
      <point x="476" y="225"/>
      <point x="448" y="215"/>
    </contour>
    <contour>
      <point x="93" y="152" type="curve" smooth="yes"/>
      <point x="431" y="305" type="line" smooth="yes"/>
      <point x="454" y="315"/>
      <point x="482" y="305"/>
      <point x="492" y="282" type="curve" smooth="yes"/>
      <point x="502" y="259"/>
      <point x="492" y="231"/>
      <point x="469" y="221" type="curve" smooth="yes"/>
      <point x="131" y="68" type="line" smooth="yes"/>
      <point x="108" y="58"/>
      <point x="80" y="68"/>
      <point x="70" y="91" type="curve" smooth="yes"/>
      <point x="60" y="114"/>
      <point x="70" y="142"/>
    </contour>
  </outline>
</glyph>
<glyph name="question" format="1">
  <advance width="390"/>
  <unicode hex="003F"/>
  <outline>
    <contour>
      <point x="171" y="112" type="curve" smooth="yes"/>
      <point x="209" y="112"/>
      <point x="244" y="86"/>
      <point x="244" y="36" type="curve" smooth="yes"/>
      <point x="244" y="-26"/>
      <point x="210" y="-40"/>
      <point x="172" y="-40" type="curve" smooth="yes"/>
      <point x="142" y="-40"/>
      <point x="99" y="-24"/>
      <point x="99" y="36" type="curve"/>
      <point x="99" y="87"/>
      <point x="130" y="112"/>
    </contour>
    <contour>
      <point x="48" y="532" type="curve" smooth="yes"/>
      <point x="91" y="559"/>
      <point x="134" y="575"/>
      <point x="204" y="575" type="curve" smooth="yes"/>
      <point x="324" y="575"/>
      <point x="384" y="502"/>
      <point x="384" y="422" type="curve" smooth="yes"/>
      <point x="384" y="352"/>
      <point x="332" y="300"/>
      <point x="263" y="265" type="curve" smooth="yes"/>
      <point x="227" y="246"/>
      <point x="219" y="232"/>
      <point x="217" y="199" type="curve" smooth="yes"/>
      <point x="215" y="174"/>
      <point x="188" y="155"/>
      <point x="163" y="156" type="curve" smooth="yes"/>
      <point x="139" y="157"/>
      <point x="114" y="180"/>
      <point x="115" y="205" type="curve" smooth="yes"/>
      <point x="119" y="278"/>
      <point x="143" y="306"/>
      <point x="221" y="347" type="curve" smooth="yes"/>
      <point x="254" y="364"/>
      <point x="282" y="388"/>
      <point x="282" y="422" type="curve" smooth="yes"/>
      <point x="282" y="456"/>
      <point x="252" y="483"/>
      <point x="204" y="483" type="curve" smooth="yes"/>
      <point x="156" y="483"/>
      <point x="127" y="473"/>
      <point x="96" y="454" type="curve" smooth="yes"/>
      <point x="75" y="441"/>
      <point x="46" y="448"/>
      <point x="33" y="469" type="curve" smooth="yes"/>
      <point x="20" y="490"/>
      <point x="27" y="519"/>
    </contour>
    <contour>
      <point x="171" y="20" type="curve" smooth="yes"/>
      <point x="180" y="20"/>
      <point x="201" y="15"/>
      <point x="201" y="36" type="curve" smooth="yes"/>
      <point x="201" y="60"/>
      <point x="178" y="52"/>
      <point x="172" y="52" type="curve" smooth="yes"/>
      <point x="164" y="52"/>
      <point x="142" y="62"/>
      <point x="142" y="36" type="curve" smooth="yes"/>
      <point x="142" y="16"/>
      <point x="163" y="20"/>
    </contour>
  </outline>
</glyph>
<glyph name="at" format="1">
  <advance width="698"/>
  <unicode hex="0040"/>
  <outline>
    <contour>
      <point x="494" y="386" type="curve" smooth="yes"/>
      <point x="494" y="249" type="line" smooth="yes"/>
      <point x="494" y="223"/>
      <point x="503" y="193"/>
      <point x="529" y="193" type="curve" smooth="yes"/>
      <point x="563" y="193"/>
      <point x="570" y="239"/>
      <point x="570" y="275" type="curve" smooth="yes"/>
      <point x="570" y="383"/>
      <point x="492" y="485"/>
      <point x="353" y="485" type="curve" smooth="yes"/>
      <point x="222" y="485"/>
      <point x="131" y="381"/>
      <point x="131" y="261" type="curve" smooth="yes"/>
      <point x="131" y="141"/>
      <point x="221" y="46"/>
      <point x="356" y="46" type="curve" smooth="yes"/>
      <point x="414" y="46"/>
      <point x="462" y="59"/>
      <point x="498" y="75" type="curve" smooth="yes"/>
      <point x="521" y="85"/>
      <point x="549" y="74"/>
      <point x="559" y="51" type="curve" smooth="yes"/>
      <point x="569" y="29"/>
      <point x="558" y="1"/>
      <point x="536" y="-9" type="curve" smooth="yes"/>
      <point x="490" y="-29"/>
      <point x="428" y="-46"/>
      <point x="356" y="-46" type="curve" smooth="yes"/>
      <point x="163" y="-46"/>
      <point x="29" y="87"/>
      <point x="29" y="261" type="curve" smooth="yes"/>
      <point x="29" y="435"/>
      <point x="168" y="577"/>
      <point x="353" y="577" type="curve" smooth="yes"/>
      <point x="552" y="577"/>
      <point x="672" y="433"/>
      <point x="672" y="275" type="curve" smooth="yes"/>
      <point x="672" y="149"/>
      <point x="601" y="101"/>
      <point x="529" y="101" type="curve" smooth="yes"/>
      <point x="461" y="101"/>
      <point x="392" y="147"/>
      <point x="392" y="249" type="curve" smooth="yes"/>
      <point x="392" y="386" type="line" smooth="yes"/>
      <point x="392" y="411"/>
      <point x="418" y="432"/>
      <point x="443" y="432" type="curve" smooth="yes"/>
      <point x="468" y="432"/>
      <point x="494" y="411"/>
    </contour>
    <contour>
      <point x="417" y="319" type="curve" smooth="yes"/>
      <point x="398" y="332"/>
      <point x="376" y="340"/>
      <point x="348" y="340" type="curve" smooth="yes"/>
      <point x="307" y="340"/>
      <point x="282" y="302"/>
      <point x="282" y="257" type="curve" smooth="yes"/>
      <point x="282" y="224"/>
      <point x="300" y="194"/>
      <point x="329" y="194" type="curve" smooth="yes"/>
      <point x="357" y="194"/>
      <point x="382" y="216"/>
      <point x="400" y="247" type="curve" smooth="yes"/>
      <point x="413" y="269"/>
      <point x="444" y="275"/>
      <point x="465" y="263" type="curve" smooth="yes"/>
      <point x="487" y="250"/>
      <point x="496" y="220"/>
      <point x="484" y="199" type="curve" smooth="yes"/>
      <point x="444" y="130"/>
      <point x="385" y="102"/>
      <point x="329" y="102" type="curve" smooth="yes"/>
      <point x="256" y="102"/>
      <point x="180" y="152"/>
      <point x="180" y="257" type="curve" smooth="yes"/>
      <point x="180" y="372"/>
      <point x="263" y="432"/>
      <point x="348" y="432" type="curve" smooth="yes"/>
      <point x="396" y="432"/>
      <point x="434" y="418"/>
      <point x="469" y="395" type="curve" smooth="yes"/>
      <point x="489" y="382"/>
      <point x="495" y="352"/>
      <point x="481" y="331" type="curve" smooth="yes"/>
      <point x="467" y="311"/>
      <point x="438" y="305"/>
    </contour>
  </outline>
</glyph>
<glyph name="A" format="1">
  <advance width="609.0"/>
  <unicode hex="0041"/>
  <outline>
    <contour>
      <point x="340" y="509" type="curve" smooth="yes"/>
      <point x="269" y="350"/>
      <point x="171" y="125"/>
      <point x="124" y="-6" type="curve" smooth="yes"/>
      <point x="115" y="-29"/>
      <point x="85" y="-41"/>
      <point x="62" y="-32" type="curve" smooth="yes"/>
      <point x="38" y="-24"/>
      <point x="22" y="4"/>
      <point x="30" y="28" type="curve" smooth="yes"/>
      <point x="77" y="161"/>
      <point x="179" y="388"/>
      <point x="250" y="549" type="curve" smooth="yes"/>
      <point x="260" y="572"/>
      <point x="291" y="581"/>
      <point x="314" y="571" type="curve" smooth="yes"/>
      <point x="336" y="561"/>
      <point x="350" y="532"/>
    </contour>
    <contour>
      <point x="345" y="550" type="curve" smooth="yes"/>
      <point x="422" y="388"/>
      <point x="526" y="159"/>
      <point x="576" y="29" type="curve" smooth="yes"/>
      <point x="585" y="6"/>
      <point x="570" y="-23"/>
      <point x="547" y="-32" type="curve" smooth="yes"/>
      <point x="523" y="-41"/>
      <point x="493" y="-30"/>
      <point x="484" y="-7" type="curve" smooth="yes"/>
      <point x="434" y="121"/>
      <point x="332" y="348"/>
      <point x="257" y="508" type="curve" smooth="yes"/>
      <point x="246" y="531"/>
      <point x="259" y="560"/>
      <point x="281" y="571" type="curve" smooth="yes"/>
      <point x="304" y="581"/>
      <point x="335" y="572"/>
    </contour>
    <contour>
      <point x="149" y="209" type="curve" smooth="yes"/>
      <point x="455" y="209" type="line" smooth="yes"/>
      <point x="480" y="209"/>
      <point x="501" y="188"/>
      <point x="501" y="163" type="curve" smooth="yes"/>
      <point x="501" y="138"/>
      <point x="480" y="117"/>
      <point x="455" y="117" type="curve" smooth="yes"/>
      <point x="149" y="117" type="line" smooth="yes"/>
      <point x="124" y="117"/>
      <point x="103" y="138"/>
      <point x="103" y="163" type="curve" smooth="yes"/>
      <point x="103" y="188"/>
      <point x="124" y="209"/>
    </contour>
  </outline>
</glyph>
<glyph name="B" format="1">
  <advance width="554"/>
  <unicode hex="0042"/>
  <outline>
    <contour>
      <point x="139" y="330" type="curve" smooth="yes"/>
      <point x="295" y="330" type="line" smooth="yes"/>
      <point x="364" y="330"/>
      <point x="425" y="305"/>
      <point x="461" y="269" type="curve" smooth="yes"/>
      <point x="498" y="232"/>
      <point x="518" y="193"/>
      <point x="518" y="144" type="curve" smooth="yes"/>
      <point x="518" y="100"/>
      <point x="498" y="57"/>
      <point x="465" y="24" type="curve" smooth="yes"/>
      <point x="430" y="-10"/>
      <point x="379" y="-35"/>
      <point x="292" y="-35" type="curve" smooth="yes"/>
      <point x="129" y="-35" type="line" smooth="yes"/>
      <point x="101" y="-35"/>
      <point x="78" y="-14"/>
      <point x="78" y="11" type="curve" smooth="yes"/>
      <point x="78" y="520" type="line" smooth="yes"/>
      <point x="78" y="545"/>
      <point x="101" y="566"/>
      <point x="129" y="566" type="curve" smooth="yes"/>
      <point x="275" y="566" type="line" smooth="yes"/>
      <point x="344" y="566"/>
      <point x="390" y="543"/>
      <point x="418" y="514" type="curve" smooth="yes"/>
      <point x="445" y="487"/>
      <point x="468" y="444"/>
      <point x="468" y="404" type="curve" smooth="yes"/>
      <point x="468" y="359"/>
      <point x="445" y="319"/>
      <point x="418" y="292" type="curve" smooth="yes"/>
      <point x="393" y="267"/>
      <point x="346" y="242"/>
      <point x="290" y="238" type="curve" smooth="yes"/>
      <point x="265" y="236"/>
      <point x="243" y="256"/>
      <point x="241" y="281" type="curve" smooth="yes"/>
      <point x="239" y="306"/>
      <point x="259" y="328"/>
      <point x="284" y="330" type="curve" smooth="yes"/>
      <point x="314" y="332"/>
      <point x="339" y="345"/>
      <point x="352" y="358" type="curve" smooth="yes"/>
      <point x="363" y="369"/>
      <point x="366" y="387"/>
      <point x="366" y="404" type="curve" smooth="yes"/>
      <point x="366" y="418"/>
      <point x="363" y="437"/>
      <point x="352" y="448" type="curve" smooth="yes"/>
      <point x="336" y="463"/>
      <point x="312" y="474"/>
      <point x="275" y="474" type="curve" smooth="yes"/>
      <point x="129" y="474" type="line"/>
      <point x="180" y="520" type="line"/>
      <point x="180" y="11" type="line"/>
      <point x="129" y="57" type="line"/>
      <point x="292" y="57" type="line" smooth="yes"/>
      <point x="345" y="57"/>
      <point x="378" y="70"/>
      <point x="399" y="90" type="curve" smooth="yes"/>
      <point x="414" y="105"/>
      <point x="416" y="126"/>
      <point x="416" y="144" type="curve" smooth="yes"/>
      <point x="416" y="165"/>
      <point x="412" y="186"/>
      <point x="395" y="203" type="curve" smooth="yes"/>
      <point x="373" y="225"/>
      <point x="336" y="238"/>
      <point x="295" y="238" type="curve" smooth="yes"/>
      <point x="139" y="238" type="line" smooth="yes"/>
      <point x="114" y="238"/>
      <point x="93" y="259"/>
      <point x="93" y="284" type="curve" smooth="yes"/>
      <point x="93" y="309"/>
      <point x="114" y="330"/>
    </contour>
  </outline>
</glyph>
<glyph name="C" format="1">
  <advance width="594"/>
  <unicode hex="0043"/>
  <outline>
    <contour>
      <point x="472" y="458" type="curve" smooth="yes"/>
      <point x="442" y="475"/>
      <point x="397" y="484"/>
      <point x="351" y="484" type="curve" smooth="yes"/>
      <point x="235" y="484"/>
      <point x="141" y="391"/>
      <point x="141" y="262" type="curve" smooth="yes"/>
      <point x="141" y="143"/>
      <point x="218" y="47"/>
      <point x="357" y="47" type="curve" smooth="yes"/>
      <point x="404" y="47"/>
      <point x="445" y="57"/>
      <point x="478" y="74" type="curve" smooth="yes"/>
      <point x="500" y="85"/>
      <point x="529" y="76"/>
      <point x="540" y="54" type="curve" smooth="yes"/>
      <point x="551" y="32"/>
      <point x="542" y="3"/>
      <point x="520" y="-8" type="curve" smooth="yes"/>
      <point x="475" y="-31"/>
      <point x="420" y="-45"/>
      <point x="357" y="-45" type="curve" smooth="yes"/>
      <point x="158" y="-45"/>
      <point x="39" y="87"/>
      <point x="39" y="262" type="curve"/>
      <point x="39" y="453"/>
      <point x="187" y="576"/>
      <point x="351" y="576" type="curve" smooth="yes"/>
      <point x="415" y="576"/>
      <point x="476" y="561"/>
      <point x="516" y="540" type="curve" smooth="yes"/>
      <point x="538" y="528"/>
      <point x="546" y="499"/>
      <point x="534" y="477" type="curve" smooth="yes"/>
      <point x="523" y="455"/>
      <point x="494" y="447"/>
    </contour>
  </outline>
</glyph>
<glyph name="D" format="1">
  <advance width="643"/>
  <unicode hex="0044"/>
  <outline>
    <contour>
      <point x="314" y="-35" type="curve" smooth="yes"/>
      <point x="129" y="-35" type="line" smooth="yes"/>
      <point x="101" y="-35"/>
      <point x="78" y="-14"/>
      <point x="78" y="11" type="curve"/>
      <point x="78" y="520" type="line"/>
      <point x="78" y="545"/>
      <point x="101" y="566"/>
      <point x="129" y="566" type="curve" smooth="yes"/>
      <point x="314" y="566" type="line" smooth="yes"/>
      <point x="463" y="566"/>
      <point x="603" y="447"/>
      <point x="603" y="266" type="curve" smooth="yes"/>
      <point x="603" y="94"/>
      <point x="485" y="-35"/>
    </contour>
    <contour>
      <point x="314" y="57" type="line" smooth="yes"/>
      <point x="433" y="57"/>
      <point x="501" y="154"/>
      <point x="501" y="266" type="curve" smooth="yes"/>
      <point x="501" y="383"/>
      <point x="417" y="474"/>
      <point x="314" y="474" type="curve" smooth="yes"/>
      <point x="129" y="474" type="line"/>
      <point x="180" y="520" type="line"/>
      <point x="180" y="11" type="line"/>
      <point x="129" y="57" type="line"/>
    </contour>
  </outline>
</glyph>
<glyph name="E" format="1">
  <advance width="511"/>
  <unicode hex="0045"/>
  <outline>
    <contour>
      <point x="180" y="520" type="curve" smooth="yes"/>
      <point x="180" y="11" type="line" smooth="yes"/>
      <point x="180" y="-14"/>
      <point x="154" y="-35"/>
      <point x="129" y="-35" type="curve" smooth="yes"/>
      <point x="104" y="-35"/>
      <point x="78" y="-14"/>
      <point x="78" y="11" type="curve" smooth="yes"/>
      <point x="78" y="520" type="line" smooth="yes"/>
      <point x="78" y="545"/>
      <point x="104" y="566"/>
      <point x="129" y="566" type="curve" smooth="yes"/>
      <point x="154" y="566"/>
      <point x="180" y="545"/>
    </contour>
    <contour>
      <point x="138" y="57" type="curve" smooth="yes"/>
      <point x="422" y="57" type="line" smooth="yes"/>
      <point x="447" y="57"/>
      <point x="468" y="36"/>
      <point x="468" y="11" type="curve" smooth="yes"/>
      <point x="468" y="-14"/>
      <point x="447" y="-35"/>
      <point x="422" y="-35" type="curve" smooth="yes"/>
      <point x="138" y="-35" type="line" smooth="yes"/>
      <point x="113" y="-35"/>
      <point x="92" y="-14"/>
      <point x="92" y="11" type="curve" smooth="yes"/>
      <point x="92" y="36"/>
      <point x="113" y="57"/>
    </contour>
    <contour>
      <point x="138" y="566" type="curve" smooth="yes"/>
      <point x="420" y="566" type="line" smooth="yes"/>
      <point x="445" y="566"/>
      <point x="466" y="545"/>
      <point x="466" y="520" type="curve" smooth="yes"/>
      <point x="466" y="495"/>
      <point x="445" y="474"/>
      <point x="420" y="474" type="curve" smooth="yes"/>
      <point x="138" y="474" type="line" smooth="yes"/>
      <point x="113" y="474"/>
      <point x="92" y="495"/>
      <point x="92" y="520" type="curve" smooth="yes"/>
      <point x="92" y="545"/>
      <point x="113" y="566"/>
    </contour>
    <contour>
      <point x="138" y="331" type="curve" smooth="yes"/>
      <point x="375" y="331" type="line" smooth="yes"/>
      <point x="400" y="331"/>
      <point x="421" y="310"/>
      <point x="421" y="285" type="curve" smooth="yes"/>
      <point x="421" y="260"/>
      <point x="400" y="239"/>
      <point x="375" y="239" type="curve" smooth="yes"/>
      <point x="138" y="239" type="line" smooth="yes"/>
      <point x="113" y="239"/>
      <point x="92" y="260"/>
      <point x="92" y="285" type="curve" smooth="yes"/>
      <point x="92" y="310"/>
      <point x="113" y="331"/>
    </contour>
  </outline>
</glyph>
<glyph name="F" format="1">
  <advance width="499"/>
  <unicode hex="0046"/>
  <outline>
    <contour>
      <point x="180" y="520" type="curve" smooth="yes"/>
      <point x="180" y="11" type="line" smooth="yes"/>
      <point x="180" y="-14"/>
      <point x="154" y="-35"/>
      <point x="129" y="-35" type="curve" smooth="yes"/>
      <point x="104" y="-35"/>
      <point x="78" y="-14"/>
      <point x="78" y="11" type="curve" smooth="yes"/>
      <point x="78" y="520" type="line" smooth="yes"/>
      <point x="78" y="545"/>
      <point x="104" y="566"/>
      <point x="129" y="566" type="curve" smooth="yes"/>
      <point x="154" y="566"/>
      <point x="180" y="545"/>
    </contour>
    <contour>
      <point x="138" y="566" type="curve" smooth="yes"/>
      <point x="428" y="566" type="line" smooth="yes"/>
      <point x="453" y="566"/>
      <point x="474" y="545"/>
      <point x="474" y="520" type="curve" smooth="yes"/>
      <point x="474" y="495"/>
      <point x="453" y="474"/>
      <point x="428" y="474" type="curve" smooth="yes"/>
      <point x="138" y="474" type="line" smooth="yes"/>
      <point x="113" y="474"/>
      <point x="92" y="495"/>
      <point x="92" y="520" type="curve" smooth="yes"/>
      <point x="92" y="545"/>
      <point x="113" y="566"/>
    </contour>
    <contour>
      <point x="138" y="311" type="curve" smooth="yes"/>
      <point x="375" y="311" type="line" smooth="yes"/>
      <point x="400" y="311"/>
      <point x="421" y="290"/>
      <point x="421" y="265" type="curve" smooth="yes"/>
      <point x="421" y="240"/>
      <point x="400" y="219"/>
      <point x="375" y="219" type="curve" smooth="yes"/>
      <point x="138" y="219" type="line" smooth="yes"/>
      <point x="113" y="219"/>
      <point x="92" y="240"/>
      <point x="92" y="265" type="curve" smooth="yes"/>
      <point x="92" y="290"/>
      <point x="113" y="311"/>
    </contour>
  </outline>
</glyph>
<glyph name="G" format="1">
  <advance width="649"/>
  <unicode hex="0047"/>
  <outline>
    <contour>
      <point x="488" y="458" type="curve" smooth="yes"/>
      <point x="449" y="473"/>
      <point x="405" y="484"/>
      <point x="352" y="484" type="curve" smooth="yes"/>
      <point x="227" y="484"/>
      <point x="141" y="391"/>
      <point x="141" y="262" type="curve" smooth="yes"/>
      <point x="141" y="146"/>
      <point x="214" y="47"/>
      <point x="349" y="47" type="curve" smooth="yes"/>
      <point x="418" y="47"/>
      <point x="470" y="65"/>
      <point x="512" y="92" type="curve" smooth="yes"/>
      <point x="533" y="105"/>
      <point x="563" y="99"/>
      <point x="576" y="78" type="curve" smooth="yes"/>
      <point x="589" y="57"/>
      <point x="583" y="27"/>
      <point x="562" y="14" type="curve" smooth="yes"/>
      <point x="506" y="-21"/>
      <point x="440" y="-45"/>
      <point x="349" y="-45" type="curve" smooth="yes"/>
      <point x="156" y="-45"/>
      <point x="39" y="88"/>
      <point x="39" y="262" type="curve"/>
      <point x="39" y="453"/>
      <point x="175" y="576"/>
      <point x="352" y="576" type="curve" smooth="yes"/>
      <point x="417" y="576"/>
      <point x="473" y="563"/>
      <point x="522" y="544" type="curve" smooth="yes"/>
      <point x="545" y="535"/>
      <point x="557" y="508"/>
      <point x="548" y="484" type="curve" smooth="yes"/>
      <point x="539" y="461"/>
      <point x="512" y="449"/>
    </contour>
    <contour>
      <point x="487" y="63" type="curve" smooth="yes"/>
      <point x="487" y="246" type="line" smooth="yes"/>
      <point x="487" y="271"/>
      <point x="513" y="292"/>
      <point x="538" y="292" type="curve" smooth="yes"/>
      <point x="563" y="292"/>
      <point x="589" y="271"/>
      <point x="589" y="246" type="curve" smooth="yes"/>
      <point x="589" y="63" type="line" smooth="yes"/>
      <point x="589" y="38"/>
      <point x="563" y="17"/>
      <point x="538" y="17" type="curve" smooth="yes"/>
      <point x="513" y="17"/>
      <point x="487" y="38"/>
    </contour>
    <contour>
      <point x="526" y="200" type="curve" smooth="yes"/>
      <point x="365" y="200" type="line" smooth="yes"/>
      <point x="340" y="200"/>
      <point x="319" y="221"/>
      <point x="319" y="246" type="curve" smooth="yes"/>
      <point x="319" y="271"/>
      <point x="340" y="292"/>
      <point x="365" y="292" type="curve" smooth="yes"/>
      <point x="526" y="292" type="line" smooth="yes"/>
      <point x="551" y="292"/>
      <point x="572" y="271"/>
      <point x="572" y="246" type="curve" smooth="yes"/>
      <point x="572" y="221"/>
      <point x="551" y="200"/>
    </contour>
  </outline>
</glyph>
<glyph name="H" format="1">
  <advance width="663"/>
  <unicode hex="0048"/>
  <outline>
    <contour>
      <point x="180" y="520" type="curve" smooth="yes"/>
      <point x="180" y="11" type="line" smooth="yes"/>
      <point x="180" y="-14"/>
      <point x="154" y="-35"/>
      <point x="129" y="-35" type="curve" smooth="yes"/>
      <point x="104" y="-35"/>
      <point x="78" y="-14"/>
      <point x="78" y="11" type="curve" smooth="yes"/>
      <point x="78" y="520" type="line" smooth="yes"/>
      <point x="78" y="545"/>
      <point x="104" y="566"/>
      <point x="129" y="566" type="curve" smooth="yes"/>
      <point x="154" y="566"/>
      <point x="180" y="545"/>
    </contour>
    <contour>
      <point x="584" y="520" type="curve" smooth="yes"/>
      <point x="584" y="11" type="line" smooth="yes"/>
      <point x="584" y="-14"/>
      <point x="558" y="-35"/>
      <point x="533" y="-35" type="curve" smooth="yes"/>
      <point x="508" y="-35"/>
      <point x="482" y="-14"/>
      <point x="482" y="11" type="curve" smooth="yes"/>
      <point x="482" y="520" type="line" smooth="yes"/>
      <point x="482" y="545"/>
      <point x="508" y="566"/>
      <point x="533" y="566" type="curve" smooth="yes"/>
      <point x="558" y="566"/>
      <point x="584" y="545"/>
    </contour>
    <contour>
      <point x="133" y="330" type="curve" smooth="yes"/>
      <point x="532" y="330" type="line" smooth="yes"/>
      <point x="557" y="330"/>
      <point x="578" y="309"/>
      <point x="578" y="284" type="curve" smooth="yes"/>
      <point x="578" y="259"/>
      <point x="557" y="238"/>
      <point x="532" y="238" type="curve" smooth="yes"/>
      <point x="133" y="238" type="line" smooth="yes"/>
      <point x="108" y="238"/>
      <point x="87" y="259"/>
      <point x="87" y="284" type="curve" smooth="yes"/>
      <point x="87" y="309"/>
      <point x="108" y="330"/>
    </contour>
  </outline>
</glyph>
<glyph name="I" format="1">
  <advance width="269"/>
  <unicode hex="0049"/>
  <outline>
    <contour>
      <point x="185" y="520" type="curve" smooth="yes"/>
      <point x="185" y="11" type="line" smooth="yes"/>
      <point x="185" y="-14"/>
      <point x="159" y="-35"/>
      <point x="134" y="-35" type="curve" smooth="yes"/>
      <point x="109" y="-35"/>
      <point x="83" y="-14"/>
      <point x="83" y="11" type="curve" smooth="yes"/>
      <point x="83" y="520" type="line" smooth="yes"/>
      <point x="83" y="545"/>
      <point x="109" y="566"/>
      <point x="134" y="566" type="curve" smooth="yes"/>
      <point x="159" y="566"/>
      <point x="185" y="545"/>
    </contour>
  </outline>
</glyph>
<glyph name="J" format="1">
  <advance width="408"/>
  <unicode hex="004A"/>
  <outline>
    <contour>
      <point x="94" y="64" type="curve" smooth="yes"/>
      <point x="118" y="53"/>
      <point x="144" y="48"/>
      <point x="168" y="48" type="curve" smooth="yes"/>
      <point x="226" y="48"/>
      <point x="241" y="98"/>
      <point x="241" y="160" type="curve" smooth="yes"/>
      <point x="241" y="520" type="line" smooth="yes"/>
      <point x="241" y="545"/>
      <point x="267" y="566"/>
      <point x="292" y="566" type="curve" smooth="yes"/>
      <point x="317" y="566"/>
      <point x="343" y="545"/>
      <point x="343" y="520" type="curve" smooth="yes"/>
      <point x="343" y="160" type="line" smooth="yes"/>
      <point x="343" y="12"/>
      <point x="274" y="-44"/>
      <point x="168" y="-44" type="curve" smooth="yes"/>
      <point x="130" y="-44"/>
      <point x="92" y="-37"/>
      <point x="56" y="-20" type="curve" smooth="yes"/>
      <point x="33" y="-9"/>
      <point x="23" y="19"/>
      <point x="33" y="41" type="curve" smooth="yes"/>
      <point x="44" y="64"/>
      <point x="72" y="74"/>
    </contour>
  </outline>
</glyph>
<glyph name="K" format="1">
  <advance width="585"/>
  <unicode hex="004B"/>
  <outline>
    <contour>
      <point x="180" y="520" type="curve" smooth="yes"/>
      <point x="180" y="11" type="line" smooth="yes"/>
      <point x="180" y="-14"/>
      <point x="154" y="-35"/>
      <point x="129" y="-35" type="curve" smooth="yes"/>
      <point x="104" y="-35"/>
      <point x="78" y="-14"/>
      <point x="78" y="11" type="curve" smooth="yes"/>
      <point x="78" y="520" type="line" smooth="yes"/>
      <point x="78" y="545"/>
      <point x="104" y="566"/>
      <point x="129" y="566" type="curve" smooth="yes"/>
      <point x="154" y="566"/>
      <point x="180" y="545"/>
    </contour>
    <contour>
      <point x="296" y="333" type="curve" smooth="yes"/>
      <point x="355" y="260"/>
      <point x="481" y="108"/>
      <point x="538" y="42" type="curve" smooth="yes"/>
      <point x="555" y="23"/>
      <point x="552" y="-7"/>
      <point x="533" y="-24" type="curve" smooth="yes"/>
      <point x="515" y="-40"/>
      <point x="484" y="-39"/>
      <point x="468" y="-20" type="curve" smooth="yes"/>
      <point x="409" y="46"/>
      <point x="283" y="200"/>
      <point x="222" y="273" type="curve" smooth="yes"/>
      <point x="207" y="292"/>
      <point x="211" y="323"/>
      <point x="230" y="339" type="curve" smooth="yes"/>
      <point x="249" y="354"/>
      <point x="280" y="352"/>
    </contour>
    <contour>
      <point x="98" y="222" type="curve" smooth="yes"/>
      <point x="148" y="267"/>
      <point x="344" y="443"/>
      <point x="448" y="552" type="curve" smooth="yes"/>
      <point x="465" y="570"/>
      <point x="496" y="570"/>
      <point x="514" y="553" type="curve" smooth="yes"/>
      <point x="532" y="536"/>
      <point x="533" y="506"/>
      <point x="516" y="488" type="curve" smooth="yes"/>
      <point x="410" y="377"/>
      <point x="212" y="199"/>
      <point x="160" y="152" type="curve" smooth="yes"/>
      <point x="142" y="136"/>
      <point x="111" y="138"/>
      <point x="95" y="156" type="curve" smooth="yes"/>
      <point x="78" y="175"/>
      <point x="79" y="205"/>
    </contour>
  </outline>
</glyph>
<glyph name="L" format="1">
  <advance width="482"/>
  <unicode hex="004C"/>
  <outline>
    <contour>
      <point x="180" y="520" type="curve" smooth="yes"/>
      <point x="180" y="11" type="line" smooth="yes"/>
      <point x="180" y="-14"/>
      <point x="154" y="-35"/>
      <point x="129" y="-35" type="curve" smooth="yes"/>
      <point x="104" y="-35"/>
      <point x="78" y="-14"/>
      <point x="78" y="11" type="curve" smooth="yes"/>
      <point x="78" y="520" type="line" smooth="yes"/>
      <point x="78" y="545"/>
      <point x="104" y="566"/>
      <point x="129" y="566" type="curve" smooth="yes"/>
      <point x="154" y="566"/>
      <point x="180" y="545"/>
    </contour>
    <contour>
      <point x="138" y="57" type="curve" smooth="yes"/>
      <point x="414" y="57" type="line" smooth="yes"/>
      <point x="439" y="57"/>
      <point x="460" y="36"/>
      <point x="460" y="11" type="curve" smooth="yes"/>
      <point x="460" y="-14"/>
      <point x="439" y="-35"/>
      <point x="414" y="-35" type="curve" smooth="yes"/>
      <point x="138" y="-35" type="line" smooth="yes"/>
      <point x="113" y="-35"/>
      <point x="92" y="-14"/>
      <point x="92" y="11" type="curve" smooth="yes"/>
      <point x="92" y="36"/>
      <point x="113" y="57"/>
    </contour>
  </outline>
</glyph>
<glyph name="M" format="1">
  <advance width="861.0"/>
  <unicode hex="004D"/>
  <outline>
    <contour>
      <point x="232" y="520" type="curve" smooth="yes"/>
      <point x="206" y="371"/>
      <point x="173" y="124"/>
      <point x="161" y="4" type="curve" smooth="yes"/>
      <point x="158" y="-21"/>
      <point x="130" y="-39"/>
      <point x="105" y="-37" type="curve" smooth="yes"/>
      <point x="80" y="-34"/>
      <point x="57" y="-10"/>
      <point x="59" y="14" type="curve" smooth="yes"/>
      <point x="73" y="136"/>
      <point x="106" y="387"/>
      <point x="132" y="538" type="curve" smooth="yes"/>
      <point x="136" y="562"/>
      <point x="165" y="579"/>
      <point x="190" y="574" type="curve" smooth="yes"/>
      <point x="214" y="570"/>
      <point x="236" y="545"/>
    </contour>
    <contour>
      <point x="714" y="540" type="curve" smooth="yes"/>
      <point x="746" y="376"/>
      <point x="781" y="157"/>
      <point x="800" y="16" type="curve" smooth="yes"/>
      <point x="804" y="-9"/>
      <point x="781" y="-33"/>
      <point x="756" y="-37" type="curve" smooth="yes"/>
      <point x="732" y="-40"/>
      <point x="703" y="-22"/>
      <point x="700" y="2" type="curve" smooth="yes"/>
      <point x="681" y="141"/>
      <point x="646" y="358"/>
      <point x="614" y="520" type="curve" smooth="yes"/>
      <point x="610" y="545"/>
      <point x="631" y="570"/>
      <point x="655" y="575" type="curve" smooth="yes"/>
      <point x="680" y="580"/>
      <point x="709" y="564"/>
    </contour>
    <contour>
      <point x="238" y="537" type="curve" smooth="yes"/>
      <point x="303" y="403"/>
      <point x="402" y="197"/>
      <point x="472" y="50" type="curve" smooth="yes"/>
      <point x="483" y="28"/>
      <point x="470" y="-2"/>
      <point x="448" y="-13" type="curve" smooth="yes"/>
      <point x="425" y="-23"/>
      <point x="394" y="-14"/>
      <point x="384" y="8" type="curve" smooth="yes"/>
      <point x="314" y="155"/>
      <point x="215" y="361"/>
      <point x="150" y="495" type="curve" smooth="yes"/>
      <point x="139" y="517"/>
      <point x="152" y="547"/>
      <point x="174" y="557" type="curve" smooth="yes"/>
      <point x="196" y="568"/>
      <point x="227" y="560"/>
    </contour>
    <contour>
      <point x="387" y="61" type="curve" smooth="yes"/>
      <point x="450" y="205"/>
      <point x="535" y="390"/>
      <point x="612" y="544" type="curve" smooth="yes"/>
      <point x="624" y="566"/>
      <point x="654" y="574"/>
      <point x="677" y="563" type="curve" smooth="yes"/>
      <point x="699" y="552"/>
      <point x="711" y="522"/>
      <point x="700" y="500" type="curve" smooth="yes"/>
      <point x="623" y="348"/>
      <point x="540" y="163"/>
      <point x="477" y="21" type="curve" smooth="yes"/>
      <point x="467" y="-2"/>
      <point x="436" y="-11"/>
      <point x="413" y="-1" type="curve" smooth="yes"/>
      <point x="391" y="9"/>
      <point x="377" y="38"/>
    </contour>
  </outline>
</glyph>
<glyph name="N" format="1">
  <advance width="667"/>
  <unicode hex="004E"/>
  <outline>
    <contour>
      <point x="180" y="520" type="curve" smooth="yes"/>
      <point x="180" y="11" type="line" smooth="yes"/>
      <point x="180" y="-14"/>
      <point x="154" y="-35"/>
      <point x="129" y="-35" type="curve" smooth="yes"/>
      <point x="104" y="-35"/>
      <point x="78" y="-14"/>
      <point x="78" y="11" type="curve" smooth="yes"/>
      <point x="78" y="520" type="line" smooth="yes"/>
      <point x="78" y="545"/>
      <point x="104" y="566"/>
      <point x="129" y="566" type="curve" smooth="yes"/>
      <point x="154" y="566"/>
      <point x="180" y="545"/>
    </contour>
    <contour>
      <point x="589" y="520" type="curve" smooth="yes"/>
      <point x="589" y="11" type="line" smooth="yes"/>
      <point x="589" y="-14"/>
      <point x="563" y="-35"/>
      <point x="538" y="-35" type="curve" smooth="yes"/>
      <point x="513" y="-35"/>
      <point x="487" y="-14"/>
      <point x="487" y="11" type="curve" smooth="yes"/>
      <point x="487" y="520" type="line" smooth="yes"/>
      <point x="487" y="545"/>
      <point x="513" y="566"/>
      <point x="538" y="566" type="curve" smooth="yes"/>
      <point x="563" y="566"/>
      <point x="589" y="545"/>
    </contour>
    <contour>
      <point x="173" y="549" type="curve" smooth="yes"/>
      <point x="252" y="444"/>
      <point x="457" y="190"/>
      <point x="569" y="40" type="curve" smooth="yes"/>
      <point x="584" y="20"/>
      <point x="578" y="-11"/>
      <point x="559" y="-26" type="curve" smooth="yes"/>
      <point x="539" y="-41"/>
      <point x="508" y="-37"/>
      <point x="493" y="-18" type="curve" smooth="yes"/>
      <point x="381" y="132"/>
      <point x="176" y="386"/>
      <point x="97" y="491" type="curve" smooth="yes"/>
      <point x="82" y="511"/>
      <point x="87" y="542"/>
      <point x="107" y="557" type="curve" smooth="yes"/>
      <point x="127" y="572"/>
      <point x="158" y="568"/>
    </contour>
  </outline>
</glyph>
<glyph name="O" format="1">
  <advance width="672.0"/>
  <unicode hex="004F"/>
  <outline>
    <contour>
      <point x="338" y="576" type="curve" smooth="yes"/>
      <point x="498" y="576"/>
      <point x="633" y="452"/>
      <point x="633" y="265" type="curve" smooth="yes"/>
      <point x="633" y="86"/>
      <point x="519" y="-45"/>
      <point x="338" y="-45" type="curve" smooth="yes"/>
      <point x="166" y="-45"/>
      <point x="39" y="87"/>
      <point x="39" y="262" type="curve"/>
      <point x="39" y="452"/>
      <point x="165" y="576"/>
    </contour>
    <contour>
      <point x="338" y="484" type="curve" smooth="yes"/>
      <point x="215" y="484"/>
      <point x="141" y="388"/>
      <point x="141" y="262" type="curve" smooth="yes"/>
      <point x="141" y="147"/>
      <point x="218" y="47"/>
      <point x="338" y="47" type="curve" smooth="yes"/>
      <point x="465" y="47"/>
      <point x="531" y="148"/>
      <point x="531" y="265" type="curve" smooth="yes"/>
      <point x="531" y="388"/>
      <point x="450" y="484"/>
    </contour>
  </outline>
</glyph>
<glyph name="P" format="1">
  <advance width="536"/>
  <unicode hex="0050"/>
  <outline>
    <contour>
      <point x="156" y="242" type="curve" smooth="yes"/>
      <point x="279" y="242" type="line" smooth="yes"/>
      <point x="364" y="242"/>
      <point x="408" y="294"/>
      <point x="408" y="358" type="curve" smooth="yes"/>
      <point x="408" y="426"/>
      <point x="355" y="474"/>
      <point x="279" y="474" type="curve" smooth="yes"/>
      <point x="129" y="474" type="line"/>
      <point x="180" y="520" type="line"/>
      <point x="180" y="11" type="line" smooth="yes"/>
      <point x="180" y="-14"/>
      <point x="154" y="-35"/>
      <point x="129" y="-35" type="curve" smooth="yes"/>
      <point x="104" y="-35"/>
      <point x="78" y="-14"/>
      <point x="78" y="11" type="curve" smooth="yes"/>
      <point x="78" y="520" type="line"/>
      <point x="78" y="545"/>
      <point x="101" y="566"/>
      <point x="129" y="566" type="curve" smooth="yes"/>
      <point x="279" y="566" type="line" smooth="yes"/>
      <point x="415" y="566"/>
      <point x="510" y="480"/>
      <point x="510" y="358" type="curve" smooth="yes"/>
      <point x="510" y="244"/>
      <point x="432" y="150"/>
      <point x="279" y="150" type="curve" smooth="yes"/>
      <point x="156" y="150" type="line" smooth="yes"/>
      <point x="131" y="150"/>
      <point x="110" y="171"/>
      <point x="110" y="196" type="curve" smooth="yes"/>
      <point x="110" y="221"/>
      <point x="131" y="242"/>
    </contour>
  </outline>
</glyph>
<glyph name="Q" format="1">
  <advance width="672.0"/>
  <unicode hex="0051"/>
  <outline>
    <contour>
      <point x="338" y="579" type="curve" smooth="yes"/>
      <point x="498" y="579"/>
      <point x="633" y="457"/>
      <point x="633" y="268" type="curve" smooth="yes"/>
      <point x="633" y="89"/>
      <point x="519" y="-41"/>
      <point x="338" y="-41" type="curve" smooth="yes"/>
      <point x="166" y="-41"/>
      <point x="39" y="90"/>
      <point x="39" y="265" type="curve"/>
      <point x="39" y="457"/>
      <point x="165" y="579"/>
    </contour>
    <contour>
      <point x="383" y="15" type="curve" smooth="yes"/>
      <point x="398" y="-44"/>
      <point x="453" y="-90"/>
      <point x="538" y="-90" type="curve" smooth="yes"/>
      <point x="563" y="-90"/>
      <point x="584" y="-111"/>
      <point x="584" y="-136" type="curve" smooth="yes"/>
      <point x="584" y="-161"/>
      <point x="563" y="-182"/>
      <point x="538" y="-182" type="curve" smooth="yes"/>
      <point x="399" y="-182"/>
      <point x="310" y="-106"/>
      <point x="285" y="-11" type="curve" smooth="yes"/>
      <point x="279" y="13"/>
      <point x="298" y="40"/>
      <point x="322" y="47" type="curve" smooth="yes"/>
      <point x="346" y="53"/>
      <point x="376" y="39"/>
    </contour>
    <contour>
      <point x="338" y="487" type="curve" smooth="yes"/>
      <point x="215" y="487"/>
      <point x="141" y="391"/>
      <point x="141" y="265" type="curve" smooth="yes"/>
      <point x="141" y="150"/>
      <point x="218" y="51"/>
      <point x="338" y="51" type="curve" smooth="yes"/>
      <point x="465" y="51"/>
      <point x="531" y="151"/>
      <point x="531" y="268" type="curve" smooth="yes"/>
      <point x="531" y="391"/>
      <point x="450" y="487"/>
    </contour>
  </outline>
</glyph>
<glyph name="R" format="1">
  <advance width="568"/>
  <unicode hex="0052"/>
  <outline>
    <contour>
      <point x="146" y="266" type="curve" smooth="yes"/>
      <point x="284" y="266" type="line" smooth="yes"/>
      <point x="364" y="266"/>
      <point x="407" y="312"/>
      <point x="407" y="370" type="curve" smooth="yes"/>
      <point x="407" y="432"/>
      <point x="357" y="474"/>
      <point x="284" y="474" type="curve" smooth="yes"/>
      <point x="129" y="474" type="line"/>
      <point x="180" y="520" type="line"/>
      <point x="180" y="11" type="line" smooth="yes"/>
      <point x="180" y="-14"/>
      <point x="154" y="-35"/>
      <point x="129" y="-35" type="curve" smooth="yes"/>
      <point x="104" y="-35"/>
      <point x="78" y="-14"/>
      <point x="78" y="11" type="curve" smooth="yes"/>
      <point x="78" y="520" type="line"/>
      <point x="78" y="545"/>
      <point x="101" y="566"/>
      <point x="129" y="566" type="curve" smooth="yes"/>
      <point x="284" y="566" type="line" smooth="yes"/>
      <point x="421" y="566"/>
      <point x="509" y="484"/>
      <point x="509" y="370" type="curve" smooth="yes"/>
      <point x="509" y="264"/>
      <point x="436" y="174"/>
      <point x="284" y="174" type="curve" smooth="yes"/>
      <point x="146" y="174" type="line" smooth="yes"/>
      <point x="121" y="174"/>
      <point x="100" y="195"/>
      <point x="100" y="220" type="curve" smooth="yes"/>
      <point x="100" y="245"/>
      <point x="121" y="266"/>
    </contour>
    <contour>
      <point x="350" y="245" type="curve" smooth="yes"/>
      <point x="523" y="42" type="line" smooth="yes"/>
      <point x="539" y="23"/>
      <point x="536" y="-8"/>
      <point x="517" y="-24" type="curve" smooth="yes"/>
      <point x="498" y="-40"/>
      <point x="467" y="-39"/>
      <point x="451" y="-20" type="curve" smooth="yes"/>
      <point x="278" y="183" type="line" smooth="yes"/>
      <point x="262" y="202"/>
      <point x="265" y="233"/>
      <point x="284" y="249" type="curve" smooth="yes"/>
      <point x="303" y="265"/>
      <point x="334" y="264"/>
    </contour>
  </outline>
</glyph>
<glyph name="S" format="1">
  <advance width="551"/>
  <unicode hex="0053"/>
  <outline>
    <contour>
      <point x="396" y="452" type="curve" smooth="yes"/>
      <point x="351" y="470"/>
      <point x="320" y="481"/>
      <point x="255" y="481" type="curve" smooth="yes"/>
      <point x="203" y="481"/>
      <point x="163" y="453"/>
      <point x="163" y="417" type="curve" smooth="yes"/>
      <point x="163" y="379"/>
      <point x="192" y="342"/>
      <point x="286" y="324" type="curve" smooth="yes"/>
      <point x="454" y="286"/>
      <point x="499" y="214"/>
      <point x="499" y="130" type="curve" smooth="yes"/>
      <point x="499" y="42"/>
      <point x="439" y="-44"/>
      <point x="276" y="-44" type="curve" smooth="yes"/>
      <point x="205" y="-44"/>
      <point x="137" y="-28"/>
      <point x="76" y="7" type="curve" smooth="yes"/>
      <point x="54" y="19"/>
      <point x="47" y="48"/>
      <point x="59" y="70" type="curve" smooth="yes"/>
      <point x="71" y="91"/>
      <point x="100" y="99"/>
      <point x="122" y="87" type="curve" smooth="yes"/>
      <point x="169" y="60"/>
      <point x="221" y="48"/>
      <point x="276" y="48" type="curve" smooth="yes"/>
      <point x="353" y="48"/>
      <point x="397" y="82"/>
      <point x="397" y="130" type="curve" smooth="yes"/>
      <point x="397" y="180"/>
      <point x="356" y="214"/>
      <point x="268" y="234" type="curve" smooth="yes"/>
      <point x="82" y="270"/>
      <point x="61" y="351"/>
      <point x="61" y="417" type="curve"/>
      <point x="61" y="493"/>
      <point x="129" y="573"/>
      <point x="255" y="573" type="curve" smooth="yes"/>
      <point x="336" y="573"/>
      <point x="375" y="560"/>
      <point x="430" y="538" type="curve" smooth="yes"/>
      <point x="453" y="529"/>
      <point x="465" y="501"/>
      <point x="456" y="478" type="curve" smooth="yes"/>
      <point x="446" y="455"/>
      <point x="419" y="443"/>
    </contour>
  </outline>
</glyph>
<glyph name="T" format="1">
  <advance width="573"/>
  <unicode hex="0054"/>
  <outline>
    <contour>
      <point x="336" y="520" type="curve" smooth="yes"/>
      <point x="336" y="11" type="line" smooth="yes"/>
      <point x="336" y="-14"/>
      <point x="310" y="-35"/>
      <point x="285" y="-35" type="curve" smooth="yes"/>
      <point x="260" y="-35"/>
      <point x="234" y="-14"/>
      <point x="234" y="11" type="curve" smooth="yes"/>
      <point x="234" y="520" type="line" smooth="yes"/>
      <point x="234" y="545"/>
      <point x="260" y="566"/>
      <point x="285" y="566" type="curve" smooth="yes"/>
      <point x="310" y="566"/>
      <point x="336" y="545"/>
    </contour>
    <contour>
      <point x="62" y="566" type="curve" smooth="yes"/>
      <point x="511" y="566" type="line" smooth="yes"/>
      <point x="536" y="566"/>
      <point x="557" y="545"/>
      <point x="557" y="520" type="curve" smooth="yes"/>
      <point x="557" y="495"/>
      <point x="536" y="474"/>
      <point x="511" y="474" type="curve" smooth="yes"/>
      <point x="62" y="474" type="line" smooth="yes"/>
      <point x="37" y="474"/>
      <point x="16" y="495"/>
      <point x="16" y="520" type="curve" smooth="yes"/>
      <point x="16" y="545"/>
      <point x="37" y="566"/>
    </contour>
  </outline>
</glyph>
<glyph name="U" format="1">
  <advance width="647"/>
  <unicode hex="0055"/>
  <outline>
    <contour>
      <point x="168" y="520" type="curve" smooth="yes"/>
      <point x="168" y="210" type="line" smooth="yes"/>
      <point x="168" y="109"/>
      <point x="228" y="48"/>
      <point x="321" y="48" type="curve" smooth="yes"/>
      <point x="426" y="48"/>
      <point x="479" y="109"/>
      <point x="479" y="213" type="curve" smooth="yes"/>
      <point x="479" y="520" type="line" smooth="yes"/>
      <point x="479" y="545"/>
      <point x="505" y="566"/>
      <point x="530" y="566" type="curve" smooth="yes"/>
      <point x="555" y="566"/>
      <point x="581" y="545"/>
      <point x="581" y="520" type="curve" smooth="yes"/>
      <point x="581" y="213" type="line" smooth="yes"/>
      <point x="581" y="43"/>
      <point x="484" y="-44"/>
      <point x="321" y="-44" type="curve" smooth="yes"/>
      <point x="174" y="-44"/>
      <point x="66" y="42"/>
      <point x="66" y="210" type="curve"/>
      <point x="66" y="520" type="line" smooth="yes"/>
      <point x="66" y="545"/>
      <point x="92" y="566"/>
      <point x="117" y="566" type="curve" smooth="yes"/>
      <point x="142" y="566"/>
      <point x="168" y="545"/>
    </contour>
  </outline>
</glyph>
<glyph name="V" format="1">
  <advance width="614"/>
  <unicode hex="0056"/>
  <outline>
    <contour>
      <point x="126" y="536" type="curve" smooth="yes"/>
      <point x="168" y="408"/>
      <point x="306" y="107"/>
      <point x="348" y="30" type="curve" smooth="yes"/>
      <point x="360" y="8"/>
      <point x="349" y="-22"/>
      <point x="327" y="-34" type="curve" smooth="yes"/>
      <point x="305" y="-45"/>
      <point x="274" y="-38"/>
      <point x="262" y="-16" type="curve" smooth="yes"/>
      <point x="220" y="63"/>
      <point x="74" y="374"/>
      <point x="32" y="506" type="curve" smooth="yes"/>
      <point x="24" y="529"/>
      <point x="41" y="557"/>
      <point x="65" y="565" type="curve" smooth="yes"/>
      <point x="88" y="572"/>
      <point x="119" y="560"/>
    </contour>
    <contour>
      <point x="265" y="24" type="curve" smooth="yes"/>
      <point x="310" y="110"/>
      <point x="438" y="388"/>
      <point x="489" y="536" type="curve" smooth="yes"/>
      <point x="497" y="560"/>
      <point x="528" y="572"/>
      <point x="551" y="563" type="curve" smooth="yes"/>
      <point x="575" y="555"/>
      <point x="591" y="527"/>
      <point x="583" y="504" type="curve" smooth="yes"/>
      <point x="530" y="352"/>
      <point x="398" y="68"/>
      <point x="351" y="-22" type="curve" smooth="yes"/>
      <point x="340" y="-44"/>
      <point x="309" y="-51"/>
      <point x="287" y="-40" type="curve" smooth="yes"/>
      <point x="265" y="-28"/>
      <point x="253" y="2"/>
    </contour>
  </outline>
</glyph>
<glyph name="W" format="1">
  <advance width="942"/>
  <unicode hex="0057"/>
  <outline>
    <contour>
      <point x="144" y="532" type="curve" smooth="yes"/>
      <point x="179" y="404"/>
      <point x="281" y="106"/>
      <point x="317" y="29" type="curve" smooth="yes"/>
      <point x="328" y="7"/>
      <point x="315" y="-23"/>
      <point x="293" y="-34" type="curve" smooth="yes"/>
      <point x="270" y="-44"/>
      <point x="239" y="-35"/>
      <point x="229" y="-13" type="curve" smooth="yes"/>
      <point x="191" y="66"/>
      <point x="83" y="374"/>
      <point x="48" y="506" type="curve" smooth="yes"/>
      <point x="41" y="530"/>
      <point x="60" y="557"/>
      <point x="84" y="563" type="curve" smooth="yes"/>
      <point x="108" y="570"/>
      <point x="138" y="556"/>
    </contour>
    <contour>
      <point x="232" y="22" type="curve" smooth="yes"/>
      <point x="271" y="109"/>
      <point x="379" y="384"/>
      <point x="423" y="531" type="curve" smooth="yes"/>
      <point x="430" y="554"/>
      <point x="461" y="567"/>
      <point x="484" y="560" type="curve" smooth="yes"/>
      <point x="508" y="553"/>
      <point x="526" y="525"/>
      <point x="519" y="501" type="curve" smooth="yes"/>
      <point x="473" y="352"/>
      <point x="361" y="71"/>
      <point x="322" y="-18" type="curve" smooth="yes"/>
      <point x="312" y="-41"/>
      <point x="281" y="-50"/>
      <point x="258" y="-40" type="curve" smooth="yes"/>
      <point x="236" y="-30"/>
      <point x="222" y="-1"/>
    </contour>
    <contour>
      <point x="524" y="519" type="curve" smooth="yes"/>
      <point x="563" y="393"/>
      <point x="669" y="105"/>
      <point x="706" y="28" type="curve" smooth="yes"/>
      <point x="717" y="6"/>
      <point x="704" y="-23"/>
      <point x="682" y="-34" type="curve" smooth="yes"/>
      <point x="660" y="-45"/>
      <point x="629" y="-37"/>
      <point x="618" y="-14" type="curve" smooth="yes"/>
      <point x="579" y="65"/>
      <point x="469" y="359"/>
      <point x="428" y="489" type="curve" smooth="yes"/>
      <point x="421" y="513"/>
      <point x="439" y="540"/>
      <point x="462" y="548" type="curve" smooth="yes"/>
      <point x="486" y="555"/>
      <point x="516" y="543"/>
    </contour>
    <contour>
      <point x="621" y="21" type="curve" smooth="yes"/>
      <point x="660" y="108"/>
      <point x="756" y="385"/>
      <point x="799" y="533" type="curve" smooth="yes"/>
      <point x="806" y="557"/>
      <point x="836" y="570"/>
      <point x="860" y="563" type="curve" smooth="yes"/>
      <point x="884" y="556"/>
      <point x="902" y="529"/>
      <point x="895" y="505" type="curve" smooth="yes"/>
      <point x="852" y="353"/>
      <point x="750" y="70"/>
      <point x="711" y="-19" type="curve" smooth="yes"/>
      <point x="701" y="-42"/>
      <point x="670" y="-51"/>
      <point x="647" y="-41" type="curve" smooth="yes"/>
      <point x="625" y="-31"/>
      <point x="611" y="-2"/>
    </contour>
  </outline>
</glyph>
<glyph name="X" format="1">
  <advance width="591"/>
  <unicode hex="0058"/>
  <outline>
    <contour>
      <point x="142" y="547" type="curve" smooth="yes"/>
      <point x="243" y="400"/>
      <point x="480" y="126"/>
      <point x="542" y="39" type="curve" smooth="yes"/>
      <point x="556" y="18"/>
      <point x="550" y="-12"/>
      <point x="529" y="-27" type="curve" smooth="yes"/>
      <point x="509" y="-41"/>
      <point x="478" y="-37"/>
      <point x="464" y="-17" type="curve" smooth="yes"/>
      <point x="402" y="72"/>
      <point x="165" y="346"/>
      <point x="64" y="493" type="curve" smooth="yes"/>
      <point x="49" y="513"/>
      <point x="56" y="544"/>
      <point x="77" y="558" type="curve" smooth="yes"/>
      <point x="97" y="572"/>
      <point x="128" y="568"/>
    </contour>
    <contour>
      <point x="51" y="39" type="curve" smooth="yes"/>
      <point x="133" y="151"/>
      <point x="352" y="407"/>
      <point x="442" y="546" type="curve" smooth="yes"/>
      <point x="455" y="567"/>
      <point x="486" y="572"/>
      <point x="507" y="559" type="curve" smooth="yes"/>
      <point x="528" y="545"/>
      <point x="536" y="515"/>
      <point x="522" y="494" type="curve" smooth="yes"/>
      <point x="432" y="353"/>
      <point x="211" y="95"/>
      <point x="127" y="-17" type="curve" smooth="yes"/>
      <point x="113" y="-37"/>
      <point x="82" y="-41"/>
      <point x="62" y="-26" type="curve" smooth="yes"/>
      <point x="42" y="-11"/>
      <point x="36" y="19"/>
    </contour>
  </outline>
</glyph>
<glyph name="Y" format="1">
  <advance width="588.0"/>
  <unicode hex="0059"/>
  <outline>
    <contour>
      <point x="347" y="187" type="curve" smooth="yes"/>
      <point x="347" y="11" type="line" smooth="yes"/>
      <point x="347" y="-14"/>
      <point x="321" y="-35"/>
      <point x="296" y="-35" type="curve" smooth="yes"/>
      <point x="271" y="-35"/>
      <point x="245" y="-14"/>
      <point x="245" y="11" type="curve" smooth="yes"/>
      <point x="245" y="187" type="line" smooth="yes"/>
      <point x="245" y="212"/>
      <point x="271" y="233"/>
      <point x="296" y="233" type="curve" smooth="yes"/>
      <point x="321" y="233"/>
      <point x="347" y="212"/>
    </contour>
    <contour>
      <point x="119" y="545" type="curve" smooth="yes"/>
      <point x="163" y="473"/>
      <point x="287" y="288"/>
      <point x="331" y="229" type="curve" smooth="yes"/>
      <point x="346" y="209"/>
      <point x="340" y="178"/>
      <point x="321" y="163" type="curve" smooth="yes"/>
      <point x="301" y="148"/>
      <point x="270" y="152"/>
      <point x="255" y="171" type="curve" smooth="yes"/>
      <point x="209" y="232"/>
      <point x="81" y="421"/>
      <point x="37" y="495" type="curve" smooth="yes"/>
      <point x="24" y="516"/>
      <point x="33" y="547"/>
      <point x="54" y="559" type="curve" smooth="yes"/>
      <point x="76" y="572"/>
      <point x="107" y="566"/>
    </contour>
    <contour>
      <point x="258" y="223" type="curve" smooth="yes"/>
      <point x="309" y="291"/>
      <point x="426" y="474"/>
      <point x="469" y="545" type="curve" smooth="yes"/>
      <point x="481" y="566"/>
      <point x="512" y="572"/>
      <point x="534" y="559" type="curve" smooth="yes"/>
      <point x="555" y="547"/>
      <point x="564" y="517"/>
      <point x="551" y="495" type="curve" smooth="yes"/>
      <point x="508" y="422"/>
      <point x="387" y="235"/>
      <point x="334" y="165" type="curve" smooth="yes"/>
      <point x="319" y="145"/>
      <point x="288" y="142"/>
      <point x="268" y="157" type="curve" smooth="yes"/>
      <point x="248" y="172"/>
      <point x="243" y="203"/>
    </contour>
  </outline>
</glyph>
<glyph name="Z" format="1">
  <advance width="591"/>
  <unicode hex="005A"/>
  <outline>
    <contour>
      <point x="525" y="494" type="curve" smooth="yes"/>
      <point x="459" y="394"/>
      <point x="193" y="79"/>
      <point x="139" y="-7" type="curve" smooth="yes"/>
      <point x="125" y="-28"/>
      <point x="94" y="-33"/>
      <point x="73" y="-20" type="curve" smooth="yes"/>
      <point x="52" y="-6"/>
      <point x="44" y="24"/>
      <point x="57" y="45" type="curve" smooth="yes"/>
      <point x="113" y="131"/>
      <point x="379" y="446"/>
      <point x="445" y="546" type="curve" smooth="yes"/>
      <point x="459" y="567"/>
      <point x="490" y="572"/>
      <point x="510" y="558" type="curve" smooth="yes"/>
      <point x="531" y="545"/>
      <point x="539" y="514"/>
    </contour>
    <contour>
      <point x="107" y="566" type="curve" smooth="yes"/>
      <point x="474" y="566" type="line" smooth="yes"/>
      <point x="499" y="566"/>
      <point x="520" y="545"/>
      <point x="520" y="520" type="curve" smooth="yes"/>
      <point x="520" y="495"/>
      <point x="499" y="474"/>
      <point x="474" y="474" type="curve" smooth="yes"/>
      <point x="107" y="474" type="line" smooth="yes"/>
      <point x="82" y="474"/>
      <point x="61" y="495"/>
      <point x="61" y="520" type="curve" smooth="yes"/>
      <point x="61" y="545"/>
      <point x="82" y="566"/>
    </contour>
    <contour>
      <point x="93" y="57" type="curve" smooth="yes"/>
      <point x="498" y="57" type="line" smooth="yes"/>
      <point x="523" y="57"/>
      <point x="544" y="36"/>
      <point x="544" y="11" type="curve" smooth="yes"/>
      <point x="544" y="-14"/>
      <point x="523" y="-35"/>
      <point x="498" y="-35" type="curve" smooth="yes"/>
      <point x="93" y="-35" type="line" smooth="yes"/>
      <point x="68" y="-35"/>
      <point x="47" y="-14"/>
      <point x="47" y="11" type="curve" smooth="yes"/>
      <point x="47" y="36"/>
      <point x="68" y="57"/>
    </contour>
  </outline>
</glyph>
<glyph name="bracketleft" format="1">
  <advance width="352"/>
  <unicode hex="005B"/>
  <outline>
    <contour>
      <point x="245" y="574" type="curve" smooth="yes"/>
      <point x="103" y="574" type="line"/>
      <point x="154" y="620" type="line"/>
      <point x="154" y="-93" type="line"/>
      <point x="103" y="-47" type="line"/>
      <point x="245" y="-47" type="line" smooth="yes"/>
      <point x="270" y="-47"/>
      <point x="291" y="-68"/>
      <point x="291" y="-93" type="curve" smooth="yes"/>
      <point x="291" y="-118"/>
      <point x="270" y="-139"/>
      <point x="245" y="-139" type="curve" smooth="yes"/>
      <point x="103" y="-139" type="line" smooth="yes"/>
      <point x="75" y="-139"/>
      <point x="52" y="-118"/>
      <point x="52" y="-93" type="curve"/>
      <point x="52" y="620" type="line"/>
      <point x="52" y="645"/>
      <point x="75" y="666"/>
      <point x="103" y="666" type="curve" smooth="yes"/>
      <point x="245" y="666" type="line" smooth="yes"/>
      <point x="270" y="666"/>
      <point x="291" y="645"/>
      <point x="291" y="620" type="curve" smooth="yes"/>
      <point x="291" y="595"/>
      <point x="270" y="574"/>
    </contour>
  </outline>
</glyph>
<glyph name="backslash" format="1">
  <advance width="415"/>
  <unicode hex="005C"/>
  <outline>
    <contour>
      <point x="294" y="-91" type="curve" smooth="yes"/>
      <point x="33" y="623" type="line" smooth="yes"/>
      <point x="25" y="646"/>
      <point x="41" y="675"/>
      <point x="64" y="683" type="curve" smooth="yes"/>
      <point x="88" y="692"/>
      <point x="118" y="680"/>
      <point x="127" y="657" type="curve" smooth="yes"/>
      <point x="388" y="-57" type="line" smooth="yes"/>
      <point x="396" y="-80"/>
      <point x="380" y="-109"/>
      <point x="357" y="-117" type="curve" smooth="yes"/>
      <point x="333" y="-126"/>
      <point x="303" y="-114"/>
    </contour>
  </outline>
</glyph>
<glyph name="bracketright" format="1">
  <advance width="352"/>
  <unicode hex="005D"/>
  <outline>
    <contour>
      <point x="107" y="-39" type="curve" smooth="yes"/>
      <point x="249" y="-39" type="line"/>
      <point x="198" y="-85" type="line"/>
      <point x="198" y="628" type="line"/>
      <point x="249" y="582" type="line"/>
      <point x="107" y="582" type="line" smooth="yes"/>
      <point x="82" y="582"/>
      <point x="61" y="603"/>
      <point x="61" y="628" type="curve" smooth="yes"/>
      <point x="61" y="653"/>
      <point x="82" y="674"/>
      <point x="107" y="674" type="curve" smooth="yes"/>
      <point x="249" y="674" type="line" smooth="yes"/>
      <point x="277" y="674"/>
      <point x="300" y="653"/>
      <point x="300" y="628" type="curve" smooth="yes"/>
      <point x="300" y="-85" type="line" smooth="yes"/>
      <point x="300" y="-110"/>
      <point x="277" y="-131"/>
      <point x="249" y="-131" type="curve" smooth="yes"/>
      <point x="107" y="-131" type="line" smooth="yes"/>
      <point x="82" y="-131"/>
      <point x="61" y="-110"/>
      <point x="61" y="-85" type="curve" smooth="yes"/>
      <point x="61" y="-60"/>
      <point x="82" y="-39"/>
    </contour>
  </outline>
</glyph>
<glyph name="asciicircum" format="1">
  <advance width="515"/>
  <unicode hex="005E"/>
  <outline>
    <contour>
      <point x="296" y="501" type="curve" smooth="yes"/>
      <point x="246" y="404"/>
      <point x="192" y="304"/>
      <point x="149" y="220" type="curve" smooth="yes"/>
      <point x="138" y="198"/>
      <point x="107" y="190"/>
      <point x="85" y="201" type="curve" smooth="yes"/>
      <point x="63" y="212"/>
      <point x="51" y="242"/>
      <point x="63" y="264" type="curve" smooth="yes"/>
      <point x="106" y="348"/>
      <point x="160" y="448"/>
      <point x="210" y="545" type="curve" smooth="yes"/>
      <point x="221" y="567"/>
      <point x="252" y="575"/>
      <point x="274" y="564" type="curve" smooth="yes"/>
      <point x="296" y="553"/>
      <point x="308" y="523"/>
    </contour>
    <contour>
      <point x="367" y="219" type="curve" smooth="yes"/>
      <point x="323" y="303"/>
      <point x="272" y="403"/>
      <point x="220" y="500" type="curve" smooth="yes"/>
      <point x="208" y="522"/>
      <point x="219" y="552"/>
      <point x="241" y="564" type="curve" smooth="yes"/>
      <point x="263" y="575"/>
      <point x="294" y="568"/>
      <point x="306" y="546" type="curve" smooth="yes"/>
      <point x="358" y="449"/>
      <point x="409" y="349"/>
      <point x="453" y="265" type="curve" smooth="yes"/>
      <point x="465" y="243"/>
      <point x="453" y="213"/>
      <point x="431" y="201" type="curve" smooth="yes"/>
      <point x="409" y="190"/>
      <point x="378" y="197"/>
    </contour>
  </outline>
</glyph>
<glyph name="underscore" format="1">
  <advance width="520"/>
  <unicode hex="005F"/>
  <outline>
    <contour>
      <point x="42" y="-55" type="curve" smooth="yes"/>
      <point x="478" y="-55" type="line" smooth="yes"/>
      <point x="503" y="-55"/>
      <point x="524" y="-76"/>
      <point x="524" y="-101" type="curve" smooth="yes"/>
      <point x="524" y="-126"/>
      <point x="503" y="-147"/>
      <point x="478" y="-147" type="curve" smooth="yes"/>
      <point x="42" y="-147" type="line" smooth="yes"/>
      <point x="17" y="-147"/>
      <point x="-4" y="-126"/>
      <point x="-4" y="-101" type="curve" smooth="yes"/>
      <point x="-4" y="-76"/>
      <point x="17" y="-55"/>
    </contour>
  </outline>
</glyph>
<glyph name="grave" format="1">
  <advance width="515"/>
  <unicode hex="0060"/>
  <outline>
    <contour>
      <point x="261" y="627" type="curve" smooth="yes"/>
      <point x="290" y="590"/>
      <point x="309" y="567"/>
      <point x="336" y="525" type="curve" smooth="yes"/>
      <point x="349" y="504"/>
      <point x="341" y="473"/>
      <point x="320" y="460" type="curve" smooth="yes"/>
      <point x="299" y="447"/>
      <point x="268" y="452"/>
      <point x="254" y="473" type="curve" smooth="yes"/>
      <point x="229" y="513"/>
      <point x="212" y="534"/>
      <point x="185" y="569" type="curve" smooth="yes"/>
      <point x="170" y="588"/>
      <point x="175" y="619"/>
      <point x="195" y="634" type="curve" smooth="yes"/>
      <point x="214" y="650"/>
      <point x="245" y="647"/>
    </contour>
  </outline>
</glyph>
<glyph name="a" format="1">
  <advance width="473"/>
  <unicode hex="0061"/>
  <outline>
    <contour>
      <point x="114" y="401" type="curve" smooth="yes"/>
      <point x="139" y="409"/>
      <point x="186" y="420"/>
      <point x="226" y="420" type="curve" smooth="yes"/>
      <point x="353" y="420"/>
      <point x="417" y="346"/>
      <point x="417" y="230" type="curve" smooth="yes"/>
      <point x="417" y="134" type="line" smooth="yes"/>
      <point x="417" y="93"/>
      <point x="422" y="67"/>
      <point x="440" y="46" type="curve" smooth="yes"/>
      <point x="457" y="28"/>
      <point x="454" y="-3"/>
      <point x="436" y="-19" type="curve" smooth="yes"/>
      <point x="417" y="-36"/>
      <point x="386" y="-35"/>
      <point x="370" y="-16" type="curve" smooth="yes"/>
      <point x="338" y="19"/>
      <point x="315" y="59"/>
      <point x="315" y="134" type="curve" smooth="yes"/>
      <point x="315" y="230" type="line" smooth="yes"/>
      <point x="315" y="284"/>
      <point x="291" y="328"/>
      <point x="226" y="328" type="curve" smooth="yes"/>
      <point x="196" y="328"/>
      <point x="161" y="319"/>
      <point x="142" y="313" type="curve" smooth="yes"/>
      <point x="118" y="306"/>
      <point x="92" y="319"/>
      <point x="84" y="343" type="curve" smooth="yes"/>
      <point x="77" y="367"/>
      <point x="90" y="393"/>
    </contour>
    <contour>
      <point x="364" y="172" type="curve" smooth="yes"/>
      <point x="329" y="173"/>
      <point x="298" y="175"/>
      <point x="268" y="175" type="curve" smooth="yes"/>
      <point x="207" y="175"/>
      <point x="166" y="162"/>
      <point x="141" y="137" type="curve" smooth="yes"/>
      <point x="129" y="126"/>
      <point x="130" y="112"/>
      <point x="130" y="99" type="curve" smooth="yes"/>
      <point x="130" y="80"/>
      <point x="147" y="60"/>
      <point x="181" y="60" type="curve" smooth="yes"/>
      <point x="243" y="60"/>
      <point x="288" y="88"/>
      <point x="328" y="142" type="curve" smooth="yes"/>
      <point x="342" y="162"/>
      <point x="373" y="166"/>
      <point x="393" y="151" type="curve" smooth="yes"/>
      <point x="413" y="136"/>
      <point x="419" y="106"/>
      <point x="404" y="86" type="curve" smooth="yes"/>
      <point x="344" y="4"/>
      <point x="273" y="-32"/>
      <point x="181" y="-32" type="curve" smooth="yes"/>
      <point x="65" y="-32"/>
      <point x="28" y="44"/>
      <point x="28" y="99" type="curve" smooth="yes"/>
      <point x="28" y="140"/>
      <point x="43" y="174"/>
      <point x="75" y="205" type="curve" smooth="yes"/>
      <point x="114" y="242"/>
      <point x="175" y="267"/>
      <point x="268" y="267" type="curve" smooth="yes"/>
      <point x="298" y="267"/>
      <point x="331" y="265"/>
      <point x="366" y="264" type="curve" smooth="yes"/>
      <point x="391" y="263"/>
      <point x="412" y="242"/>
      <point x="411" y="217" type="curve" smooth="yes"/>
      <point x="410" y="192"/>
      <point x="389" y="171"/>
    </contour>
  </outline>
</glyph>
<glyph name="b" format="1">
  <advance width="530"/>
  <unicode hex="0062"/>
  <outline>
    <contour>
      <point x="65" y="11" type="curve" smooth="yes"/>
      <point x="65" y="547" type="line" smooth="yes"/>
      <point x="65" y="572"/>
      <point x="91" y="593"/>
      <point x="116" y="593" type="curve" smooth="yes"/>
      <point x="141" y="593"/>
      <point x="167" y="572"/>
      <point x="167" y="547" type="curve" smooth="yes"/>
      <point x="167" y="11" type="line" smooth="yes"/>
      <point x="167" y="-14"/>
      <point x="141" y="-35"/>
      <point x="116" y="-35" type="curve" smooth="yes"/>
      <point x="91" y="-35"/>
      <point x="65" y="-14"/>
    </contour>
    <contour>
      <point x="138" y="92" type="curve" smooth="yes"/>
      <point x="181" y="68"/>
      <point x="227" y="56"/>
      <point x="281" y="56" type="curve" smooth="yes"/>
      <point x="356" y="56"/>
      <point x="403" y="112"/>
      <point x="403" y="189" type="curve" smooth="yes"/>
      <point x="403" y="262"/>
      <point x="361" y="323"/>
      <point x="295" y="323" type="curve" smooth="yes"/>
      <point x="243" y="323"/>
      <point x="194" y="280"/>
      <point x="158" y="222" type="curve" smooth="yes"/>
      <point x="145" y="201"/>
      <point x="114" y="196"/>
      <point x="93" y="209" type="curve" smooth="yes"/>
      <point x="72" y="222"/>
      <point x="63" y="253"/>
      <point x="76" y="274" type="curve" smooth="yes"/>
      <point x="134" y="366"/>
      <point x="217" y="415"/>
      <point x="295" y="415" type="curve" smooth="yes"/>
      <point x="405" y="415"/>
      <point x="505" y="332"/>
      <point x="505" y="189" type="curve" smooth="yes"/>
      <point x="505" y="48"/>
      <point x="408" y="-36"/>
      <point x="281" y="-36" type="curve" smooth="yes"/>
      <point x="211" y="-36"/>
      <point x="151" y="-20"/>
      <point x="94" y="10" type="curve" smooth="yes"/>
      <point x="72" y="22"/>
      <point x="64" y="51"/>
      <point x="76" y="73" type="curve" smooth="yes"/>
      <point x="87" y="95"/>
      <point x="116" y="103"/>
    </contour>
  </outline>
</glyph>
<glyph name="c" format="1">
  <advance width="458"/>
  <unicode hex="0063"/>
  <outline>
    <contour>
      <point x="352" y="314" type="curve" smooth="yes"/>
      <point x="328" y="322"/>
      <point x="298" y="328"/>
      <point x="273" y="328" type="curve" smooth="yes"/>
      <point x="179" y="328"/>
      <point x="129" y="265"/>
      <point x="129" y="185" type="curve" smooth="yes"/>
      <point x="129" y="114"/>
      <point x="181" y="60"/>
      <point x="272" y="60" type="curve" smooth="yes"/>
      <point x="308" y="60"/>
      <point x="338" y="68"/>
      <point x="363" y="77" type="curve" smooth="yes"/>
      <point x="386" y="86"/>
      <point x="413" y="74"/>
      <point x="422" y="50" type="curve" smooth="yes"/>
      <point x="431" y="27"/>
      <point x="419" y="0"/>
      <point x="395" y="-9" type="curve" smooth="yes"/>
      <point x="362" y="-22"/>
      <point x="322" y="-32"/>
      <point x="272" y="-32" type="curve" smooth="yes"/>
      <point x="113" y="-32"/>
      <point x="27" y="64"/>
      <point x="27" y="185" type="curve" smooth="yes"/>
      <point x="27" y="323"/>
      <point x="119" y="420"/>
      <point x="273" y="420" type="curve" smooth="yes"/>
      <point x="308" y="420"/>
      <point x="348" y="412"/>
      <point x="380" y="402" type="curve" smooth="yes"/>
      <point x="404" y="394"/>
      <point x="417" y="368"/>
      <point x="410" y="344" type="curve" smooth="yes"/>
      <point x="402" y="320"/>
      <point x="376" y="307"/>
    </contour>
  </outline>
</glyph>
<glyph name="e" format="1">
  <advance width="483.0"/>
  <unicode hex="0065"/>
  <outline>
    <contour>
      <point x="91" y="239" type="curve" smooth="yes"/>
      <point x="311" y="239" type="line" smooth="yes"/>
      <point x="329" y="239"/>
      <point x="346" y="242"/>
      <point x="346" y="258" type="curve" smooth="yes"/>
      <point x="346" y="290"/>
      <point x="307" y="328"/>
      <point x="254" y="328" type="curve" smooth="yes"/>
      <point x="180" y="328"/>
      <point x="129" y="267"/>
      <point x="129" y="189" type="curve" smooth="yes"/>
      <point x="129" y="105"/>
      <point x="189" y="60"/>
      <point x="275" y="60" type="curve" smooth="yes"/>
      <point x="307" y="60"/>
      <point x="338" y="68"/>
      <point x="361" y="76" type="curve" smooth="yes"/>
      <point x="384" y="85"/>
      <point x="412" y="72"/>
      <point x="420" y="49" type="curve" smooth="yes"/>
      <point x="429" y="26"/>
      <point x="416" y="-2"/>
      <point x="393" y="-10" type="curve" smooth="yes"/>
      <point x="362" y="-22"/>
      <point x="319" y="-32"/>
      <point x="275" y="-32" type="curve" smooth="yes"/>
      <point x="129" y="-32"/>
      <point x="27" y="45"/>
      <point x="27" y="189" type="curve" smooth="yes"/>
      <point x="27" y="331"/>
      <point x="132" y="420"/>
      <point x="254" y="420" type="curve" smooth="yes"/>
      <point x="376" y="420"/>
      <point x="448" y="326"/>
      <point x="448" y="258" type="curve" smooth="yes"/>
      <point x="448" y="194"/>
      <point x="419" y="147"/>
      <point x="311" y="147" type="curve" smooth="yes"/>
      <point x="91" y="147" type="line" smooth="yes"/>
      <point x="66" y="147"/>
      <point x="45" y="168"/>
      <point x="45" y="193" type="curve" smooth="yes"/>
      <point x="45" y="218"/>
      <point x="66" y="239"/>
    </contour>
  </outline>
</glyph>
<glyph name="f" format="1">
  <advance width="334"/>
  <unicode hex="0066"/>
  <outline>
    <contour>
      <point x="287" y="527" type="curve" smooth="yes"/>
      <point x="216" y="523"/>
      <point x="192" y="494"/>
      <point x="192" y="445" type="curve" smooth="yes"/>
      <point x="192" y="10" type="line" smooth="yes"/>
      <point x="192" y="-15"/>
      <point x="166" y="-36"/>
      <point x="141" y="-36" type="curve" smooth="yes"/>
      <point x="116" y="-36"/>
      <point x="90" y="-15"/>
      <point x="90" y="10" type="curve" smooth="yes"/>
      <point x="90" y="445" type="line" smooth="yes"/>
      <point x="90" y="544"/>
      <point x="132" y="611"/>
      <point x="281" y="619" type="curve" smooth="yes"/>
      <point x="306" y="620"/>
      <point x="329" y="600"/>
      <point x="330" y="576" type="curve" smooth="yes"/>
      <point x="331" y="551"/>
      <point x="311" y="528"/>
    </contour>
    <contour>
      <point x="48" y="415" type="curve" smooth="yes"/>
      <point x="286" y="415" type="line" smooth="yes"/>
      <point x="311" y="415"/>
      <point x="332" y="394"/>
      <point x="332" y="369" type="curve" smooth="yes"/>
      <point x="332" y="344"/>
      <point x="311" y="323"/>
      <point x="286" y="323" type="curve" smooth="yes"/>
      <point x="48" y="323" type="line" smooth="yes"/>
      <point x="23" y="323"/>
      <point x="2" y="344"/>
      <point x="2" y="369" type="curve" smooth="yes"/>
      <point x="2" y="394"/>
      <point x="23" y="415"/>
    </contour>
  </outline>
</glyph>
<glyph name="g" format="1">
  <advance width="528"/>
  <unicode hex="0067"/>
  <outline>
    <contour>
      <point x="393" y="297" type="curve" smooth="yes"/>
      <point x="346" y="320"/>
      <point x="314" y="332"/>
      <point x="263" y="332" type="curve" smooth="yes"/>
      <point x="192" y="332"/>
      <point x="129" y="273"/>
      <point x="129" y="189" type="curve" smooth="yes"/>
      <point x="129" y="117"/>
      <point x="174" y="78"/>
      <point x="227" y="78" type="curve" smooth="yes"/>
      <point x="282" y="78"/>
      <point x="335" y="112"/>
      <point x="371" y="170" type="curve" smooth="yes"/>
      <point x="385" y="191"/>
      <point x="416" y="196"/>
      <point x="437" y="183" type="curve" smooth="yes"/>
      <point x="458" y="170"/>
      <point x="466" y="139"/>
      <point x="453" y="118" type="curve" smooth="yes"/>
      <point x="395" y="28"/>
      <point x="310" y="-14"/>
      <point x="227" y="-14" type="curve" smooth="yes"/>
      <point x="130" y="-14"/>
      <point x="27" y="41"/>
      <point x="27" y="189" type="curve" smooth="yes"/>
      <point x="27" y="337"/>
      <point x="146" y="424"/>
      <point x="263" y="424" type="curve" smooth="yes"/>
      <point x="328" y="424"/>
      <point x="370" y="410"/>
      <point x="433" y="381" type="curve" smooth="yes"/>
      <point x="455" y="370"/>
      <point x="465" y="342"/>
      <point x="455" y="319" type="curve" smooth="yes"/>
      <point x="444" y="297"/>
      <point x="416" y="287"/>
    </contour>
    <contour>
      <point x="170" y="-125" type="curve" smooth="yes"/>
      <point x="306" y="-125"/>
      <point x="362" y="-47"/>
      <point x="362" y="67" type="curve" smooth="yes"/>
      <point x="362" y="378" type="line" smooth="yes"/>
      <point x="362" y="403"/>
      <point x="388" y="424"/>
      <point x="413" y="424" type="curve" smooth="yes"/>
      <point x="438" y="424"/>
      <point x="464" y="403"/>
      <point x="464" y="378" type="curve" smooth="yes"/>
      <point x="464" y="67" type="line" smooth="yes"/>
      <point x="464" y="-107"/>
      <point x="370" y="-217"/>
      <point x="170" y="-217" type="curve" smooth="yes"/>
      <point x="145" y="-217"/>
      <point x="124" y="-196"/>
      <point x="124" y="-171" type="curve" smooth="yes"/>
      <point x="124" y="-146"/>
      <point x="145" y="-125"/>
    </contour>
  </outline>
</glyph>
<glyph name="h" format="1">
  <advance width="522"/>
  <unicode hex="0068"/>
  <outline>
    <contour>
      <point x="65" y="10" type="curve" smooth="yes"/>
      <point x="65" y="547" type="line" smooth="yes"/>
      <point x="65" y="572"/>
      <point x="91" y="593"/>
      <point x="116" y="593" type="curve" smooth="yes"/>
      <point x="141" y="593"/>
      <point x="167" y="572"/>
      <point x="167" y="547" type="curve" smooth="yes"/>
      <point x="167" y="10" type="line" smooth="yes"/>
      <point x="167" y="-15"/>
      <point x="141" y="-36"/>
      <point x="116" y="-36" type="curve" smooth="yes"/>
      <point x="91" y="-36"/>
      <point x="65" y="-15"/>
    </contour>
    <contour>
      <point x="366" y="10" type="curve" smooth="yes"/>
      <point x="366" y="220" type="line" smooth="yes"/>
      <point x="366" y="282"/>
      <point x="345" y="323"/>
      <point x="299" y="323" type="curve" smooth="yes"/>
      <point x="244" y="323"/>
      <point x="194" y="286"/>
      <point x="153" y="245" type="curve" smooth="yes"/>
      <point x="136" y="227"/>
      <point x="105" y="228"/>
      <point x="87" y="245" type="curve" smooth="yes"/>
      <point x="70" y="263"/>
      <point x="69" y="294"/>
      <point x="87" y="311" type="curve" smooth="yes"/>
      <point x="146" y="370"/>
      <point x="222" y="415"/>
      <point x="299" y="415" type="curve" smooth="yes"/>
      <point x="387" y="415"/>
      <point x="468" y="378"/>
      <point x="468" y="220" type="curve" smooth="yes"/>
      <point x="468" y="10" type="line" smooth="yes"/>
      <point x="468" y="-15"/>
      <point x="442" y="-36"/>
      <point x="417" y="-36" type="curve" smooth="yes"/>
      <point x="392" y="-36"/>
      <point x="366" y="-15"/>
    </contour>
  </outline>
</glyph>
<glyph name="i" format="1">
  <advance width="244"/>
  <unicode hex="0069"/>
  <outline>
    <contour>
      <point x="122" y="633" type="curve" smooth="yes"/>
      <point x="154" y="633"/>
      <point x="192" y="611"/>
      <point x="192" y="559" type="curve" smooth="yes"/>
      <point x="192" y="509"/>
      <point x="154" y="488"/>
      <point x="123" y="488" type="curve" smooth="yes"/>
      <point x="86" y="488"/>
      <point x="52" y="513"/>
      <point x="52" y="559" type="curve"/>
      <point x="52" y="611"/>
      <point x="88" y="633"/>
    </contour>
    <contour>
      <point x="71" y="9" type="curve" smooth="yes"/>
      <point x="71" y="368" type="line" smooth="yes"/>
      <point x="71" y="393"/>
      <point x="97" y="414"/>
      <point x="122" y="414" type="curve" smooth="yes"/>
      <point x="147" y="414"/>
      <point x="173" y="393"/>
      <point x="173" y="368" type="curve" smooth="yes"/>
      <point x="173" y="9" type="line" smooth="yes"/>
      <point x="173" y="-16"/>
      <point x="147" y="-37"/>
      <point x="122" y="-37" type="curve" smooth="yes"/>
      <point x="97" y="-37"/>
      <point x="71" y="-16"/>
    </contour>
    <contour>
      <point x="122" y="541" type="curve" smooth="yes"/>
      <point x="130" y="541"/>
      <point x="154" y="535"/>
      <point x="154" y="559" type="curve" smooth="yes"/>
      <point x="154" y="579"/>
      <point x="134" y="580"/>
      <point x="123" y="580" type="curve" smooth="yes"/>
      <point x="114" y="580"/>
      <point x="90" y="583"/>
      <point x="90" y="559" type="curve" smooth="yes"/>
      <point x="90" y="535"/>
      <point x="114" y="541"/>
    </contour>
  </outline>
</glyph>
<glyph name="k" format="1">
  <advance width="492"/>
  <unicode hex="006B"/>
  <outline>
    <contour>
      <point x="65" y="10" type="curve" smooth="yes"/>
      <point x="65" y="547" type="line" smooth="yes"/>
      <point x="65" y="572"/>
      <point x="91" y="593"/>
      <point x="116" y="593" type="curve" smooth="yes"/>
      <point x="141" y="593"/>
      <point x="167" y="572"/>
      <point x="167" y="547" type="curve" smooth="yes"/>
      <point x="167" y="10" type="line" smooth="yes"/>
      <point x="167" y="-15"/>
      <point x="141" y="-36"/>
      <point x="116" y="-36" type="curve" smooth="yes"/>
      <point x="91" y="-36"/>
      <point x="65" y="-15"/>
    </contour>
    <contour>
      <point x="285" y="276" type="curve" smooth="yes"/>
      <point x="454" y="38" type="line" smooth="yes"/>
      <point x="468" y="17"/>
      <point x="462" y="-13"/>
      <point x="442" y="-28" type="curve" smooth="yes"/>
      <point x="421" y="-42"/>
      <point x="390" y="-38"/>
      <point x="376" y="-18" type="curve" smooth="yes"/>
      <point x="207" y="220" type="line" smooth="yes"/>
      <point x="193" y="241"/>
      <point x="199" y="271"/>
      <point x="219" y="286" type="curve" smooth="yes"/>
      <point x="240" y="300"/>
      <point x="271" y="296"/>
    </contour>
    <contour>
      <point x="430" y="332" type="curve" smooth="yes"/>
      <point x="147" y="110" type="line" smooth="yes"/>
      <point x="127" y="95"/>
      <point x="97" y="99"/>
      <point x="82" y="119" type="curve" smooth="yes"/>
      <point x="66" y="138"/>
      <point x="70" y="168"/>
      <point x="89" y="184" type="curve" smooth="yes"/>
      <point x="372" y="406" type="line" smooth="yes"/>
      <point x="392" y="421"/>
      <point x="422" y="417"/>
      <point x="437" y="397" type="curve" smooth="yes"/>
      <point x="453" y="378"/>
      <point x="449" y="348"/>
    </contour>
  </outline>
</glyph>
<glyph name="m" format="1">
  <advance width="790"/>
  <unicode hex="006D"/>
  <outline>
    <contour>
      <point x="65" y="14" type="curve" smooth="yes"/>
      <point x="65" y="374" type="line" smooth="yes"/>
      <point x="65" y="399"/>
      <point x="91" y="420"/>
      <point x="116" y="420" type="curve" smooth="yes"/>
      <point x="141" y="420"/>
      <point x="167" y="399"/>
      <point x="167" y="374" type="curve" smooth="yes"/>
      <point x="167" y="14" type="line" smooth="yes"/>
      <point x="167" y="-11"/>
      <point x="141" y="-32"/>
      <point x="116" y="-32" type="curve" smooth="yes"/>
      <point x="91" y="-32"/>
      <point x="65" y="-11"/>
    </contour>
    <contour>
      <point x="350" y="14" type="curve" smooth="yes"/>
      <point x="350" y="235" type="line" smooth="yes"/>
      <point x="350" y="295"/>
      <point x="330" y="328"/>
      <point x="287" y="328" type="curve" smooth="yes"/>
      <point x="238" y="328"/>
      <point x="190" y="290"/>
      <point x="153" y="249" type="curve" smooth="yes"/>
      <point x="137" y="230"/>
      <point x="106" y="229"/>
      <point x="88" y="246" type="curve" smooth="yes"/>
      <point x="69" y="262"/>
      <point x="66" y="293"/>
      <point x="83" y="311" type="curve" smooth="yes"/>
      <point x="138" y="374"/>
      <point x="216" y="420"/>
      <point x="287" y="420" type="curve" smooth="yes"/>
      <point x="372" y="420"/>
      <point x="452" y="391"/>
      <point x="452" y="235" type="curve" smooth="yes"/>
      <point x="452" y="14" type="line" smooth="yes"/>
      <point x="452" y="-11"/>
      <point x="426" y="-32"/>
      <point x="401" y="-32" type="curve" smooth="yes"/>
      <point x="376" y="-32"/>
      <point x="350" y="-11"/>
    </contour>
    <contour>
      <point x="634" y="14" type="curve" smooth="yes"/>
      <point x="634" y="235" type="line" smooth="yes"/>
      <point x="634" y="295"/>
      <point x="613" y="328"/>
      <point x="570" y="328" type="curve" smooth="yes"/>
      <point x="521" y="328"/>
      <point x="473" y="290"/>
      <point x="436" y="248" type="curve" smooth="yes"/>
      <point x="419" y="230"/>
      <point x="389" y="229"/>
      <point x="370" y="246" type="curve" smooth="yes"/>
      <point x="352" y="263"/>
      <point x="349" y="293"/>
      <point x="366" y="312" type="curve" smooth="yes"/>
      <point x="423" y="374"/>
      <point x="499" y="420"/>
      <point x="570" y="420" type="curve" smooth="yes"/>
      <point x="655" y="420"/>
      <point x="736" y="391"/>
      <point x="736" y="235" type="curve" smooth="yes"/>
      <point x="736" y="14" type="line" smooth="yes"/>
      <point x="736" y="-11"/>
      <point x="710" y="-32"/>
      <point x="685" y="-32" type="curve" smooth="yes"/>
      <point x="660" y="-32"/>
      <point x="634" y="-11"/>
    </contour>
  </outline>
</glyph>
<glyph name="n" format="1">
  <advance width="522"/>
  <unicode hex="006E"/>
  <outline>
    <contour>
      <point x="65" y="14" type="curve" smooth="yes"/>
      <point x="65" y="374" type="line" smooth="yes"/>
      <point x="65" y="399"/>
      <point x="91" y="420"/>
      <point x="116" y="420" type="curve" smooth="yes"/>
      <point x="141" y="420"/>
      <point x="167" y="399"/>
      <point x="167" y="374" type="curve" smooth="yes"/>
      <point x="167" y="14" type="line" smooth="yes"/>
      <point x="167" y="-11"/>
      <point x="141" y="-32"/>
      <point x="116" y="-32" type="curve" smooth="yes"/>
      <point x="91" y="-32"/>
      <point x="65" y="-11"/>
    </contour>
    <contour>
      <point x="366" y="14" type="curve" smooth="yes"/>
      <point x="366" y="224" type="line" smooth="yes"/>
      <point x="366" y="287"/>
      <point x="345" y="328"/>
      <point x="299" y="328" type="curve" smooth="yes"/>
      <point x="244" y="328"/>
      <point x="194" y="291"/>
      <point x="154" y="249" type="curve" smooth="yes"/>
      <point x="136" y="231"/>
      <point x="106" y="232"/>
      <point x="88" y="249" type="curve" smooth="yes"/>
      <point x="70" y="267"/>
      <point x="69" y="297"/>
      <point x="86" y="315" type="curve" smooth="yes"/>
      <point x="146" y="375"/>
      <point x="222" y="420"/>
      <point x="299" y="420" type="curve" smooth="yes"/>
      <point x="387" y="420"/>
      <point x="468" y="383"/>
      <point x="468" y="224" type="curve" smooth="yes"/>
      <point x="468" y="14" type="line" smooth="yes"/>
      <point x="468" y="-11"/>
      <point x="442" y="-32"/>
      <point x="417" y="-32" type="curve" smooth="yes"/>
      <point x="392" y="-32"/>
      <point x="366" y="-11"/>
    </contour>
  </outline>
</glyph>
<glyph name="o" format="1">
  <advance width="520"/>
  <unicode hex="006F"/>
  <outline>
    <contour>
      <point x="259" y="424" type="curve" smooth="yes"/>
      <point x="400" y="424"/>
      <point x="493" y="322"/>
      <point x="493" y="189" type="curve" smooth="yes"/>
      <point x="493" y="60"/>
      <point x="400" y="-36"/>
      <point x="259" y="-36" type="curve" smooth="yes"/>
      <point x="120" y="-36"/>
      <point x="26" y="60"/>
      <point x="26" y="191" type="curve" smooth="yes"/>
      <point x="26" y="322"/>
      <point x="118" y="424"/>
    </contour>
    <contour>
      <point x="259" y="332" type="curve" smooth="yes"/>
      <point x="174" y="332"/>
      <point x="128" y="264"/>
      <point x="128" y="191" type="curve"/>
      <point x="128" y="118"/>
      <point x="176" y="56"/>
      <point x="259" y="56" type="curve" smooth="yes"/>
      <point x="342" y="56"/>
      <point x="391" y="116"/>
      <point x="391" y="189" type="curve" smooth="yes"/>
      <point x="391" y="264"/>
      <point x="344" y="332"/>
    </contour>
  </outline>
</glyph>
<glyph name="p" format="1">
  <advance width="528"/>
  <unicode hex="0070"/>
  <outline>
    <contour>
      <point x="65" y="-181" type="curve" smooth="yes"/>
      <point x="65" y="378" type="line" smooth="yes"/>
      <point x="65" y="403"/>
      <point x="91" y="424"/>
      <point x="116" y="424" type="curve" smooth="yes"/>
      <point x="141" y="424"/>
      <point x="167" y="403"/>
      <point x="167" y="378" type="curve" smooth="yes"/>
      <point x="167" y="-181" type="line" smooth="yes"/>
      <point x="167" y="-206"/>
      <point x="141" y="-227"/>
      <point x="116" y="-227" type="curve" smooth="yes"/>
      <point x="91" y="-227"/>
      <point x="65" y="-206"/>
    </contour>
    <contour>
      <point x="145" y="122" type="curve" smooth="yes"/>
      <point x="185" y="90"/>
      <point x="232" y="65"/>
      <point x="278" y="65" type="curve" smooth="yes"/>
      <point x="355" y="65"/>
      <point x="401" y="127"/>
      <point x="401" y="199" type="curve" smooth="yes"/>
      <point x="401" y="278"/>
      <point x="354" y="332"/>
      <point x="291" y="332" type="curve" smooth="yes"/>
      <point x="236" y="332"/>
      <point x="193" y="290"/>
      <point x="156" y="239" type="curve" smooth="yes"/>
      <point x="142" y="218"/>
      <point x="111" y="214"/>
      <point x="91" y="228" type="curve" smooth="yes"/>
      <point x="70" y="243"/>
      <point x="64" y="273"/>
      <point x="78" y="293" type="curve" smooth="yes"/>
      <point x="135" y="376"/>
      <point x="210" y="424"/>
      <point x="291" y="424" type="curve" smooth="yes"/>
      <point x="398" y="424"/>
      <point x="503" y="352"/>
      <point x="503" y="199" type="curve" smooth="yes"/>
      <point x="503" y="67"/>
      <point x="407" y="-27"/>
      <point x="278" y="-27" type="curve" smooth="yes"/>
      <point x="212" y="-27"/>
      <point x="143" y="4"/>
      <point x="87" y="50" type="curve" smooth="yes"/>
      <point x="67" y="66"/>
      <point x="65" y="96"/>
      <point x="80" y="115" type="curve" smooth="yes"/>
      <point x="96" y="134"/>
      <point x="126" y="138"/>
    </contour>
  </outline>
</glyph>
<glyph name="q" format="1">
  <advance width="530"/>
  <unicode hex="0071"/>
  <outline>
    <contour>
      <point x="466" y="378" type="curve" smooth="yes"/>
      <point x="466" y="-181" type="line" smooth="yes"/>
      <point x="466" y="-206"/>
      <point x="440" y="-227"/>
      <point x="415" y="-227" type="curve" smooth="yes"/>
      <point x="390" y="-227"/>
      <point x="364" y="-206"/>
      <point x="364" y="-181" type="curve" smooth="yes"/>
      <point x="364" y="378" type="line" smooth="yes"/>
      <point x="364" y="403"/>
      <point x="390" y="424"/>
      <point x="415" y="424" type="curve" smooth="yes"/>
      <point x="440" y="424"/>
      <point x="466" y="403"/>
    </contour>
    <contour>
      <point x="390" y="296" type="curve" smooth="yes"/>
      <point x="354" y="320"/>
      <point x="314" y="332"/>
      <point x="264" y="332" type="curve" smooth="yes"/>
      <point x="188" y="332"/>
      <point x="129" y="272"/>
      <point x="129" y="183" type="curve" smooth="yes"/>
      <point x="129" y="114"/>
      <point x="175" y="65"/>
      <point x="233" y="65" type="curve" smooth="yes"/>
      <point x="286" y="65"/>
      <point x="336" y="99"/>
      <point x="373" y="158" type="curve" smooth="yes"/>
      <point x="386" y="180"/>
      <point x="417" y="185"/>
      <point x="438" y="172" type="curve" smooth="yes"/>
      <point x="459" y="159"/>
      <point x="468" y="129"/>
      <point x="455" y="108" type="curve" smooth="yes"/>
      <point x="396" y="13"/>
      <point x="314" y="-27"/>
      <point x="233" y="-27" type="curve" smooth="yes"/>
      <point x="131" y="-27"/>
      <point x="27" y="46"/>
      <point x="27" y="183" type="curve" smooth="yes"/>
      <point x="27" y="338"/>
      <point x="140" y="424"/>
      <point x="264" y="424" type="curve" smooth="yes"/>
      <point x="334" y="424"/>
      <point x="390" y="406"/>
      <point x="440" y="374" type="curve" smooth="yes"/>
      <point x="461" y="360"/>
      <point x="467" y="331"/>
      <point x="454" y="310" type="curve" smooth="yes"/>
      <point x="440" y="289"/>
      <point x="411" y="283"/>
    </contour>
  </outline>
</glyph>
<glyph name="r" format="1">
  <advance width="363"/>
  <unicode hex="0072"/>
  <outline>
    <contour>
      <point x="65" y="14" type="curve" smooth="yes"/>
      <point x="65" y="374" type="line" smooth="yes"/>
      <point x="65" y="399"/>
      <point x="91" y="420"/>
      <point x="116" y="420" type="curve" smooth="yes"/>
      <point x="141" y="420"/>
      <point x="167" y="399"/>
      <point x="167" y="374" type="curve" smooth="yes"/>
      <point x="167" y="14" type="line" smooth="yes"/>
      <point x="167" y="-11"/>
      <point x="141" y="-32"/>
      <point x="116" y="-32" type="curve" smooth="yes"/>
      <point x="91" y="-32"/>
      <point x="65" y="-11"/>
    </contour>
    <contour>
      <point x="76" y="262" type="curve" smooth="yes"/>
      <point x="134" y="352"/>
      <point x="205" y="406"/>
      <point x="311" y="420" type="curve" smooth="yes"/>
      <point x="336" y="423"/>
      <point x="359" y="405"/>
      <point x="363" y="380" type="curve" smooth="yes"/>
      <point x="366" y="355"/>
      <point x="348" y="332"/>
      <point x="323" y="328" type="curve" smooth="yes"/>
      <point x="245" y="318"/>
      <point x="198" y="274"/>
      <point x="158" y="210" type="curve" smooth="yes"/>
      <point x="144" y="189"/>
      <point x="113" y="184"/>
      <point x="92" y="197" type="curve" smooth="yes"/>
      <point x="71" y="211"/>
      <point x="63" y="241"/>
    </contour>
  </outline>
</glyph>
<glyph name="s" format="1">
  <advance width="473"/>
  <unicode hex="0073"/>
  <outline>
    <contour>
      <point x="342" y="316" type="curve" smooth="yes"/>
      <point x="314" y="324"/>
      <point x="278" y="331"/>
      <point x="238" y="331" type="curve" smooth="yes"/>
      <point x="192" y="331"/>
      <point x="155" y="316"/>
      <point x="155" y="289" type="curve" smooth="yes"/>
      <point x="155" y="265"/>
      <point x="192" y="256"/>
      <point x="234" y="252" type="curve" smooth="yes"/>
      <point x="277" y="247" type="line" smooth="yes"/>
      <point x="398" y="235"/>
      <point x="438" y="170"/>
      <point x="438" y="105" type="curve" smooth="yes"/>
      <point x="438" y="38"/>
      <point x="399" y="-36"/>
      <point x="245" y="-36" type="curve" smooth="yes"/>
      <point x="189" y="-36"/>
      <point x="131" y="-25"/>
      <point x="80" y="-2" type="curve" smooth="yes"/>
      <point x="57" y="8"/>
      <point x="46" y="36"/>
      <point x="56" y="58" type="curve" smooth="yes"/>
      <point x="66" y="81"/>
      <point x="94" y="92"/>
      <point x="116" y="82" type="curve" smooth="yes"/>
      <point x="157" y="65"/>
      <point x="201" y="56"/>
      <point x="245" y="56" type="curve" smooth="yes"/>
      <point x="299" y="56"/>
      <point x="336" y="74"/>
      <point x="336" y="105" type="curve" smooth="yes"/>
      <point x="336" y="132"/>
      <point x="310" y="151"/>
      <point x="267" y="155" type="curve" smooth="yes"/>
      <point x="226" y="160" type="line" smooth="yes"/>
      <point x="78" y="174"/>
      <point x="53" y="235"/>
      <point x="53" y="289" type="curve"/>
      <point x="53" y="348"/>
      <point x="90" y="423"/>
      <point x="238" y="423" type="curve" smooth="yes"/>
      <point x="286" y="423"/>
      <point x="330" y="414"/>
      <point x="364" y="406" type="curve" smooth="yes"/>
      <point x="389" y="399"/>
      <point x="404" y="374"/>
      <point x="398" y="350" type="curve" smooth="yes"/>
      <point x="391" y="325"/>
      <point x="366" y="310"/>
    </contour>
  </outline>
</glyph>
<glyph name="t" format="1">
  <advance width="372"/>
  <unicode hex="0074"/>
  <outline>
    <contour>
      <point x="192" y="503" type="curve" smooth="yes"/>
      <point x="192" y="134" type="line" smooth="yes"/>
      <point x="192" y="82"/>
      <point x="228" y="58"/>
      <point x="294" y="57" type="curve" smooth="yes"/>
      <point x="319" y="57"/>
      <point x="339" y="35"/>
      <point x="339" y="10" type="curve" smooth="yes"/>
      <point x="339" y="-15"/>
      <point x="317" y="-35"/>
      <point x="292" y="-35" type="curve" smooth="yes"/>
      <point x="146" y="-32"/>
      <point x="90" y="30"/>
      <point x="90" y="134" type="curve"/>
      <point x="90" y="503" type="line" smooth="yes"/>
      <point x="90" y="528"/>
      <point x="116" y="549"/>
      <point x="141" y="549" type="curve" smooth="yes"/>
      <point x="166" y="549"/>
      <point x="192" y="528"/>
    </contour>
    <contour>
      <point x="48" y="416" type="curve" smooth="yes"/>
      <point x="307" y="416" type="line" smooth="yes"/>
      <point x="332" y="416"/>
      <point x="353" y="395"/>
      <point x="353" y="370" type="curve" smooth="yes"/>
      <point x="353" y="345"/>
      <point x="332" y="324"/>
      <point x="307" y="324" type="curve" smooth="yes"/>
      <point x="48" y="324" type="line" smooth="yes"/>
      <point x="23" y="324"/>
      <point x="2" y="345"/>
      <point x="2" y="370" type="curve" smooth="yes"/>
      <point x="2" y="395"/>
      <point x="23" y="416"/>
    </contour>
  </outline>
</glyph>
<glyph name="u" format="1">
  <advance width="522"/>
  <unicode hex="0075"/>
  <outline>
    <contour>
      <point x="457" y="374" type="curve" smooth="yes"/>
      <point x="457" y="14" type="line" smooth="yes"/>
      <point x="457" y="-11"/>
      <point x="431" y="-32"/>
      <point x="406" y="-32" type="curve" smooth="yes"/>
      <point x="381" y="-32"/>
      <point x="355" y="-11"/>
      <point x="355" y="14" type="curve" smooth="yes"/>
      <point x="355" y="374" type="line" smooth="yes"/>
      <point x="355" y="399"/>
      <point x="381" y="420"/>
      <point x="406" y="420" type="curve" smooth="yes"/>
      <point x="431" y="420"/>
      <point x="457" y="399"/>
    </contour>
    <contour>
      <point x="156" y="374" type="curve" smooth="yes"/>
      <point x="156" y="164" type="line" smooth="yes"/>
      <point x="156" y="101"/>
      <point x="176" y="60"/>
      <point x="223" y="60" type="curve" smooth="yes"/>
      <point x="276" y="60"/>
      <point x="329" y="107"/>
      <point x="363" y="155" type="curve" smooth="yes"/>
      <point x="378" y="175"/>
      <point x="409" y="179"/>
      <point x="429" y="164" type="curve" smooth="yes"/>
      <point x="449" y="150"/>
      <point x="455" y="119"/>
      <point x="441" y="99" type="curve" smooth="yes"/>
      <point x="387" y="25"/>
      <point x="302" y="-32"/>
      <point x="223" y="-32" type="curve" smooth="yes"/>
      <point x="134" y="-32"/>
      <point x="54" y="5"/>
      <point x="54" y="164" type="curve"/>
      <point x="54" y="374" type="line" smooth="yes"/>
      <point x="54" y="399"/>
      <point x="80" y="420"/>
      <point x="105" y="420" type="curve" smooth="yes"/>
      <point x="130" y="420"/>
      <point x="156" y="399"/>
    </contour>
  </outline>
</glyph>
<glyph name="v" format="1">
  <advance width="474"/>
  <unicode hex="0076"/>
  <outline>
    <contour>
      <point x="112" y="392" type="curve" smooth="yes"/>
      <point x="173" y="234"/>
      <point x="227" y="124"/>
      <point x="281" y="35" type="curve"/>
      <point x="240" y="56" type="line"/>
      <point x="244" y="56" type="line"/>
      <point x="202" y="35" type="line"/>
      <point x="255" y="124"/>
      <point x="320" y="278"/>
      <point x="361" y="391" type="curve" smooth="yes"/>
      <point x="370" y="414"/>
      <point x="400" y="426"/>
      <point x="424" y="417" type="curve" smooth="yes"/>
      <point x="447" y="409"/>
      <point x="463" y="380"/>
      <point x="455" y="357" type="curve" smooth="yes"/>
      <point x="412" y="238"/>
      <point x="341" y="78"/>
      <point x="286" y="-15" type="curve" smooth="yes"/>
      <point x="279" y="-26"/>
      <point x="260" y="-36"/>
      <point x="244" y="-36" type="curve" smooth="yes"/>
      <point x="240" y="-36" type="line" smooth="yes"/>
      <point x="224" y="-36"/>
      <point x="206" y="-27"/>
      <point x="199" y="-15" type="curve" smooth="yes"/>
      <point x="143" y="78"/>
      <point x="83" y="192"/>
      <point x="20" y="356" type="curve" smooth="yes"/>
      <point x="11" y="379"/>
      <point x="26" y="408"/>
      <point x="49" y="417" type="curve" smooth="yes"/>
      <point x="73" y="426"/>
      <point x="103" y="415"/>
    </contour>
  </outline>
</glyph>
<glyph name="w" format="1">
  <advance width="734"/>
  <unicode hex="0077"/>
  <outline>
    <contour>
      <point x="125" y="386" type="curve" smooth="yes"/>
      <point x="163" y="250"/>
      <point x="211" y="121"/>
      <point x="253" y="32" type="curve"/>
      <point x="209" y="57" type="line"/>
      <point x="211" y="57" type="line"/>
      <point x="167" y="33" type="line"/>
      <point x="211" y="122"/>
      <point x="281" y="265"/>
      <point x="315" y="377" type="curve" smooth="yes"/>
      <point x="323" y="400"/>
      <point x="353" y="413"/>
      <point x="377" y="406" type="curve" smooth="yes"/>
      <point x="400" y="399"/>
      <point x="418" y="371"/>
      <point x="411" y="347" type="curve" smooth="yes"/>
      <point x="375" y="231"/>
      <point x="301" y="82"/>
      <point x="255" y="-11" type="curve" smooth="yes"/>
      <point x="248" y="-24"/>
      <point x="229" y="-35"/>
      <point x="211" y="-35" type="curve" smooth="yes"/>
      <point x="209" y="-35" type="line" smooth="yes"/>
      <point x="191" y="-35"/>
      <point x="171" y="-24"/>
      <point x="165" y="-10" type="curve" smooth="yes"/>
      <point x="121" y="83"/>
      <point x="69" y="216"/>
      <point x="29" y="360" type="curve" smooth="yes"/>
      <point x="22" y="383"/>
      <point x="41" y="411"/>
      <point x="65" y="417" type="curve" smooth="yes"/>
      <point x="89" y="424"/>
      <point x="119" y="410"/>
    </contour>
    <contour>
      <point x="418" y="378" type="curve" smooth="yes"/>
      <point x="466" y="241"/>
      <point x="520" y="122"/>
      <point x="567" y="33" type="curve"/>
      <point x="524" y="56" type="line"/>
      <point x="526" y="56" type="line"/>
      <point x="481" y="30" type="line"/>
      <point x="521" y="119"/>
      <point x="576" y="262"/>
      <point x="610" y="385" type="curve" smooth="yes"/>
      <point x="616" y="409"/>
      <point x="646" y="423"/>
      <point x="670" y="416" type="curve" smooth="yes"/>
      <point x="694" y="410"/>
      <point x="713" y="383"/>
      <point x="706" y="359" type="curve" smooth="yes"/>
      <point x="672" y="230"/>
      <point x="613" y="83"/>
      <point x="571" y="-10" type="curve" smooth="yes"/>
      <point x="564" y="-24"/>
      <point x="544" y="-36"/>
      <point x="526" y="-36" type="curve" smooth="yes"/>
      <point x="524" y="-36" type="line" smooth="yes"/>
      <point x="507" y="-36"/>
      <point x="488" y="-26"/>
      <point x="481" y="-13" type="curve" smooth="yes"/>
      <point x="432" y="80"/>
      <point x="374" y="203"/>
      <point x="324" y="346" type="curve" smooth="yes"/>
      <point x="316" y="369"/>
      <point x="332" y="397"/>
      <point x="356" y="405" type="curve" smooth="yes"/>
      <point x="379" y="414"/>
      <point x="410" y="402"/>
    </contour>
  </outline>
</glyph>
<glyph name="x" format="1">
  <advance width="469"/>
  <unicode hex="0078"/>
  <outline>
    <contour>
      <point x="30" y="45" type="curve" smooth="yes"/>
      <point x="98" y="123"/>
      <point x="263" y="301"/>
      <point x="345" y="404" type="curve" smooth="yes"/>
      <point x="360" y="423"/>
      <point x="391" y="425"/>
      <point x="411" y="410" type="curve" smooth="yes"/>
      <point x="430" y="395"/>
      <point x="435" y="364"/>
      <point x="419" y="344" type="curve" smooth="yes"/>
      <point x="337" y="241"/>
      <point x="170" y="61"/>
      <point x="102" y="-17" type="curve" smooth="yes"/>
      <point x="85" y="-36"/>
      <point x="54" y="-37"/>
      <point x="36" y="-21" type="curve" smooth="yes"/>
      <point x="17" y="-4"/>
      <point x="14" y="26"/>
    </contour>
    <contour>
      <point x="116" y="405" type="curve" smooth="yes"/>
      <point x="198" y="308"/>
      <point x="345" y="154"/>
      <point x="439" y="45" type="curve" smooth="yes"/>
      <point x="455" y="26"/>
      <point x="452" y="-5"/>
      <point x="433" y="-21" type="curve" smooth="yes"/>
      <point x="414" y="-37"/>
      <point x="383" y="-36"/>
      <point x="367" y="-17" type="curve" smooth="yes"/>
      <point x="273" y="92"/>
      <point x="126" y="246"/>
      <point x="44" y="343" type="curve" smooth="yes"/>
      <point x="28" y="362"/>
      <point x="31" y="393"/>
      <point x="50" y="409" type="curve" smooth="yes"/>
      <point x="69" y="425"/>
      <point x="100" y="424"/>
    </contour>
  </outline>
</glyph>
<glyph name="y" format="1">
  <advance width="473"/>
  <unicode hex="0079"/>
  <outline>
    <contour>
      <point x="43" y="-124" type="curve" smooth="yes"/>
      <point x="103" y="-89"/>
      <point x="156" y="-46"/>
      <point x="209" y="45" type="curve" smooth="yes"/>
      <point x="264" y="136"/>
      <point x="323" y="277"/>
      <point x="357" y="392" type="curve" smooth="yes"/>
      <point x="364" y="416"/>
      <point x="394" y="429"/>
      <point x="418" y="422" type="curve" smooth="yes"/>
      <point x="442" y="415"/>
      <point x="460" y="388"/>
      <point x="453" y="364" type="curve" smooth="yes"/>
      <point x="417" y="241"/>
      <point x="350" y="92"/>
      <point x="293" y="-5" type="curve" smooth="yes"/>
      <point x="228" y="-114"/>
      <point x="161" y="-163"/>
      <point x="89" y="-204" type="curve" smooth="yes"/>
      <point x="68" y="-216"/>
      <point x="39" y="-208"/>
      <point x="26" y="-187" type="curve" smooth="yes"/>
      <point x="14" y="-165"/>
      <point x="21" y="-136"/>
    </contour>
    <contour>
      <point x="115" y="396" type="curve" smooth="yes"/>
      <point x="170" y="239"/>
      <point x="236" y="127"/>
      <point x="288" y="46" type="curve" smooth="yes"/>
      <point x="302" y="25"/>
      <point x="294" y="-5"/>
      <point x="273" y="-19" type="curve" smooth="yes"/>
      <point x="252" y="-32"/>
      <point x="221" y="-27"/>
      <point x="208" y="-6" type="curve" smooth="yes"/>
      <point x="152" y="79"/>
      <point x="80" y="197"/>
      <point x="21" y="362" type="curve" smooth="yes"/>
      <point x="13" y="386"/>
      <point x="29" y="414"/>
      <point x="53" y="422" type="curve" smooth="yes"/>
      <point x="76" y="431"/>
      <point x="107" y="419"/>
    </contour>
  </outline>
</glyph>
<glyph name="z" format="1">
  <advance width="466"/>
  <unicode hex="007A"/>
  <outline>
    <contour>
      <point x="373" y="328" type="curve" smooth="yes"/>
      <point x="90" y="328" type="line" smooth="yes"/>
      <point x="65" y="328"/>
      <point x="44" y="349"/>
      <point x="44" y="374" type="curve" smooth="yes"/>
      <point x="44" y="399"/>
      <point x="65" y="420"/>
      <point x="90" y="420" type="curve" smooth="yes"/>
      <point x="373" y="420" type="line" smooth="yes"/>
      <point x="398" y="420"/>
      <point x="419" y="399"/>
      <point x="419" y="374" type="curve" smooth="yes"/>
      <point x="419" y="349"/>
      <point x="398" y="328"/>
    </contour>
    <contour>
      <point x="75" y="60" type="curve" smooth="yes"/>
      <point x="391" y="60" type="line" smooth="yes"/>
      <point x="416" y="60"/>
      <point x="437" y="39"/>
      <point x="437" y="14" type="curve" smooth="yes"/>
      <point x="437" y="-11"/>
      <point x="416" y="-32"/>
      <point x="391" y="-32" type="curve" smooth="yes"/>
      <point x="75" y="-32" type="line" smooth="yes"/>
      <point x="50" y="-32"/>
      <point x="29" y="-11"/>
      <point x="29" y="14" type="curve" smooth="yes"/>
      <point x="29" y="39"/>
      <point x="50" y="60"/>
    </contour>
    <contour>
      <point x="415" y="343" type="curve" smooth="yes"/>
      <point x="117" y="-8" type="line" smooth="yes"/>
      <point x="101" y="-27"/>
      <point x="70" y="-28"/>
      <point x="51" y="-12" type="curve" smooth="yes"/>
      <point x="32" y="4"/>
      <point x="29" y="35"/>
      <point x="45" y="54" type="curve" smooth="yes"/>
      <point x="343" y="405" type="line" smooth="yes"/>
      <point x="359" y="424"/>
      <point x="390" y="425"/>
      <point x="409" y="409" type="curve" smooth="yes"/>
      <point x="428" y="393"/>
      <point x="431" y="362"/>
    </contour>
  </outline>
</glyph>
<glyph name="braceleft" format="1">
  <advance width="433"/>
  <unicode hex="007B"/>
  <outline>
    <contour>
      <point x="326" y="574" type="curve" smooth="yes"/>
      <point x="305" y="574" type="line" smooth="yes"/>
      <point x="244" y="574"/>
      <point x="190" y="548"/>
      <point x="190" y="507" type="curve" smooth="yes"/>
      <point x="190" y="438"/>
      <point x="260" y="402"/>
      <point x="260" y="341" type="curve" smooth="yes"/>
      <point x="260" y="287"/>
      <point x="223" y="238"/>
      <point x="109" y="221" type="curve"/>
      <point x="153" y="266" type="line"/>
      <point x="153" y="260" type="line"/>
      <point x="109" y="305" type="line"/>
      <point x="223" y="288"/>
      <point x="260" y="239"/>
      <point x="260" y="185" type="curve" smooth="yes"/>
      <point x="260" y="124"/>
      <point x="190" y="88"/>
      <point x="190" y="19" type="curve" smooth="yes"/>
      <point x="190" y="-22"/>
      <point x="244" y="-48"/>
      <point x="305" y="-48" type="curve" smooth="yes"/>
      <point x="326" y="-48" type="line" smooth="yes"/>
      <point x="351" y="-48"/>
      <point x="372" y="-69"/>
      <point x="372" y="-94" type="curve" smooth="yes"/>
      <point x="372" y="-119"/>
      <point x="351" y="-140"/>
      <point x="326" y="-140" type="curve" smooth="yes"/>
      <point x="305" y="-140" type="line" smooth="yes"/>
      <point x="160" y="-140"/>
      <point x="88" y="-58"/>
      <point x="88" y="19" type="curve"/>
      <point x="88" y="88"/>
      <point x="158" y="124"/>
      <point x="158" y="185" type="curve" smooth="yes"/>
      <point x="158" y="207"/>
      <point x="123" y="210"/>
      <point x="95" y="215" type="curve" smooth="yes"/>
      <point x="71" y="218"/>
      <point x="51" y="239"/>
      <point x="51" y="260" type="curve"/>
      <point x="51" y="266" type="line"/>
      <point x="51" y="287"/>
      <point x="71" y="308"/>
      <point x="95" y="311" type="curve" smooth="yes"/>
      <point x="123" y="316"/>
      <point x="158" y="319"/>
      <point x="158" y="341" type="curve" smooth="yes"/>
      <point x="158" y="402"/>
      <point x="88" y="438"/>
      <point x="88" y="507" type="curve" smooth="yes"/>
      <point x="88" y="584"/>
      <point x="160" y="666"/>
      <point x="305" y="666" type="curve" smooth="yes"/>
      <point x="326" y="666" type="line" smooth="yes"/>
      <point x="351" y="666"/>
      <point x="372" y="645"/>
      <point x="372" y="620" type="curve" smooth="yes"/>
      <point x="372" y="595"/>
      <point x="351" y="574"/>
    </contour>
  </outline>
</glyph>
<glyph name="bar" format="1">
  <advance width="315.0"/>
  <unicode hex="007C"/>
  <outline>
    <contour>
      <point x="209" y="621" type="curve" smooth="yes"/>
      <point x="209" y="-95" type="line" smooth="yes"/>
      <point x="209" y="-120"/>
      <point x="183" y="-141"/>
      <point x="158" y="-141" type="curve" smooth="yes"/>
      <point x="133" y="-141"/>
      <point x="107" y="-120"/>
      <point x="107" y="-95" type="curve" smooth="yes"/>
      <point x="107" y="621" type="line" smooth="yes"/>
      <point x="107" y="646"/>
      <point x="133" y="667"/>
      <point x="158" y="667" type="curve" smooth="yes"/>
      <point x="183" y="667"/>
      <point x="209" y="646"/>
    </contour>
  </outline>
</glyph>
<glyph name="braceright" format="1">
  <advance width="433"/>
  <unicode hex="007D"/>
  <outline>
    <contour>
      <point x="107" y="666" type="curve" smooth="yes"/>
      <point x="128" y="666" type="line" smooth="yes"/>
      <point x="273" y="666"/>
      <point x="345" y="584"/>
      <point x="345" y="507" type="curve" smooth="yes"/>
      <point x="345" y="438"/>
      <point x="275" y="402"/>
      <point x="275" y="341" type="curve" smooth="yes"/>
      <point x="275" y="319"/>
      <point x="310" y="316"/>
      <point x="338" y="311" type="curve" smooth="yes"/>
      <point x="362" y="308"/>
      <point x="382" y="287"/>
      <point x="382" y="266" type="curve" smooth="yes"/>
      <point x="382" y="260" type="line" smooth="yes"/>
      <point x="382" y="239"/>
      <point x="362" y="218"/>
      <point x="338" y="215" type="curve" smooth="yes"/>
      <point x="310" y="210"/>
      <point x="275" y="207"/>
      <point x="275" y="185" type="curve" smooth="yes"/>
      <point x="275" y="124"/>
      <point x="345" y="88"/>
      <point x="345" y="19" type="curve" smooth="yes"/>
      <point x="345" y="-58"/>
      <point x="273" y="-140"/>
      <point x="128" y="-140" type="curve" smooth="yes"/>
      <point x="107" y="-140" type="line" smooth="yes"/>
      <point x="82" y="-140"/>
      <point x="61" y="-119"/>
      <point x="61" y="-94" type="curve" smooth="yes"/>
      <point x="61" y="-69"/>
      <point x="82" y="-48"/>
      <point x="107" y="-48" type="curve" smooth="yes"/>
      <point x="128" y="-48" type="line" smooth="yes"/>
      <point x="189" y="-48"/>
      <point x="243" y="-22"/>
      <point x="243" y="19" type="curve" smooth="yes"/>
      <point x="243" y="88"/>
      <point x="173" y="124"/>
      <point x="173" y="185" type="curve" smooth="yes"/>
      <point x="173" y="239"/>
      <point x="208" y="288"/>
      <point x="324" y="305" type="curve"/>
      <point x="280" y="260" type="line"/>
      <point x="280" y="266" type="line"/>
      <point x="324" y="221" type="line"/>
      <point x="208" y="238"/>
      <point x="173" y="287"/>
      <point x="173" y="341" type="curve" smooth="yes"/>
      <point x="173" y="402"/>
      <point x="243" y="438"/>
      <point x="243" y="507" type="curve" smooth="yes"/>
      <point x="243" y="548"/>
      <point x="189" y="574"/>
      <point x="128" y="574" type="curve" smooth="yes"/>
      <point x="107" y="574" type="line" smooth="yes"/>
      <point x="82" y="574"/>
      <point x="61" y="595"/>
      <point x="61" y="620" type="curve" smooth="yes"/>
      <point x="61" y="645"/>
      <point x="82" y="666"/>
    </contour>
  </outline>
</glyph>
<glyph name="asciitilde" format="1">
  <advance width="643"/>
  <unicode hex="007E"/>
  <outline>
    <contour>
      <point x="75" y="226" type="curve" smooth="yes"/>
      <point x="125" y="330"/>
      <point x="176" y="365"/>
      <point x="233" y="365" type="curve" smooth="yes"/>
      <point x="283" y="365"/>
      <point x="318" y="336"/>
      <point x="359" y="289" type="curve" smooth="yes"/>
      <point x="380" y="265"/>
      <point x="395" y="243"/>
      <point x="420" y="243" type="curve" smooth="yes"/>
      <point x="458" y="243"/>
      <point x="472" y="289"/>
      <point x="498" y="344" type="curve" smooth="yes"/>
      <point x="508" y="367"/>
      <point x="539" y="375"/>
      <point x="562" y="365" type="curve" smooth="yes"/>
      <point x="584" y="354"/>
      <point x="597" y="324"/>
      <point x="586" y="302" type="curve" smooth="yes"/>
      <point x="530" y="185"/>
      <point x="482" y="151"/>
      <point x="420" y="151" type="curve" smooth="yes"/>
      <point x="373" y="151"/>
      <point x="334" y="175"/>
      <point x="289" y="227" type="curve" smooth="yes"/>
      <point x="270" y="248"/>
      <point x="259" y="273"/>
      <point x="233" y="273" type="curve" smooth="yes"/>
      <point x="200" y="273"/>
      <point x="185" y="230"/>
      <point x="163" y="184" type="curve" smooth="yes"/>
      <point x="152" y="161"/>
      <point x="121" y="153"/>
      <point x="99" y="164" type="curve" smooth="yes"/>
      <point x="77" y="174"/>
      <point x="64" y="204"/>
    </contour>
  </outline>
</glyph>
<glyph name="exclamdown" format="1">
  <advance width="343"/>
  <unicode hex="00A1"/>
  <outline>
    <contour>
      <point x="170" y="535" type="curve" smooth="yes"/>
      <point x="163" y="535"/>
      <point x="141" y="540"/>
      <point x="141" y="520" type="curve" smooth="yes"/>
      <point x="141" y="494"/>
      <point x="163" y="504"/>
      <point x="171" y="504" type="curve" smooth="yes"/>
      <point x="177" y="504"/>
      <point x="200" y="496"/>
      <point x="200" y="520" type="curve" smooth="yes"/>
      <point x="200" y="541"/>
      <point x="178" y="535"/>
    </contour>
    <contour>
      <point x="221" y="292" type="curve" smooth="yes"/>
      <point x="228" y="0" type="line" smooth="yes"/>
      <point x="229" y="-25"/>
      <point x="203" y="-46"/>
      <point x="178" y="-47" type="curve" smooth="yes"/>
      <point x="153" y="-48"/>
      <point x="127" y="-27"/>
      <point x="126" y="-2" type="curve" smooth="yes"/>
      <point x="119" y="290" type="line" smooth="yes"/>
      <point x="118" y="315"/>
      <point x="144" y="336"/>
      <point x="169" y="337" type="curve" smooth="yes"/>
      <point x="194" y="338"/>
      <point x="220" y="317"/>
    </contour>
    <contour>
      <point x="170" y="443" type="curve" smooth="yes"/>
      <point x="130" y="443"/>
      <point x="98" y="469"/>
      <point x="98" y="520" type="curve" smooth="yes"/>
      <point x="98" y="580"/>
      <point x="141" y="596"/>
      <point x="171" y="596" type="curve" smooth="yes"/>
      <point x="209" y="596"/>
      <point x="243" y="582"/>
      <point x="243" y="520" type="curve" smooth="yes"/>
      <point x="243" y="470"/>
      <point x="207" y="443"/>
    </contour>
  </outline>
</glyph>
<glyph name="cent" format="1">
  <advance width="455"/>
  <unicode hex="00A2"/>
  <outline>
    <contour>
      <point x="302" y="519" type="curve" smooth="yes"/>
      <point x="302" y="11" type="line" smooth="yes"/>
      <point x="302" y="-14"/>
      <point x="276" y="-35"/>
      <point x="251" y="-35" type="curve" smooth="yes"/>
      <point x="226" y="-35"/>
      <point x="200" y="-14"/>
      <point x="200" y="11" type="curve" smooth="yes"/>
      <point x="200" y="519" type="line" smooth="yes"/>
      <point x="200" y="544"/>
      <point x="226" y="565"/>
      <point x="251" y="565" type="curve" smooth="yes"/>
      <point x="276" y="565"/>
      <point x="302" y="544"/>
    </contour>
    <contour>
      <point x="352" y="375" type="curve" smooth="yes"/>
      <point x="328" y="383"/>
      <point x="298" y="388"/>
      <point x="273" y="388" type="curve" smooth="yes"/>
      <point x="181" y="388"/>
      <point x="129" y="331"/>
      <point x="129" y="255" type="curve" smooth="yes"/>
      <point x="129" y="187"/>
      <point x="182" y="138"/>
      <point x="272" y="138" type="curve" smooth="yes"/>
      <point x="308" y="138"/>
      <point x="338" y="145"/>
      <point x="363" y="154" type="curve" smooth="yes"/>
      <point x="386" y="163"/>
      <point x="413" y="151"/>
      <point x="422" y="127" type="curve" smooth="yes"/>
      <point x="431" y="104"/>
      <point x="419" y="77"/>
      <point x="395" y="68" type="curve" smooth="yes"/>
      <point x="362" y="55"/>
      <point x="322" y="46"/>
      <point x="272" y="46" type="curve" smooth="yes"/>
      <point x="112" y="46"/>
      <point x="27" y="139"/>
      <point x="27" y="255" type="curve" smooth="yes"/>
      <point x="27" y="385"/>
      <point x="117" y="480"/>
      <point x="273" y="480" type="curve" smooth="yes"/>
      <point x="308" y="480"/>
      <point x="348" y="473"/>
      <point x="380" y="463" type="curve" smooth="yes"/>
      <point x="404" y="455"/>
      <point x="417" y="429"/>
      <point x="410" y="405" type="curve" smooth="yes"/>
      <point x="402" y="381"/>
      <point x="376" y="368"/>
    </contour>
  </outline>
</glyph>
<glyph name="sterling" format="1">
  <advance width="479"/>
  <unicode hex="00A3"/>
  <outline>
    <contour>
      <point x="38" y="54" type="curve" smooth="yes"/>
      <point x="119" y="128" type="line" smooth="yes"/>
      <point x="139" y="146"/>
      <point x="152" y="167"/>
      <point x="152" y="186" type="curve" smooth="yes"/>
      <point x="152" y="204"/>
      <point x="143" y="227"/>
      <point x="126" y="246" type="curve" smooth="yes"/>
      <point x="77" y="306"/>
      <point x="46" y="348"/>
      <point x="46" y="411" type="curve" smooth="yes"/>
      <point x="46" y="495"/>
      <point x="110" y="575"/>
      <point x="225" y="575" type="curve" smooth="yes"/>
      <point x="282" y="575"/>
      <point x="334" y="559"/>
      <point x="378" y="531" type="curve" smooth="yes"/>
      <point x="399" y="518"/>
      <point x="406" y="489"/>
      <point x="393" y="468" type="curve" smooth="yes"/>
      <point x="380" y="447"/>
      <point x="351" y="440"/>
      <point x="330" y="453" type="curve" smooth="yes"/>
      <point x="300" y="471"/>
      <point x="264" y="483"/>
      <point x="225" y="483" type="curve" smooth="yes"/>
      <point x="174" y="483"/>
      <point x="148" y="447"/>
      <point x="148" y="411" type="curve" smooth="yes"/>
      <point x="148" y="372"/>
      <point x="167" y="344"/>
      <point x="198" y="308" type="curve" smooth="yes"/>
      <point x="231" y="269"/>
      <point x="254" y="222"/>
      <point x="254" y="186" type="curve" smooth="yes"/>
      <point x="254" y="145"/>
      <point x="223" y="96"/>
      <point x="181" y="60" type="curve" smooth="yes"/>
      <point x="100" y="-14" type="line" smooth="yes"/>
      <point x="82" y="-31"/>
      <point x="52" y="-29"/>
      <point x="35" y="-11" type="curve" smooth="yes"/>
      <point x="18" y="7"/>
      <point x="19" y="38"/>
    </contour>
    <contour>
      <point x="389" y="-35" type="curve" smooth="yes"/>
      <point x="59" y="-35" type="line" smooth="yes"/>
      <point x="34" y="-35"/>
      <point x="13" y="-14"/>
      <point x="13" y="11" type="curve" smooth="yes"/>
      <point x="13" y="36"/>
      <point x="34" y="57"/>
      <point x="59" y="57" type="curve" smooth="yes"/>
      <point x="389" y="57" type="line" smooth="yes"/>
      <point x="414" y="57"/>
      <point x="435" y="36"/>
      <point x="435" y="11" type="curve" smooth="yes"/>
      <point x="435" y="-14"/>
      <point x="414" y="-35"/>
    </contour>
    <contour>
      <point x="65" y="293" type="curve" smooth="yes"/>
      <point x="379" y="293" type="line" smooth="yes"/>
      <point x="404" y="293"/>
      <point x="425" y="272"/>
      <point x="425" y="247" type="curve" smooth="yes"/>
      <point x="425" y="222"/>
      <point x="404" y="201"/>
      <point x="379" y="201" type="curve" smooth="yes"/>
      <point x="65" y="201" type="line" smooth="yes"/>
      <point x="40" y="201"/>
      <point x="19" y="222"/>
      <point x="19" y="247" type="curve" smooth="yes"/>
      <point x="19" y="272"/>
      <point x="40" y="293"/>
    </contour>
  </outline>
</glyph>
<glyph name="currency" format="1">
  <advance width="547"/>
  <unicode hex="00A4"/>
  <outline>
    <contour>
      <point x="273" y="440" type="curve" smooth="yes"/>
      <point x="402" y="440"/>
      <point x="490" y="345"/>
      <point x="490" y="222" type="curve" smooth="yes"/>
      <point x="490" y="103"/>
      <point x="403" y="14"/>
      <point x="273" y="14" type="curve" smooth="yes"/>
      <point x="144" y="14"/>
      <point x="56" y="104"/>
      <point x="56" y="224" type="curve"/>
      <point x="56" y="344"/>
      <point x="142" y="440"/>
    </contour>
    <contour>
      <point x="273" y="348" type="curve" smooth="yes"/>
      <point x="198" y="348"/>
      <point x="158" y="288"/>
      <point x="158" y="224" type="curve" smooth="yes"/>
      <point x="158" y="160"/>
      <point x="200" y="106"/>
      <point x="273" y="106" type="curve" smooth="yes"/>
      <point x="345" y="106"/>
      <point x="388" y="159"/>
      <point x="388" y="222" type="curve" smooth="yes"/>
      <point x="388" y="287"/>
      <point x="348" y="348"/>
    </contour>
    <contour>
      <point x="431" y="-18" type="curve" smooth="yes"/>
      <point x="357" y="64" type="line" smooth="yes"/>
      <point x="340" y="83"/>
      <point x="343" y="114"/>
      <point x="361" y="130" type="curve" smooth="yes"/>
      <point x="380" y="147"/>
      <point x="410" y="146"/>
      <point x="427" y="128" type="curve" smooth="yes"/>
      <point x="501" y="46" type="line" smooth="yes"/>
      <point x="518" y="27"/>
      <point x="515" y="-4"/>
      <point x="497" y="-20" type="curve" smooth="yes"/>
      <point x="478" y="-37"/>
      <point x="448" y="-36"/>
    </contour>
    <contour>
      <point x="119" y="323" type="curve" smooth="yes"/>
      <point x="51" y="398" type="line" smooth="yes"/>
      <point x="34" y="417"/>
      <point x="37" y="447"/>
      <point x="55" y="464" type="curve" smooth="yes"/>
      <point x="74" y="481"/>
      <point x="104" y="480"/>
      <point x="121" y="462" type="curve" smooth="yes"/>
      <point x="189" y="387" type="line" smooth="yes"/>
      <point x="206" y="368"/>
      <point x="203" y="338"/>
      <point x="185" y="321" type="curve" smooth="yes"/>
      <point x="166" y="304"/>
      <point x="136" y="305"/>
    </contour>
    <contour>
      <point x="357" y="387" type="curve" smooth="yes"/>
      <point x="425" y="463" type="line" smooth="yes"/>
      <point x="441" y="482"/>
      <point x="472" y="483"/>
      <point x="491" y="466" type="curve" smooth="yes"/>
      <point x="509" y="450"/>
      <point x="512" y="419"/>
      <point x="495" y="401" type="curve" smooth="yes"/>
      <point x="427" y="325" type="line" smooth="yes"/>
      <point x="411" y="306"/>
      <point x="380" y="305"/>
      <point x="361" y="322" type="curve" smooth="yes"/>
      <point x="343" y="338"/>
      <point x="340" y="369"/>
    </contour>
    <contour>
      <point x="46" y="46" type="curve" smooth="yes"/>
      <point x="117" y="125" type="line" smooth="yes"/>
      <point x="134" y="143"/>
      <point x="164" y="144"/>
      <point x="183" y="127" type="curve" smooth="yes"/>
      <point x="201" y="111"/>
      <point x="204" y="80"/>
      <point x="187" y="61" type="curve" smooth="yes"/>
      <point x="116" y="-18" type="line" smooth="yes"/>
      <point x="99" y="-36"/>
      <point x="69" y="-37"/>
      <point x="50" y="-20" type="curve" smooth="yes"/>
      <point x="32" y="-4"/>
      <point x="29" y="27"/>
    </contour>
  </outline>
</glyph>
<glyph name="yen" format="1">
  <advance width="588.0"/>
  <unicode hex="00A5"/>
  <outline>
    <contour>
      <point x="353" y="265" type="curve" smooth="yes"/>
      <point x="353" y="11" type="line" smooth="yes"/>
      <point x="353" y="-14"/>
      <point x="327" y="-35"/>
      <point x="302" y="-35" type="curve" smooth="yes"/>
      <point x="277" y="-35"/>
      <point x="251" y="-14"/>
      <point x="251" y="11" type="curve" smooth="yes"/>
      <point x="251" y="265" type="line" smooth="yes"/>
      <point x="251" y="290"/>
      <point x="277" y="311"/>
      <point x="302" y="311" type="curve" smooth="yes"/>
      <point x="327" y="311"/>
      <point x="353" y="290"/>
    </contour>
    <contour>
      <point x="137" y="547" type="curve" smooth="yes"/>
      <point x="187" y="477"/>
      <point x="293" y="353"/>
      <point x="332" y="316" type="curve" smooth="yes"/>
      <point x="349" y="298"/>
      <point x="349" y="268"/>
      <point x="332" y="250" type="curve" smooth="yes"/>
      <point x="315" y="232"/>
      <point x="284" y="231"/>
      <point x="266" y="248" type="curve" smooth="yes"/>
      <point x="225" y="289"/>
      <point x="111" y="417"/>
      <point x="59" y="493" type="curve" smooth="yes"/>
      <point x="45" y="513"/>
      <point x="51" y="543"/>
      <point x="72" y="558" type="curve" smooth="yes"/>
      <point x="92" y="572"/>
      <point x="123" y="568"/>
    </contour>
    <contour>
      <point x="269" y="304" type="curve" smooth="yes"/>
      <point x="321" y="356"/>
      <point x="414" y="477"/>
      <point x="464" y="548" type="curve" smooth="yes"/>
      <point x="478" y="568"/>
      <point x="509" y="572"/>
      <point x="530" y="558" type="curve" smooth="yes"/>
      <point x="550" y="543"/>
      <point x="556" y="513"/>
      <point x="542" y="492" type="curve" smooth="yes"/>
      <point x="490" y="419"/>
      <point x="389" y="292"/>
      <point x="335" y="238" type="curve" smooth="yes"/>
      <point x="318" y="220"/>
      <point x="287" y="221"/>
      <point x="269" y="238" type="curve" smooth="yes"/>
      <point x="252" y="256"/>
      <point x="251" y="287"/>
    </contour>
    <contour>
      <point x="119" y="313" type="curve" smooth="yes"/>
      <point x="484" y="313" type="line" smooth="yes"/>
      <point x="509" y="313"/>
      <point x="530" y="292"/>
      <point x="530" y="267" type="curve" smooth="yes"/>
      <point x="530" y="242"/>
      <point x="509" y="221"/>
      <point x="484" y="221" type="curve" smooth="yes"/>
      <point x="119" y="221" type="line" smooth="yes"/>
      <point x="94" y="221"/>
      <point x="73" y="242"/>
      <point x="73" y="267" type="curve" smooth="yes"/>
      <point x="73" y="292"/>
      <point x="94" y="313"/>
    </contour>
    <contour>
      <point x="119" y="164" type="curve" smooth="yes"/>
      <point x="484" y="164" type="line" smooth="yes"/>
      <point x="509" y="164"/>
      <point x="530" y="143"/>
      <point x="530" y="118" type="curve" smooth="yes"/>
      <point x="530" y="93"/>
      <point x="509" y="72"/>
      <point x="484" y="72" type="curve" smooth="yes"/>
      <point x="119" y="72" type="line" smooth="yes"/>
      <point x="94" y="72"/>
      <point x="73" y="93"/>
      <point x="73" y="118" type="curve" smooth="yes"/>
      <point x="73" y="143"/>
      <point x="94" y="164"/>
    </contour>
  </outline>
</glyph>
<glyph name="brokenbar" format="1">
  <advance width="315.0"/>
  <unicode hex="00A6"/>
  <outline>
    <contour>
      <point x="209" y="145" type="curve" smooth="yes"/>
      <point x="209" y="-93" type="line" smooth="yes"/>
      <point x="209" y="-118"/>
      <point x="183" y="-139"/>
      <point x="158" y="-139" type="curve" smooth="yes"/>
      <point x="133" y="-139"/>
      <point x="107" y="-118"/>
      <point x="107" y="-93" type="curve" smooth="yes"/>
      <point x="107" y="145" type="line" smooth="yes"/>
      <point x="107" y="170"/>
      <point x="133" y="191"/>
      <point x="158" y="191" type="curve" smooth="yes"/>
      <point x="183" y="191"/>
      <point x="209" y="170"/>
    </contour>
    <contour>
      <point x="209" y="550" type="curve" smooth="yes"/>
      <point x="209" y="312" type="line" smooth="yes"/>
      <point x="209" y="287"/>
      <point x="183" y="266"/>
      <point x="158" y="266" type="curve" smooth="yes"/>
      <point x="133" y="266"/>
      <point x="107" y="287"/>
      <point x="107" y="312" type="curve" smooth="yes"/>
      <point x="107" y="550" type="line" smooth="yes"/>
      <point x="107" y="575"/>
      <point x="133" y="596"/>
      <point x="158" y="596" type="curve" smooth="yes"/>
      <point x="183" y="596"/>
      <point x="209" y="575"/>
    </contour>
  </outline>
</glyph>
<glyph name="section" format="1">
  <advance width="551"/>
  <unicode hex="00A7"/>
  <outline>
    <contour>
      <point x="399" y="460" type="curve" smooth="yes"/>
      <point x="353" y="475"/>
      <point x="322" y="483"/>
      <point x="255" y="483" type="curve" smooth="yes"/>
      <point x="211" y="483"/>
      <point x="163" y="469"/>
      <point x="163" y="439" type="curve" smooth="yes"/>
      <point x="163" y="408"/>
      <point x="200" y="384"/>
      <point x="284" y="371" type="curve"/>
      <point x="460" y="336"/>
      <point x="499" y="270"/>
      <point x="499" y="201" type="curve" smooth="yes"/>
      <point x="499" y="128"/>
      <point x="451" y="54"/>
      <point x="276" y="54" type="curve" smooth="yes"/>
      <point x="251" y="54"/>
      <point x="230" y="75"/>
      <point x="230" y="100" type="curve" smooth="yes"/>
      <point x="230" y="125"/>
      <point x="251" y="146"/>
      <point x="276" y="146" type="curve" smooth="yes"/>
      <point x="341" y="146"/>
      <point x="397" y="162"/>
      <point x="397" y="201" type="curve" smooth="yes"/>
      <point x="397" y="242"/>
      <point x="350" y="264"/>
      <point x="270" y="281" type="curve"/>
      <point x="74" y="310"/>
      <point x="61" y="384"/>
      <point x="61" y="439" type="curve"/>
      <point x="61" y="501"/>
      <point x="121" y="575"/>
      <point x="255" y="575" type="curve" smooth="yes"/>
      <point x="334" y="575"/>
      <point x="373" y="565"/>
      <point x="427" y="548" type="curve" smooth="yes"/>
      <point x="451" y="540"/>
      <point x="464" y="514"/>
      <point x="457" y="490" type="curve" smooth="yes"/>
      <point x="449" y="466"/>
      <point x="423" y="453"/>
    </contour>
    <contour>
      <point x="245" y="281" type="curve" smooth="yes"/>
      <point x="194" y="281"/>
      <point x="153" y="263"/>
      <point x="153" y="222" type="curve" smooth="yes"/>
      <point x="153" y="188"/>
      <point x="186" y="160"/>
      <point x="275" y="145" type="curve" smooth="yes"/>
      <point x="456" y="114"/>
      <point x="489" y="62"/>
      <point x="489" y="-9" type="curve" smooth="yes"/>
      <point x="489" y="-82"/>
      <point x="437" y="-161"/>
      <point x="266" y="-161" type="curve" smooth="yes"/>
      <point x="196" y="-161"/>
      <point x="130" y="-149"/>
      <point x="69" y="-121" type="curve" smooth="yes"/>
      <point x="46" y="-111"/>
      <point x="36" y="-83"/>
      <point x="46" y="-60" type="curve" smooth="yes"/>
      <point x="56" y="-37"/>
      <point x="84" y="-27"/>
      <point x="107" y="-37" type="curve" smooth="yes"/>
      <point x="156" y="-59"/>
      <point x="210" y="-69"/>
      <point x="266" y="-69" type="curve" smooth="yes"/>
      <point x="333" y="-69"/>
      <point x="387" y="-48"/>
      <point x="387" y="-9" type="curve" smooth="yes"/>
      <point x="387" y="32"/>
      <point x="334" y="42"/>
      <point x="259" y="55" type="curve" smooth="yes"/>
      <point x="66" y="88"/>
      <point x="51" y="162"/>
      <point x="51" y="222" type="curve"/>
      <point x="51" y="309"/>
      <point x="116" y="373"/>
      <point x="245" y="373" type="curve" smooth="yes"/>
      <point x="270" y="373"/>
      <point x="291" y="352"/>
      <point x="291" y="327" type="curve" smooth="yes"/>
      <point x="291" y="302"/>
      <point x="270" y="281"/>
    </contour>
  </outline>
</glyph>
<glyph name="dieresis" format="1">
  <advance width="515"/>
  <unicode hex="00A8"/>
  <outline>
    <contour>
      <point x="158" y="614" type="curve" smooth="yes"/>
      <point x="185" y="614"/>
      <point x="225" y="600"/>
      <point x="225" y="541" type="curve" smooth="yes"/>
      <point x="225" y="482"/>
      <point x="186" y="470"/>
      <point x="158" y="470" type="curve" smooth="yes"/>
      <point x="124" y="470"/>
      <point x="89" y="487"/>
      <point x="89" y="541" type="curve"/>
      <point x="89" y="595"/>
      <point x="126" y="614"/>
    </contour>
    <contour>
      <point x="344" y="614" type="curve" smooth="yes"/>
      <point x="374" y="614"/>
      <point x="412" y="597"/>
      <point x="412" y="541" type="curve" smooth="yes"/>
      <point x="412" y="485"/>
      <point x="375" y="470"/>
      <point x="344" y="470" type="curve" smooth="yes"/>
      <point x="313" y="470"/>
      <point x="276" y="485"/>
      <point x="276" y="541" type="curve" smooth="yes"/>
      <point x="276" y="597"/>
      <point x="314" y="614"/>
    </contour>
    <contour>
      <point x="158" y="522" type="curve" smooth="yes"/>
      <point x="166" y="522"/>
      <point x="191" y="515"/>
      <point x="191" y="541" type="curve" smooth="yes"/>
      <point x="191" y="567"/>
      <point x="168" y="562"/>
      <point x="158" y="562" type="curve" smooth="yes"/>
      <point x="150" y="562"/>
      <point x="123" y="572"/>
      <point x="123" y="541" type="curve"/>
      <point x="123" y="510"/>
      <point x="151" y="522"/>
    </contour>
    <contour>
      <point x="344" y="522" type="curve" smooth="yes"/>
      <point x="352" y="522"/>
      <point x="378" y="513"/>
      <point x="378" y="541" type="curve" smooth="yes"/>
      <point x="378" y="569"/>
      <point x="353" y="562"/>
      <point x="344" y="562" type="curve" smooth="yes"/>
      <point x="335" y="562"/>
      <point x="310" y="569"/>
      <point x="310" y="541" type="curve" smooth="yes"/>
      <point x="310" y="513"/>
      <point x="336" y="522"/>
    </contour>
  </outline>
</glyph>
<glyph name="copyright" format="1">
  <advance width="686"/>
  <unicode hex="00A9"/>
  <outline>
    <contour>
      <point x="345" y="576" type="curve" smooth="yes"/>
      <point x="516" y="576"/>
      <point x="659" y="450"/>
      <point x="659" y="265" type="curve" smooth="yes"/>
      <point x="659" y="88"/>
      <point x="540" y="-45"/>
      <point x="345" y="-45" type="curve" smooth="yes"/>
      <point x="160" y="-45"/>
      <point x="27" y="89"/>
      <point x="27" y="262" type="curve" smooth="yes"/>
      <point x="27" y="450"/>
      <point x="158" y="576"/>
    </contour>
    <contour>
      <point x="404" y="345" type="curve" smooth="yes"/>
      <point x="391" y="351"/>
      <point x="373" y="357"/>
      <point x="352" y="357" type="curve" smooth="yes"/>
      <point x="304" y="357"/>
      <point x="267" y="315"/>
      <point x="267" y="264" type="curve" smooth="yes"/>
      <point x="267" y="215"/>
      <point x="297" y="174"/>
      <point x="355" y="174" type="curve" smooth="yes"/>
      <point x="375" y="174"/>
      <point x="393" y="179"/>
      <point x="407" y="186" type="curve" smooth="yes"/>
      <point x="430" y="197"/>
      <point x="458" y="188"/>
      <point x="469" y="166" type="curve" smooth="yes"/>
      <point x="480" y="143"/>
      <point x="471" y="115"/>
      <point x="449" y="104" type="curve" smooth="yes"/>
      <point x="423" y="91"/>
      <point x="391" y="82"/>
      <point x="355" y="82" type="curve" smooth="yes"/>
      <point x="239" y="82"/>
      <point x="165" y="159"/>
      <point x="165" y="264" type="curve" smooth="yes"/>
      <point x="165" y="377"/>
      <point x="256" y="449"/>
      <point x="352" y="449" type="curve" smooth="yes"/>
      <point x="389" y="449"/>
      <point x="423" y="439"/>
      <point x="446" y="427" type="curve" smooth="yes"/>
      <point x="468" y="416"/>
      <point x="477" y="388"/>
      <point x="466" y="365" type="curve" smooth="yes"/>
      <point x="455" y="343"/>
      <point x="427" y="334"/>
    </contour>
    <contour>
      <point x="345" y="484" type="curve" smooth="yes"/>
      <point x="212" y="484"/>
      <point x="129" y="390"/>
      <point x="129" y="262" type="curve" smooth="yes"/>
      <point x="129" y="145"/>
      <point x="216" y="47"/>
      <point x="345" y="47" type="curve" smooth="yes"/>
      <point x="482" y="47"/>
      <point x="557" y="146"/>
      <point x="557" y="265" type="curve" smooth="yes"/>
      <point x="557" y="390"/>
      <point x="466" y="484"/>
    </contour>
  </outline>
</glyph>
<glyph name="ordfeminine" format="1">
  <advance width="466"/>
  <unicode hex="00AA"/>
  <outline>
    <contour>
      <point x="103" y="201" type="curve" smooth="yes"/>
      <point x="374" y="201" type="line" smooth="yes"/>
      <point x="399" y="201"/>
      <point x="420" y="180"/>
      <point x="420" y="155" type="curve" smooth="yes"/>
      <point x="420" y="130"/>
      <point x="399" y="109"/>
      <point x="374" y="109" type="curve" smooth="yes"/>
      <point x="103" y="109" type="line" smooth="yes"/>
      <point x="78" y="109"/>
      <point x="57" y="130"/>
      <point x="57" y="155" type="curve" smooth="yes"/>
      <point x="57" y="180"/>
      <point x="78" y="201"/>
    </contour>
    <contour>
      <point x="139" y="548" type="curve" smooth="yes"/>
      <point x="159" y="554"/>
      <point x="190" y="562"/>
      <point x="219" y="562" type="curve" smooth="yes"/>
      <point x="317" y="562"/>
      <point x="367" y="506"/>
      <point x="367" y="418" type="curve" smooth="yes"/>
      <point x="367" y="355" type="line" smooth="yes"/>
      <point x="367" y="334"/>
      <point x="366" y="318"/>
      <point x="376" y="306" type="curve" smooth="yes"/>
      <point x="393" y="288"/>
      <point x="390" y="257"/>
      <point x="372" y="241" type="curve" smooth="yes"/>
      <point x="353" y="224"/>
      <point x="322" y="225"/>
      <point x="306" y="244" type="curve" smooth="yes"/>
      <point x="282" y="270"/>
      <point x="265" y="300"/>
      <point x="265" y="355" type="curve" smooth="yes"/>
      <point x="265" y="418" type="line" smooth="yes"/>
      <point x="265" y="446"/>
      <point x="255" y="470"/>
      <point x="219" y="470" type="curve" smooth="yes"/>
      <point x="200" y="470"/>
      <point x="179" y="464"/>
      <point x="167" y="460" type="curve" smooth="yes"/>
      <point x="143" y="453"/>
      <point x="117" y="467"/>
      <point x="109" y="490" type="curve" smooth="yes"/>
      <point x="102" y="514"/>
      <point x="116" y="541"/>
    </contour>
    <contour>
      <point x="312" y="365" type="curve" smooth="yes"/>
      <point x="289" y="366"/>
      <point x="268" y="368"/>
      <point x="248" y="368" type="curve" smooth="yes"/>
      <point x="210" y="368"/>
      <point x="186" y="359"/>
      <point x="170" y="345" type="curve"/>
      <point x="168" y="342"/>
      <point x="171" y="337"/>
      <point x="171" y="332" type="curve" smooth="yes"/>
      <point x="171" y="326"/>
      <point x="179" y="321"/>
      <point x="188" y="321" type="curve" smooth="yes"/>
      <point x="227" y="321"/>
      <point x="253" y="338"/>
      <point x="278" y="370" type="curve" smooth="yes"/>
      <point x="293" y="390"/>
      <point x="324" y="394"/>
      <point x="343" y="379" type="curve" smooth="yes"/>
      <point x="363" y="364"/>
      <point x="369" y="333"/>
      <point x="354" y="314" type="curve" smooth="yes"/>
      <point x="309" y="252"/>
      <point x="259" y="229"/>
      <point x="188" y="229" type="curve" smooth="yes"/>
      <point x="99" y="229"/>
      <point x="69" y="288"/>
      <point x="69" y="332" type="curve"/>
      <point x="69" y="365"/>
      <point x="80" y="388"/>
      <point x="108" y="415" type="curve"/>
      <point x="138" y="441"/>
      <point x="180" y="460"/>
      <point x="248" y="460" type="curve" smooth="yes"/>
      <point x="270" y="460"/>
      <point x="291" y="458"/>
      <point x="316" y="457" type="curve" smooth="yes"/>
      <point x="341" y="456"/>
      <point x="361" y="434"/>
      <point x="360" y="409" type="curve" smooth="yes"/>
      <point x="359" y="384"/>
      <point x="337" y="364"/>
    </contour>
  </outline>
</glyph>
<glyph name="guillemotleft" format="1">
  <advance width="460"/>
  <unicode hex="00AB"/>
  <outline>
    <contour>
      <point x="291" y="217" type="curve" smooth="yes"/>
      <point x="408" y="59" type="line" smooth="yes"/>
      <point x="423" y="39"/>
      <point x="417" y="9"/>
      <point x="397" y="-6" type="curve" smooth="yes"/>
      <point x="377" y="-21"/>
      <point x="346" y="-17"/>
      <point x="332" y="3" type="curve" smooth="yes"/>
      <point x="215" y="161" type="line" smooth="yes"/>
      <point x="200" y="181"/>
      <point x="206" y="211"/>
      <point x="226" y="226" type="curve" smooth="yes"/>
      <point x="246" y="241"/>
      <point x="277" y="237"/>
    </contour>
    <contour>
      <point x="408" y="324" type="curve" smooth="yes"/>
      <point x="291" y="166" type="line" smooth="yes"/>
      <point x="277" y="146"/>
      <point x="246" y="142"/>
      <point x="226" y="157" type="curve" smooth="yes"/>
      <point x="206" y="172"/>
      <point x="200" y="202"/>
      <point x="215" y="222" type="curve" smooth="yes"/>
      <point x="332" y="380" type="line" smooth="yes"/>
      <point x="346" y="400"/>
      <point x="377" y="404"/>
      <point x="397" y="389" type="curve" smooth="yes"/>
      <point x="417" y="374"/>
      <point x="423" y="344"/>
    </contour>
    <contour>
      <point x="113" y="217" type="curve" smooth="yes"/>
      <point x="229" y="59" type="line" smooth="yes"/>
      <point x="244" y="39"/>
      <point x="238" y="9"/>
      <point x="218" y="-6" type="curve" smooth="yes"/>
      <point x="198" y="-21"/>
      <point x="167" y="-17"/>
      <point x="153" y="3" type="curve" smooth="yes"/>
      <point x="37" y="161" type="line" smooth="yes"/>
      <point x="22" y="181"/>
      <point x="28" y="211"/>
      <point x="48" y="226" type="curve" smooth="yes"/>
      <point x="68" y="241"/>
      <point x="99" y="237"/>
    </contour>
    <contour>
      <point x="229" y="324" type="curve" smooth="yes"/>
      <point x="113" y="166" type="line" smooth="yes"/>
      <point x="99" y="146"/>
      <point x="68" y="142"/>
      <point x="48" y="157" type="curve" smooth="yes"/>
      <point x="28" y="172"/>
      <point x="22" y="202"/>
      <point x="37" y="222" type="curve" smooth="yes"/>
      <point x="153" y="380" type="line" smooth="yes"/>
      <point x="167" y="400"/>
      <point x="198" y="404"/>
      <point x="218" y="389" type="curve" smooth="yes"/>
      <point x="238" y="374"/>
      <point x="244" y="344"/>
    </contour>
  </outline>
</glyph>
<glyph name="logicalnot" format="1">
  <advance width="505"/>
  <unicode hex="00AC"/>
  <outline>
    <contour>
      <point x="114" y="298" type="curve" smooth="yes"/>
      <point x="391" y="298" type="line" smooth="yes"/>
      <point x="416" y="298"/>
      <point x="437" y="277"/>
      <point x="437" y="252" type="curve" smooth="yes"/>
      <point x="437" y="227"/>
      <point x="416" y="206"/>
      <point x="391" y="206" type="curve" smooth="yes"/>
      <point x="114" y="206" type="line" smooth="yes"/>
      <point x="89" y="206"/>
      <point x="68" y="227"/>
      <point x="68" y="252" type="curve" smooth="yes"/>
      <point x="68" y="277"/>
      <point x="89" y="298"/>
    </contour>
    <contour>
      <point x="442" y="245" type="curve" smooth="yes"/>
      <point x="442" y="139" type="line" smooth="yes"/>
      <point x="442" y="114"/>
      <point x="416" y="93"/>
      <point x="391" y="93" type="curve" smooth="yes"/>
      <point x="366" y="93"/>
      <point x="340" y="114"/>
      <point x="340" y="139" type="curve" smooth="yes"/>
      <point x="340" y="245" type="line" smooth="yes"/>
      <point x="340" y="270"/>
      <point x="366" y="291"/>
      <point x="391" y="291" type="curve" smooth="yes"/>
      <point x="416" y="291"/>
      <point x="442" y="270"/>
    </contour>
  </outline>
</glyph>
